<?xml version="1.0" encoding="UTF-8"?>
<svg xmlns="http://www.w3.org/2000/svg" xmlns:xlink="http://www.w3.org/1999/xlink" version="1.2" >
<font id="Adobe Caslon Italic 2">
<font-face  font-family="Adobe Caslon" units-per-em="1000" ascent="736.816" descent="-299.805" font-style="italic" font-weight="400" font-stretch="normal" slope="-22" cap-height="750" x-height="500" underline-position="-75" underline-thickness="50" />
<missing-glyph  horiz-adv-x="230" d="" />
<glyph glyph-name="NULL" d="" />
<glyph glyph-name="CR" unicode="&#xd;" horiz-adv-x="250" d="" />
<glyph glyph-name="space" unicode="&#x20;" horiz-adv-x="230" d="" />
<glyph glyph-name="exclam" unicode="&#x21;" horiz-adv-x="270" d="M80 -10 C113 -10 134 15 134 46 C134 65 117 96 86 96 C56 96 34 71 34 42 C34 4 66 -10 80 -10 L80 -10 Z M129 183 C135 183 137 183 141 191 C146 200 293 577 298 589 C309 616 313 632 313 641 C313 662 298 685 269 685 C246 685 227 668 219 632 C215 617 139 248 124 204 C119 189 125 183 129 183 L129 183 Z " />
<glyph glyph-name="quotedbl" unicode="&#x22;" horiz-adv-x="234" d="M157 460 C167 489 247 640 247 654 C247 672 233 685 217 685 C199 685 181 682 172 656 C162 628 140 498 132 468 L157 460 Z M277 460 C287 489 367 640 367 654 C367 672 353 685 337 685 C319 685 301 682 292 656 C282 628 260 498 252 468 L277 460 Z " />
<glyph glyph-name="numbersign" unicode="&#x23;" horiz-adv-x="500" d="M306 248 L208 248 L258 394 L356 394 L306 248 Z M292 198 L222 -5 C220 -11 221 -15 224 -15 L265 -15 C270 -15 273 -11 275 -4 L344 198 L444 198 C452 198 456 198 457 202 L469 240 C471 246 467 248 460 248 L358 248 L408 394 L497 394 C507 394 509 394 511 401 L523 438 C524 442 520 444 515 444 L422 444 L486 632 C489 641 488 645 483 645 L445 645 C439 645 436 640 433 632 L369 444 L272 444 L336 631 C338 637 340 645 334 645 L294 645 C289 645 286 642 284 636 L218 444 L121 444 C115 444 111 443 110 438 L98 401 C97 396 100 394 111 394 L206 394 L156 248 L65 248 C59 248 57 248 54 241 L42 206 C40 200 42 198 47 198 L141 198 L72 -2 C69 -11 70 -15 75 -15 L116 -15 C121 -15 122 -11 126 0 L194 198 L292 198 Z " />
<glyph glyph-name="dollar" unicode="&#x24;" horiz-adv-x="500" d="M58 68 C56 63 56 61 60 59 L68 55 C71 54 73 55 75 59 C89 88 98 95 108 95 C121 95 138 63 174 47 L148 -58 C146 -65 147 -69 151 -70 L168 -74 C173 -75 175 -73 176 -69 L202 35 C216 31 232 29 250 28 L229 -56 C227 -65 228 -69 232 -70 L248 -75 C253 -77 256 -74 258 -66 L281 29 C354 38 422 90 422 189 C422 248 389 290 353 324 L407 548 C434 514 440 469 439 440 C439 433 440 431 444 431 L458 431 C461 431 462 433 463 437 L488 592 C489 597 489 601 485 601 L476 601 C472 601 471 600 470 596 C465 575 459 569 452 569 C444 569 429 581 416 587 L437 674 C439 682 438 685 434 686 L418 689 C412 690 410 687 409 683 L389 600 C378 604 362 609 344 610 L362 680 C364 687 363 690 360 692 L342 695 C336 696 335 693 334 688 L314 610 C221 602 174 520 174 464 C174 408 202 370 244 328 L183 85 C149 112 125 162 144 238 C146 245 145 248 140 250 L129 253 C126 254 123 252 121 246 L58 68 Z M268 303 C271 301 298 274 308 265 L257 57 C246 57 224 60 210 67 L268 303 Z M328 345 C320 350 298 371 288 380 L337 581 C356 580 369 576 381 569 L328 345 Z M265 404 C247 426 236 449 236 488 C236 529 262 570 307 579 L265 404 Z M332 239 C350 219 364 193 364 158 C364 111 333 73 289 62 L332 239 Z " />
<glyph glyph-name="percent" unicode="&#x25;" horiz-adv-x="700" d="M177 278 C157 278 131 303 131 352 C131 442 201 615 278 615 C305 615 328 593 328 555 C328 460 263 278 177 278 L177 278 Z M181 251 C292 251 383 405 383 536 C383 599 350 645 282 645 C166 645 76 490 76 372 C76 299 111 251 181 251 L181 251 Z M186 -12 C190 -15 192 -15 194 -15 C197 -15 199 -13 202 -8 L612 617 C614 620 615 622 615 624 C615 626 614 628 611 629 L589 643 C587 644 584 645 582 645 C580 645 578 644 576 641 L168 18 C165 13 164 9 164 6 C164 4 165 2 167 1 L186 -12 Z M504 -7 C615 -7 706 147 706 278 C706 341 673 387 605 387 C489 387 399 232 399 114 C399 41 434 -7 504 -7 L504 -7 Z M500 20 C480 20 454 45 454 94 C454 184 524 357 601 357 C628 357 651 335 651 297 C651 202 586 20 500 20 L500 20 Z " />
<glyph glyph-name="ampersand" unicode="&#x26;" horiz-adv-x="852" d="M448 -22 C620 -22 770 80 770 250 C770 320 747 360 734 380 C723 397 725 404 748 407 C849 420 911 466 911 559 C911 612 864 664 796 664 C759 664 720 644 720 602 C720 589 730 566 763 566 C796 566 806 595 804 608 C802 617 802 630 815 630 C842 630 872 596 872 560 C872 504 820 472 712 472 C694 472 643 479 605 479 C500 479 452 404 452 337 C452 253 519 214 558 214 C603 214 619 246 619 263 C619 293 601 314 572 314 C541 314 529 286 529 274 C529 265 525 259 520 259 C511 259 488 285 488 331 C488 351 503 423 582 423 C670 423 731 346 731 267 C731 172 634 53 451 53 C266 53 158 152 158 275 C158 336 182 388 216 410 C229 418 233 416 246 405 C254 398 286 385 302 385 C318 385 331 408 331 432 C331 447 298 456 280 456 C265 456 254 454 245 451 C229 473 220 502 220 530 C220 598 262 645 316 645 C350 645 384 619 376 577 C374 566 375 559 379 559 C391 559 426 582 426 625 C426 674 384 704 329 704 C236 704 179 634 179 560 C179 515 190 476 216 441 C175 423 100 356 100 236 C100 134 169 -22 448 -22 L448 -22 Z " />
<glyph glyph-name="quotesingle" unicode="&#x27;" horiz-adv-x="144" d="M162 460 C172 489 252 640 252 654 C252 672 238 685 222 685 C204 685 186 682 177 656 C167 628 145 498 137 468 L162 460 Z " />
<glyph glyph-name="parenleft" unicode="&#x28;" horiz-adv-x="344" d="M86 69 C86 -34 114 -157 134 -200 C137 -206 140 -208 153 -203 C165 -199 168 -197 166 -189 C159 -158 145 -107 145 44 C145 304 270 547 441 687 C452 696 453 700 446 710 C439 721 435 723 427 717 C219 561 86 326 86 69 L86 69 Z " />
<glyph glyph-name="parenright" unicode="&#x29;" horiz-adv-x="344" d="M315 445 C315 548 287 671 267 714 C264 720 261 722 248 717 C236 713 233 711 235 703 C242 672 256 621 256 470 C256 210 131 -33 -40 -173 C-51 -182 -52 -186 -45 -196 C-38 -207 -34 -209 -26 -203 C182 -47 315 188 315 445 L315 445 Z " />
<glyph glyph-name="asterisk" unicode="&#x2a;" horiz-adv-x="300" d="M260 685 C238 685 226 668 224 654 C222 638 232 542 232 539 L231 537 C193 579 162 621 137 621 C119 621 103 602 103 585 C103 569 119 564 129 560 C136 557 223 534 228 533 L228 531 C223 531 121 503 109 497 C96 490 84 480 84 463 C84 444 101 438 110 438 C134 438 194 496 228 526 L230 524 C215 491 182 421 182 399 C182 388 187 377 207 377 C233 377 241 396 243 410 C245 423 237 520 236 524 L238 526 C274 481 302 442 327 442 C348 442 367 467 367 480 C367 489 356 495 350 498 C342 502 244 530 239 531 L239 534 C262 539 322 553 343 559 C380 570 383 584 383 592 C383 605 375 622 356 622 C333 622 260 551 239 537 L238 539 C251 566 286 644 286 666 C286 678 279 685 260 685 L260 685 Z " />
<glyph glyph-name="plus" unicode="&#x2b;" horiz-adv-x="500" d="M296 40 L296 213 L460 213 L460 267 L296 267 L296 440 L237 440 L237 267 L72 267 L72 213 L237 213 L237 40 L296 40 Z " />
<glyph glyph-name="comma" unicode="&#x2c;" horiz-adv-x="250" d="M11 -127 C30 -127 154 -91 154 27 C154 62 128 124 82 124 C54 124 38 102 38 78 C38 54 61 38 66 33 C82 16 90 6 90 -18 C90 -64 35 -97 10 -104 C2 -106 -2 -108 -1 -118 C1 -129 6 -127 11 -127 L11 -127 Z " />
<glyph glyph-name="hyphen" unicode="&#x2d;" horiz-adv-x="418" d="M63 224 C63 219 65 217 71 217 L394 217 C399 217 403 219 403 229 L403 263 C403 269 399 271 394 271 L71 271 C65 271 63 268 63 261 L63 224 Z " />
<glyph glyph-name="period" unicode="&#x2e;" horiz-adv-x="250" d="M94 -10 C127 -10 150 18 150 44 C150 56 138 96 93 96 C57 96 41 64 41 44 C41 13 63 -10 94 -10 L94 -10 Z " />
<glyph glyph-name="slash" unicode="&#x2f;" horiz-adv-x="330" d="M-50 16 C-56 8 -56 5 -53 3 L-23 -14 C-20 -16 -14 -15 -8 -6 L473 656 C477 662 478 668 473 670 L444 683 C439 685 434 683 430 677 L-50 16 Z " />
<glyph glyph-name="zero" unicode="0" horiz-adv-x="500" d="M209 -15 C377 -15 529 241 529 461 C529 569 477 645 380 645 C204 645 53 383 53 187 C53 65 109 -15 209 -15 L209 -15 Z M205 25 C163 25 125 66 125 154 C125 307 242 604 374 604 C426 604 460 567 460 496 C460 333 351 25 205 25 L205 25 Z " />
<glyph glyph-name="one" unicode="1" horiz-adv-x="500" d="M43 4 C42 0 44 -3 48 -3 C56 -3 181 0 196 0 C207 0 350 -3 358 -3 C365 -3 366 -2 367 3 L371 24 C372 30 371 34 365 34 L311 34 C263 34 255 46 268 82 C273 99 289 152 305 201 L360 376 C392 477 436 600 439 608 C445 622 447 631 447 635 C447 641 441 645 436 645 C428 645 422 642 406 635 L181 517 C173 513 172 510 174 505 L182 489 C185 484 190 483 196 486 L250 509 C282 522 301 531 312 531 C324 531 328 523 328 512 C328 502 317 473 298 413 L241 228 C218 155 198 97 193 85 C171 38 149 34 114 34 L61 34 C54 34 50 33 49 27 L43 4 Z " />
<glyph glyph-name="two" unicode="2" horiz-adv-x="500" d="M113 66 L113 68 C229 151 490 318 490 494 C490 583 434 645 347 645 C236 645 160 539 139 484 C136 475 136 472 139 470 L155 462 C159 460 161 463 167 473 C185 503 227 585 308 585 C396 585 407 503 407 467 C405 313 139 132 7 27 C-4 18 -7 11 -7 7 C-7 0 -5 -3 1 -3 C7 -3 15 -2 25 -1 C36 -1 47 0 58 0 L285 0 C302 0 326 0 332 -7 C338 -16 342 -19 351 -19 C357 -19 359 -17 363 -9 C365 -1 407 94 432 130 C436 136 437 138 435 142 L420 149 C416 151 414 149 410 142 C383 104 354 66 292 66 L113 66 Z " />
<glyph glyph-name="three" unicode="3" horiz-adv-x="500" d="M161 -15 C282 -15 430 88 430 227 C430 291 405 342 356 371 C421 411 486 463 486 548 C486 587 449 645 368 645 C261 645 200 563 176 524 C172 517 169 511 173 506 L185 498 C190 495 195 497 199 504 C211 525 263 591 327 591 C400 591 412 532 412 513 C412 428 315 375 272 367 C257 364 254 363 254 355 C254 346 257 343 272 338 C317 322 348 270 348 215 C348 104 265 16 164 16 C111 16 77 53 80 79 C83 98 78 136 42 136 C20 136 8 111 8 96 C8 44 61 -15 161 -15 L161 -15 Z " />
<glyph glyph-name="four" unicode="4" horiz-adv-x="500" d="M276 0 C290 0 294 3 300 20 L364 186 L465 186 C471 186 477 190 481 198 L496 228 C497 233 497 239 489 239 L385 239 L526 610 C535 634 531 645 520 645 C510 645 500 639 492 632 L36 230 C20 216 13 208 13 201 C13 193 20 186 29 186 L294 186 L230 24 C224 8 225 0 231 0 L276 0 Z M121 239 C110 239 109 249 119 257 L409 515 C421 526 427 520 420 502 L315 239 L121 239 Z " />
<glyph glyph-name="five" unicode="5" horiz-adv-x="500" d="M262 559 L439 559 C455 559 465 560 470 567 L527 653 C531 659 529 662 520 668 C512 674 509 675 505 670 C488 647 477 630 440 630 L258 630 C251 630 246 629 243 621 L149 375 C145 365 147 360 151 357 C154 353 162 352 180 352 C206 352 252 342 271 331 C320 305 351 261 351 198 C351 119 276 25 160 25 C135 25 114 31 105 38 C88 51 72 60 54 60 C38 60 29 46 29 31 C29 -2 94 -15 140 -15 C328 -15 427 136 427 234 C427 288 406 350 333 387 C289 409 222 416 210 416 L207 418 L262 559 Z " />
<glyph glyph-name="six" unicode="6" horiz-adv-x="500" d="M225 -15 C350 -15 465 111 465 248 C465 324 415 386 332 386 C283 386 251 375 211 349 L209 351 C273 466 342 552 476 619 C480 621 486 625 486 632 C486 640 481 645 474 645 C468 645 456 641 448 638 C297 580 74 381 74 153 C74 61 122 -15 225 -15 L225 -15 Z M230 19 C155 19 142 91 143 136 C145 183 154 247 192 298 C214 328 259 347 294 347 C354 347 385 298 385 246 C385 170 333 19 230 19 L230 19 Z " />
<glyph glyph-name="seven" unicode="7" horiz-adv-x="500" d="M269 630 C236 630 225 633 227 649 C228 657 228 660 220 663 C210 667 209 665 203 654 L123 495 C120 489 121 486 128 481 C136 475 142 475 146 481 C180 526 195 563 271 563 L464 563 C446 536 346 358 319 311 C269 223 167 74 161 65 C154 54 140 33 140 17 C140 -10 159 -15 172 -15 C199 -15 217 23 232 55 C259 112 427 427 437 446 C447 465 530 604 534 610 C538 616 539 616 539 622 C539 628 536 630 530 630 L269 630 Z " />
<glyph glyph-name="eight" unicode="8" horiz-adv-x="500" d="M212 -15 C333 -15 418 76 418 175 C418 233 376 279 344 319 C397 345 522 418 522 527 C522 587 469 645 379 645 C244 645 164 542 164 463 C164 403 218 347 244 313 C181 279 60 229 60 119 C60 81 84 -15 212 -15 L212 -15 Z M215 12 C178 12 128 49 128 114 C128 226 215 261 266 290 C293 257 342 211 342 139 C342 95 305 12 215 12 L215 12 Z M319 343 C269 396 237 443 237 496 C237 572 299 612 359 612 C432 612 457 548 457 515 C457 429 396 383 319 343 L319 343 Z " />
<glyph glyph-name="nine" unicode="9" horiz-adv-x="500" d="M352 645 C209 645 116 502 116 384 C116 344 139 235 252 235 C304 235 329 245 360 271 L362 269 C305 171 239 84 81 11 C77 9 74 5 74 -2 C74 -8 80 -15 88 -15 C93 -15 100 -12 107 -10 C286 41 502 247 502 475 C502 578 454 645 352 645 L352 645 Z M347 611 C421 611 433 545 433 503 C433 452 419 379 380 326 C355 293 311 272 276 272 C214 272 193 329 193 375 C193 452 239 611 347 611 L347 611 Z " />
<glyph glyph-name="colon" unicode="&#x3a;" horiz-adv-x="250" d="M81 -10 C114 -10 137 18 137 44 C137 56 125 96 80 96 C44 96 28 64 28 44 C28 13 50 -10 81 -10 L81 -10 Z M192 310 C225 310 248 338 248 364 C248 376 236 416 191 416 C155 416 139 384 139 364 C139 333 161 310 192 310 L192 310 Z " />
<glyph glyph-name="semicolon" unicode="&#x3b;" horiz-adv-x="250" d="M14 -127 C33 -127 157 -91 157 27 C157 62 131 124 85 124 C57 124 41 102 41 78 C41 54 64 38 69 33 C85 16 93 6 93 -18 C93 -64 38 -97 13 -104 C5 -106 1 -108 2 -118 C4 -129 9 -127 14 -127 L14 -127 Z M175 310 C208 310 231 338 231 364 C231 376 219 416 174 416 C138 416 122 384 122 364 C122 333 144 310 175 310 L175 310 Z " />
<glyph glyph-name="less" unicode="&#x3c;" horiz-adv-x="500" d="M395 40 L395 108 L174 241 L174 246 L395 374 L395 440 L84 257 L84 225 L395 40 Z " />
<glyph glyph-name="equal" unicode="&#x3d;" horiz-adv-x="500" d="M72 346 L72 292 L460 292 L460 346 L72 346 Z M72 195 L72 141 L460 141 L460 195 L72 195 Z " />
<glyph glyph-name="greater" unicode="&#x3e;" horiz-adv-x="500" d="M125 440 L125 372 L346 239 L346 234 L125 106 L125 40 L436 223 L436 255 L125 440 Z " />
<glyph glyph-name="question" unicode="&#x3f;" horiz-adv-x="429" d="M317 685 C218 685 164 613 164 557 C164 498 210 480 246 480 C283 480 326 507 326 550 C326 563 315 584 289 584 C253 584 239 553 239 538 C239 533 238 530 240 523 C237 516 231 514 224 514 C214 514 194 527 194 559 C194 611 248 650 311 650 C382 650 411 599 411 568 C411 490 354 457 283 413 C232 381 124 332 124 249 C124 177 173 145 222 145 C271 145 314 185 329 202 C330 204 330 207 327 210 L320 218 C317 222 314 223 311 220 C301 208 268 183 231 183 C192 183 161 202 161 233 C161 277 205 299 278 336 C356 376 464 428 464 554 C464 590 443 685 317 685 L317 685 Z M181 -10 C211 -10 230 21 230 39 C230 67 209 91 179 91 C145 91 129 62 129 39 C129 7 158 -10 181 -10 L181 -10 Z " />
<glyph glyph-name="at" unicode="&#x40;" horiz-adv-x="700" d="M280 239 C280 321 392 504 471 504 C495 504 510 480 510 453 C510 437 502 413 485 379 C470 348 361 209 303 209 C288 209 280 220 280 239 L280 239 Z M546 61 C492 27 427 22 366 22 C231 21 127 110 127 264 C127 448 279 650 472 650 C600 650 677 581 677 442 C677 280 573 203 522 203 C505 203 494 209 494 222 C494 252 522 325 534 353 C540 366 590 490 603 513 C605 517 606 523 598 523 L562 523 C559 523 557 522 553 516 L541 498 C534 511 520 531 483 531 C373 531 214 347 214 221 C214 184 238 166 262 166 C334 166 422 259 460 312 L464 310 C438 246 431 211 431 197 C431 181 448 166 466 166 C634 166 735 308 735 432 C735 586 648 685 483 685 C270 685 57 475 57 250 C57 95 167 -15 352 -15 C440 -15 529 11 559 37 L546 61 Z " />
<glyph glyph-name="A" unicode="A" horiz-adv-x="619" d="M472 301 L422 116 C402 41 376 34 338 34 L319 34 C314 34 312 30 311 26 L307 7 C306 1 308 -3 317 -3 C333 -3 364 0 434 0 C502 0 542 -3 554 -3 C563 -3 565 0 566 6 L569 24 C570 31 567 34 561 34 L534 34 C514 34 497 46 497 62 C497 78 503 103 507 120 L654 675 C656 682 652 685 644 685 C636 685 622 680 611 677 C601 674 578 671 564 670 C545 669 541 667 536 660 L73 107 C37 64 -5 34 -48 34 L-63 34 C-67 34 -69 32 -70 26 L-75 4 C-76 -1 -71 -3 -66 -3 C-55 -3 -20 0 46 0 C124 0 167 -3 177 -3 C184 -3 186 0 187 5 L191 24 C193 32 189 34 184 34 L148 34 C126 34 113 43 113 58 C113 72 133 98 154 125 L294 301 L472 301 Z M320 336 L538 607 C546 616 564 614 560 600 L483 336 L320 336 Z " />
<glyph glyph-name="B" unicode="B" horiz-adv-x="619" d="M128 95 C118 57 102 34 64 34 L25 34 C19 34 17 31 16 26 L12 5 C11 -1 14 -3 21 -3 C67 -3 114 0 160 0 C205 0 250 -3 295 -3 C407 -3 469 21 506 55 C561 106 564 165 564 176 C564 259 507 313 428 338 C424 340 424 343 430 344 C517 359 629 411 629 537 C629 584 601 619 566 640 C511 673 424 673 411 673 C376 673 329 672 270 671 C229 670 195 670 189 670 C180 670 177 669 176 663 L172 642 C171 637 174 633 180 633 L206 633 C243 633 261 624 261 606 C261 598 259 585 255 570 L128 95 Z M273 328 L287 328 C362 328 475 298 475 191 C475 109 418 29 285 29 C270 29 234 35 223 41 C204 53 203 63 212 98 L273 328 Z M356 639 C364 640 373 641 385 641 C481 641 541 585 541 522 C540 408 449 358 342 358 C329 358 299 359 282 362 L356 639 Z " />
<glyph glyph-name="C" unicode="C" horiz-adv-x="666" d="M638 197 C639 202 639 204 633 206 L616 211 C611 213 610 212 606 203 C545 55 441 26 357 26 C299 26 204 70 204 213 C204 293 228 417 303 527 C360 609 414 649 495 649 C610 649 661 535 640 437 C639 430 641 428 646 427 L660 425 C667 423 669 425 671 431 L724 638 C726 644 724 647 718 648 L705 651 C701 653 698 651 696 645 C690 622 682 614 670 614 C651 614 633 633 620 642 C572 675 536 685 488 685 C402 685 312 641 247 570 C155 470 102 337 102 223 C102 77 209 -15 342 -15 C390 -15 458 2 480 13 C498 21 515 27 524 27 C533 27 540 19 540 8 C540 1 538 -4 537 -9 C535 -14 537 -16 540 -17 L558 -22 C562 -23 565 -22 567 -17 L638 197 Z " />
<glyph glyph-name="D" unicode="D" horiz-adv-x="777" d="M134 113 C118 47 86 34 50 34 L20 34 C13 34 11 31 10 27 L4 5 C3 0 5 -3 12 -3 C20 -3 49 0 124 0 C152 0 243 -3 270 -3 C336 -3 471 -3 597 68 C658 103 782 202 782 398 C782 459 769 516 707 579 C623 662 483 676 356 676 C336 676 290 674 248 673 C209 671 177 670 165 670 C153 670 151 669 149 663 L143 641 C141 635 143 633 153 633 L198 633 C233 633 259 622 249 583 L134 113 Z M346 636 C356 639 386 639 402 639 C416 639 457 640 511 626 C550 615 592 595 625 561 C662 523 689 460 689 395 C689 280 628 168 567 117 C493 54 388 34 281 34 C238 34 210 43 210 64 C210 74 213 88 217 106 L346 636 Z " />
<glyph glyph-name="E" unicode="E" horiz-adv-x="669" d="M117 90 C106 55 86 34 45 34 L8 34 C3 34 2 32 0 26 L-3 5 C-5 -1 -2 -3 5 -3 C9 -3 17 -2 35 -1 C54 -1 83 0 129 0 L245 0 C314 0 388 -1 447 -1 C506 -2 550 -3 558 -3 C570 -3 575 -1 580 14 L631 159 C634 168 632 170 628 173 L618 179 C613 183 609 181 606 177 L526 76 C506 50 482 34 446 34 L187 34 L284 341 L344 341 C423 341 463 339 456 256 C455 250 455 249 460 248 L476 246 C480 245 482 246 483 252 L537 451 C538 456 535 458 531 459 L516 462 C512 463 510 461 509 457 C481 375 448 373 390 373 L294 373 L380 636 L562 636 C569 636 574 634 578 628 L672 507 C676 502 677 502 682 504 L693 508 C699 511 700 512 699 517 L667 654 C663 670 661 673 646 673 C635 673 610 672 569 672 C528 671 471 670 395 670 L331 670 C283 670 252 671 231 672 C210 672 199 673 193 673 C186 673 183 672 181 666 L176 647 C174 639 176 636 182 636 L214 636 C248 636 287 621 269 565 L117 90 Z " />
<glyph glyph-name="F" unicode="F" horiz-adv-x="620" d="M121 95 C108 54 84 34 52 34 L23 34 C16 34 14 31 13 26 L9 5 C8 -1 11 -3 16 -3 C27 -3 53 0 137 0 C217 0 247 -3 259 -3 C266 -3 270 -2 271 3 L278 26 C279 31 276 34 269 34 L241 34 C206 34 195 46 213 108 L281 335 L431 329 C487 327 488 294 476 221 C475 215 477 213 482 212 L499 210 C504 208 507 210 509 215 L568 466 C570 472 568 474 564 475 L548 478 C543 479 538 480 536 473 C517 408 507 371 441 370 L292 368 L376 636 C396 636 575 633 594 631 C621 629 617 631 631 613 C641 600 689 516 693 501 C694 496 697 494 701 496 L716 502 C720 503 722 506 721 511 C719 522 702 641 701 667 C701 676 699 683 691 683 C680 683 653 675 604 673 C560 672 488 670 337 670 C283 670 242 673 227 673 C219 673 216 670 215 665 L209 645 C207 638 209 636 216 636 L250 636 C277 636 286 624 278 598 L121 95 Z " />
<glyph glyph-name="G" unicode="G" horiz-adv-x="709" d="M636 206 C642 234 657 242 681 242 L697 242 C703 242 705 244 706 250 L709 269 C710 276 707 279 700 279 C686 279 662 276 594 276 C528 276 493 279 478 279 C470 279 468 277 467 271 L463 252 C461 245 462 242 470 242 L507 242 C540 242 556 234 547 194 L527 97 C523 84 518 71 509 63 C491 48 448 21 384 21 C292 21 199 88 199 246 C199 465 330 651 511 651 C636 651 688 539 666 453 C664 447 667 444 672 443 L685 441 C693 440 695 441 697 447 L754 648 C755 653 752 655 748 656 L736 659 C729 661 727 659 726 655 C720 633 714 623 700 623 C695 623 686 625 673 635 C653 651 597 685 511 685 C297 685 102 502 102 265 C102 109 213 -15 389 -15 C467 -15 554 18 583 30 C594 35 597 39 601 52 L636 206 Z " />
<glyph glyph-name="H" unicode="H" horiz-adv-x="784" d="M628 324 L562 121 C540 52 521 34 480 34 L452 34 C446 34 444 30 443 24 L441 9 C440 1 442 -3 449 -3 C460 -3 499 0 572 0 C651 0 684 -3 694 -3 C702 -3 705 -1 706 4 L711 24 C713 31 710 34 703 34 L667 34 C635 34 630 65 643 104 L798 583 C811 624 825 636 852 636 L881 636 C886 636 888 639 890 644 L896 666 C897 669 894 673 886 673 C875 673 833 670 778 670 C725 670 674 673 665 673 C659 673 656 671 655 667 L650 646 C649 640 652 636 657 636 L681 636 C705 636 722 623 713 593 L639 360 L276 360 L348 583 C361 623 372 636 414 636 L440 636 C446 636 448 638 449 643 L456 665 C458 670 454 673 447 673 C437 673 387 670 327 670 C263 670 209 673 201 673 C195 673 193 671 191 665 L186 646 C184 640 187 636 192 636 L228 636 C255 636 273 620 263 589 L107 110 C90 57 71 34 39 34 L15 34 C9 34 8 32 6 26 L2 9 C0 1 4 -3 9 -3 C18 -3 53 0 122 0 C199 0 238 -3 249 -3 C255 -3 259 0 260 6 L264 26 C265 30 262 34 256 34 L221 34 C185 34 173 44 191 100 L263 324 L628 324 Z " />
<glyph glyph-name="I" unicode="I" horiz-adv-x="359" d="M130 108 C115 54 107 34 48 34 L5 34 C-1 34 -2 32 -4 24 L-8 5 C-9 0 -7 -3 0 -3 C11 -3 67 0 148 0 C235 0 282 -3 293 -3 C303 -3 304 -1 305 5 L308 24 C309 30 308 34 302 34 L267 34 C215 34 201 54 214 102 L339 565 C356 626 371 636 432 636 L451 636 C459 636 461 639 462 644 L467 663 C469 669 466 673 456 673 C442 673 399 670 317 670 C247 670 194 673 182 673 C173 673 170 671 169 667 L164 644 C163 638 165 636 173 636 L219 636 C254 636 268 619 255 570 L130 108 Z " />
<glyph glyph-name="J" unicode="J" horiz-adv-x="345" d="M347 554 C367 623 390 636 422 636 L448 636 C455 636 457 638 458 643 L462 663 C463 670 460 673 453 673 C444 673 403 670 330 670 C257 670 211 673 203 673 C197 673 194 671 193 665 L188 644 C187 638 191 636 197 636 L230 636 C278 636 277 607 267 574 L104 10 C80 -73 42 -166 -13 -166 C-37 -166 -44 -162 -47 -159 C-49 -156 -50 -151 -47 -147 C-43 -141 -41 -130 -41 -122 C-41 -105 -56 -80 -85 -80 C-112 -80 -130 -104 -130 -133 C-130 -154 -110 -200 -34 -200 C28 -200 79 -173 123 -116 C161 -66 198 32 218 102 L347 554 Z " />
<glyph glyph-name="K" unicode="K" horiz-adv-x="684" d="M276 319 C296 319 302 316 311 305 C334 276 465 74 473 62 C482 48 465 34 443 34 L428 34 C422 34 420 31 419 24 L417 8 C416 0 419 -3 426 -3 C438 -3 493 0 552 0 C615 0 642 -3 654 -3 C663 -3 665 -1 667 7 L671 24 C672 29 669 34 662 34 L633 34 C611 34 579 58 561 79 C537 108 390 321 383 335 C397 351 643 571 684 603 C707 621 733 636 763 636 L794 636 C801 636 802 640 804 646 L808 664 C809 669 806 673 797 673 C788 673 760 670 700 670 C642 670 600 673 590 673 C584 673 581 671 579 665 L575 647 C574 642 576 637 583 637 L595 637 C622 637 626 621 612 603 C573 554 457 454 368 375 C341 350 328 347 285 347 L360 583 C372 620 391 636 425 636 L449 636 C457 636 460 637 461 644 L464 663 C465 669 464 673 458 673 C446 673 416 670 336 670 C269 670 233 673 224 673 C217 673 214 672 212 667 L205 646 C203 640 206 636 214 636 L239 636 C277 636 286 616 272 572 L118 94 C105 53 80 34 54 34 L26 34 C18 34 16 31 15 26 L11 8 C10 2 13 -3 19 -3 C26 -3 56 0 131 0 C199 0 243 -3 254 -3 C263 -3 266 0 267 5 L271 24 C272 31 269 34 264 34 L239 34 C207 34 191 56 205 100 L276 319 Z " />
<glyph glyph-name="L" unicode="L" horiz-adv-x="625" d="M121 108 C101 45 83 34 39 34 L14 34 C8 34 6 31 5 26 L1 7 C0 -1 3 -3 9 -3 C20 -3 144 0 256 0 C342 0 468 -3 490 -3 C503 -3 516 -6 527 -9 C538 -12 547 -15 553 -15 C558 -15 563 -9 565 1 C569 27 603 147 607 158 C609 163 607 165 601 167 L591 171 C585 174 582 172 581 169 C577 161 521 72 501 54 C493 47 484 41 466 38 C447 35 324 34 259 34 L219 34 C197 34 187 41 194 63 L350 567 C368 625 384 636 422 636 L467 636 C474 636 477 638 479 644 L484 665 C485 670 482 673 476 673 C465 673 419 670 334 670 C250 670 207 673 196 673 C188 673 185 672 184 667 L177 644 C176 639 178 636 185 636 L222 636 C271 636 279 618 265 574 L121 108 Z " />
<glyph glyph-name="M" unicode="M" horiz-adv-x="938" d="M106 103 C92 63 79 34 25 34 L5 34 C0 34 -1 32 -2 26 L-6 5 C-7 0 -5 -3 0 -3 C11 -3 41 0 97 0 C158 0 189 -3 200 -3 C208 -3 211 0 212 5 L215 24 C216 31 215 34 208 34 L173 34 C151 34 131 47 151 105 L315 590 C320 604 329 604 331 585 L388 22 C390 -7 413 -7 428 15 L838 594 C845 604 858 604 854 588 L720 105 C708 62 687 34 637 34 L611 34 C603 34 601 30 600 24 L598 7 C597 0 598 -3 607 -3 C617 -3 656 0 737 0 C808 0 841 -3 853 -3 C863 -3 864 -1 865 5 L869 26 C870 31 868 34 862 34 L831 34 C805 34 790 53 801 96 L930 562 C944 611 957 636 981 636 L1011 636 C1018 636 1020 638 1021 644 L1025 665 C1026 670 1023 673 1016 673 C1003 673 971 670 860 670 C847 670 841 664 834 654 L481 156 C468 138 459 138 456 164 L408 647 C406 664 404 670 388 670 C243 670 202 673 192 673 C185 673 183 670 181 663 L177 646 C176 640 180 636 189 636 L225 636 C254 636 277 627 277 608 C277 599 274 586 270 575 L106 103 Z " />
<glyph glyph-name="N" unicode="N" horiz-adv-x="746" d="M118 137 C94 62 73 34 24 34 L-3 34 C-9 34 -11 31 -12 26 L-15 8 C-16 1 -13 -3 -7 -3 C3 -3 36 0 105 0 C178 0 221 -3 231 -3 C240 -3 241 -1 243 5 L246 24 C247 30 244 34 237 34 L198 34 C153 34 146 67 164 127 L292 550 C296 564 304 564 310 551 L548 20 C560 -6 578 -7 589 26 L783 581 C800 629 813 636 838 636 L863 636 C869 636 871 637 872 644 L875 660 C877 668 874 673 866 673 C852 673 832 670 780 670 C709 670 678 673 666 673 C659 673 657 670 656 665 L653 647 C652 639 655 636 664 636 L699 636 C731 636 744 616 731 578 L600 187 C586 147 583 147 575 164 L360 644 C355 655 354 670 339 670 C220 670 180 673 167 673 C159 673 158 670 156 663 L152 648 C150 640 154 636 160 636 L198 636 C263 636 266 608 256 577 L118 137 Z " />
<glyph glyph-name="O" unicode="O" horiz-adv-x="709" d="M360 -15 C586 -15 715 199 715 385 C715 564 603 685 452 685 C267 685 102 493 102 288 C102 191 127 113 186 53 C254 -18 341 -15 360 -15 L360 -15 Z M337 24 C263 24 178 81 178 223 C178 326 235 480 324 569 C367 612 410 641 471 641 C582 641 637 557 637 450 C637 246 501 24 337 24 L337 24 Z " />
<glyph glyph-name="P" unicode="P" horiz-adv-x="590" d="M133 114 C122 71 108 34 54 34 L33 34 C26 34 23 30 22 24 L20 7 C19 0 22 -3 28 -3 C42 -3 78 0 146 0 C226 0 267 -3 279 -3 C288 -3 290 -1 291 5 L294 24 C295 30 293 34 286 34 L248 34 C208 34 206 69 216 107 L265 290 C280 285 322 278 366 278 C568 278 654 389 654 490 C654 558 638 589 594 626 C546 666 491 673 396 673 C375 673 197 670 187 670 C177 670 175 669 173 662 L168 643 C167 638 168 633 173 633 L220 633 C265 633 261 598 252 566 L133 114 Z M357 639 C364 641 385 641 396 641 C464 641 566 617 566 498 C566 414 507 310 357 310 C316 310 288 315 272 326 L357 639 Z " />
<glyph glyph-name="Q" unicode="Q" horiz-adv-x="740" d="M489 685 C361 685 308 640 249 589 C199 546 111 422 111 283 C111 115 199 18 316 -4 L316 -8 C254 -24 102 -82 102 -121 C102 -139 110 -155 126 -155 C139 -155 155 -143 165 -133 C174 -124 188 -121 218 -121 C338 -121 386 -157 430 -204 C461 -237 494 -250 530 -250 C588 -250 666 -208 666 -131 C666 -120 658 -92 629 -92 C605 -92 588 -111 588 -131 C588 -148 591 -155 596 -164 C600 -173 602 -176 602 -183 C602 -197 590 -216 564 -216 C542 -216 525 -202 505 -174 C472 -130 420 -81 306 -81 C268 -81 236 -85 214 -87 L212 -82 C250 -62 362 -28 448 -7 C493 4 573 37 628 102 C702 190 746 309 746 405 C746 593 630 685 489 685 L489 685 Z M362 25 C321 25 193 33 193 233 C193 368 305 649 498 649 C598 649 661 573 661 463 C661 248 516 25 362 25 L362 25 Z " />
<glyph glyph-name="R" unicode="R" horiz-adv-x="694" d="M110 84 C101 56 84 34 48 34 L29 34 C22 34 20 32 19 26 L15 5 C14 0 15 -3 21 -3 C33 -3 72 0 131 0 C215 0 260 -3 271 -3 C278 -3 282 -2 283 3 L286 26 C287 31 285 34 279 34 L238 34 C196 34 183 49 201 106 L272 325 C310 325 366 330 395 274 C407 250 496 53 510 29 C524 5 529 -3 537 -3 C548 -3 567 0 611 0 C659 0 675 -3 685 -3 C692 -3 694 0 695 5 L698 24 C699 30 698 34 691 34 L666 34 C623 34 603 51 578 92 C560 122 491 264 486 274 C475 295 460 326 436 334 L436 336 C553 350 661 430 661 530 C661 666 507 673 435 673 C419 673 316 670 211 670 C201 670 199 668 198 662 L193 641 C192 636 193 633 201 633 L240 633 C276 633 280 615 269 583 L110 84 Z M371 640 C383 641 394 641 412 641 C534 641 571 572 571 530 C571 460 525 406 466 382 C393 352 333 357 282 357 L371 640 Z " />
<glyph glyph-name="S" unicode="S" horiz-adv-x="504" d="M57 33 C55 26 56 25 61 23 L74 18 C80 15 82 17 84 21 C91 36 99 51 105 59 C111 68 120 69 128 61 C168 21 211 -15 275 -15 C363 -15 456 46 456 178 C456 283 393 339 347 385 C301 432 257 462 257 537 C257 591 294 646 356 646 C460 646 473 519 467 479 C466 473 470 471 476 470 L490 469 C495 469 497 471 498 475 L534 665 C535 669 533 671 527 672 L514 673 C507 674 505 673 504 670 C500 649 496 635 488 635 C482 635 479 637 474 640 C458 651 411 685 356 685 C243 685 186 581 186 509 C186 415 235 364 297 296 C341 248 390 209 390 142 C390 75 338 24 274 24 C212 24 123 92 159 241 C161 248 157 250 152 252 L142 255 C136 256 133 256 131 251 L57 33 Z " />
<glyph glyph-name="T" unicode="T" horiz-adv-x="664" d="M354 670 C225 670 202 689 191 689 C186 689 185 685 183 679 C181 673 119 536 107 513 C105 509 105 505 109 503 L122 497 C128 495 132 495 135 500 C151 526 197 584 237 618 C266 627 320 638 417 638 L443 638 L283 137 C259 61 241 34 181 34 L154 34 C146 34 144 31 143 26 L140 7 C139 0 140 -3 148 -3 C159 -3 212 0 284 0 C380 0 420 -3 434 -3 C444 -3 446 0 447 5 L451 24 C452 29 451 34 444 34 L405 34 C349 34 342 56 362 120 L527 638 L548 638 C581 638 673 628 701 617 C715 588 733 518 738 485 C740 474 742 471 751 472 L764 473 C770 474 772 475 772 481 C769 521 779 665 781 679 C782 687 779 689 775 689 C770 689 750 670 653 670 L354 670 Z " />
<glyph glyph-name="U" unicode="U" horiz-adv-x="731" d="M761 590 C772 617 787 636 819 636 L840 636 C848 636 850 639 851 644 L854 663 C855 670 854 673 845 673 C835 673 812 670 754 670 C682 670 644 673 632 673 C623 673 621 670 619 663 L616 644 C615 639 616 636 625 636 L663 636 C694 636 715 623 700 575 L612 287 C578 176 546 121 500 80 C468 51 414 30 370 30 C335 30 212 45 212 171 C212 216 235 290 241 312 L323 579 C339 632 363 636 387 636 L419 636 C425 636 428 639 429 644 L433 663 C434 670 432 673 424 673 C414 673 380 670 299 670 C227 670 192 673 180 673 C170 673 168 671 167 665 L162 644 C161 638 164 636 169 636 L205 636 C237 636 248 619 233 574 L148 293 C142 272 127 210 127 168 C127 44 226 -15 360 -15 C517 -15 606 94 663 279 L761 590 Z " />
<glyph glyph-name="V" unicode="V" horiz-adv-x="612" d="M321 592 C326 624 343 636 379 636 L411 636 C419 636 421 638 422 644 L426 665 C427 670 425 673 415 673 C403 673 362 670 289 670 C217 670 174 673 161 673 C152 673 152 670 150 663 L144 643 C143 638 148 636 156 636 L187 636 C227 636 236 612 231 581 L149 15 C146 -7 151 -20 164 -20 C176 -20 187 -11 193 -3 L627 557 C661 600 695 636 731 636 L761 636 C766 636 768 639 770 646 L774 663 C775 668 773 673 763 673 C750 673 724 670 667 670 C606 670 572 673 559 673 C550 673 547 671 546 665 L542 648 C540 639 543 636 552 636 L583 636 C611 636 612 606 585 571 L279 164 C263 143 251 143 255 168 L321 592 Z " />
<glyph glyph-name="W" unicode="W" horiz-adv-x="874" d="M324 580 C332 623 343 636 377 636 L399 636 C406 636 408 639 409 644 L413 663 C414 670 412 673 403 673 C391 673 353 670 291 670 C239 670 199 673 189 673 C180 673 178 670 177 665 L173 646 C172 638 175 636 183 636 L207 636 C240 636 245 618 239 583 L150 24 C145 -7 148 -20 158 -20 C173 -20 182 -9 193 3 C230 43 528 452 538 465 C545 474 552 472 550 458 L502 10 C500 -8 505 -20 518 -20 C530 -20 542 -4 551 6 C594 56 730 258 758 304 C783 343 931 590 943 607 C960 629 979 636 1001 636 L1018 636 C1022 636 1025 638 1026 644 L1030 663 C1031 669 1028 673 1021 673 C1006 673 980 670 926 670 C879 670 855 673 842 673 C835 673 832 670 831 663 L827 644 C826 638 828 636 833 636 L849 636 C877 636 879 610 869 582 C859 555 798 446 753 370 C739 346 625 157 602 137 C595 131 590 133 592 146 L645 586 C650 624 659 636 680 636 L702 636 C709 636 711 638 713 644 L718 663 C720 670 716 673 709 673 C697 673 671 670 615 670 C565 670 539 673 529 673 C520 673 518 671 517 665 L512 642 C511 638 514 636 520 636 L537 636 C557 636 568 621 568 607 C568 590 560 560 535 524 C525 510 276 162 260 146 C249 135 243 138 245 148 L324 580 Z " />
<glyph glyph-name="X" unicode="X" horiz-adv-x="691" d="M380 584 C371 609 372 636 404 636 L423 636 C430 636 431 639 432 644 L435 663 C436 669 435 673 426 673 C413 673 381 670 319 670 C271 670 226 673 214 673 C203 673 202 670 201 663 L198 646 C197 639 199 636 206 636 L232 636 C270 636 282 611 295 574 L376 342 C350 316 128 106 110 92 C78 67 52 34 4 34 L-18 34 C-25 34 -26 31 -28 24 L-32 5 C-33 0 -29 -3 -23 -3 C-11 -3 31 0 80 0 C143 0 180 -3 192 -3 C202 -3 203 1 204 7 L206 24 C207 29 207 34 201 34 L182 34 C154 34 152 60 168 80 C212 136 377 295 389 310 C396 290 466 88 470 74 C476 55 472 34 442 34 L424 34 C417 34 416 30 415 26 L412 9 C410 0 412 -3 423 -3 C438 -3 475 0 539 0 C602 0 632 -3 643 -3 C652 -3 653 -1 654 7 L655 24 C655 31 654 34 647 34 L624 34 C594 34 566 56 555 86 L456 362 C486 389 689 589 701 598 C727 617 756 636 780 636 L797 636 C804 636 805 638 806 644 L809 665 C810 670 808 673 799 673 C788 673 759 670 706 670 C654 670 617 673 604 673 C595 673 593 671 592 663 L589 644 C588 637 590 636 597 636 L612 636 C640 636 647 612 636 594 C622 571 476 425 444 396 L380 584 Z " />
<glyph glyph-name="Y" unicode="Y" horiz-adv-x="540" d="M217 87 C210 57 199 34 152 34 L123 34 C116 34 114 31 114 26 L110 5 C109 -1 112 -3 118 -3 C129 -3 160 0 243 0 C317 0 349 -3 364 -3 C372 -3 374 0 375 5 L378 26 C379 31 377 34 371 34 L341 34 C308 34 291 39 302 90 L327 203 C337 248 347 261 369 292 C383 312 566 569 580 587 C606 620 624 636 658 636 L677 636 C682 636 684 638 685 646 L688 665 C689 670 687 673 678 673 C665 673 635 670 580 670 C523 670 484 673 470 673 C461 673 459 672 458 665 L456 646 C455 640 457 636 463 636 L483 636 C523 636 533 620 520 582 C509 551 358 336 336 306 C329 297 325 297 321 310 L228 588 C220 611 222 636 260 636 L286 636 C292 636 294 638 295 644 L297 665 C298 671 295 673 288 673 C275 673 241 670 165 670 C99 670 73 673 60 673 C53 673 51 672 50 665 L46 644 C45 638 47 636 53 636 L76 636 C111 636 129 621 137 598 L245 289 C248 280 253 249 250 235 L217 87 Z " />
<glyph glyph-name="Z" unicode="Z" horiz-adv-x="677" d="M389 0 C418 0 560 -3 578 -8 C583 -10 591 -12 597 -12 C601 -12 604 -11 606 -6 L653 125 C655 131 653 134 650 135 L636 142 C632 144 629 144 626 139 C595 87 570 61 516 51 C447 38 367 37 183 37 L706 648 C712 655 715 670 698 670 L374 670 C346 670 237 675 230 679 C223 683 218 685 213 685 C208 685 204 679 203 675 L165 561 C164 557 164 555 169 553 L183 548 C186 547 189 548 192 553 C205 582 239 622 287 627 C323 631 448 634 592 634 L65 22 C60 16 55 0 73 0 L389 0 Z " />
<glyph glyph-name="bracketleft" unicode="&#x5b;" horiz-adv-x="324" d="M223 -197 C234 -197 237 -196 238 -190 L244 -167 C245 -162 242 -160 237 -160 L96 -160 C89 -160 89 -155 90 -150 L315 671 C318 683 323 686 329 686 L457 686 C466 686 470 687 471 691 L478 716 C479 720 476 723 470 723 L275 723 C265 723 261 721 259 713 L15 -183 C12 -192 14 -197 20 -197 L223 -197 Z " />
<glyph glyph-name="backslash" unicode="&#x5c;" horiz-adv-x="320" d="M292 -2 C297 -1 299 2 297 10 L163 678 C162 682 159 684 154 683 L120 674 C113 672 113 667 114 662 L249 0 C251 -10 252 -14 258 -12 L292 -2 Z " />
<glyph glyph-name="bracketright" unicode="&#x5d;" horiz-adv-x="324" d="M168 723 C157 723 154 722 153 716 L147 693 C146 688 149 686 154 686 L295 686 C302 686 302 681 301 676 L76 -145 C73 -157 68 -160 62 -160 L-70 -160 C-75 -160 -79 -161 -80 -165 L-87 -190 C-88 -194 -85 -197 -79 -197 L116 -197 C126 -197 130 -195 132 -187 L376 709 C379 718 377 723 371 723 L168 723 Z " />
<glyph glyph-name="asciicircum" unicode="&#x5e;" horiz-adv-x="500" d="M48 260 L110 260 L269 588 L274 588 L438 260 L503 260 L291 685 L259 685 L48 260 Z " />
<glyph glyph-name="underscore" unicode="&#x5f;" horiz-adv-x="500" d="M0 -125 L500 -125 L500 -75 L0 -75 L0 -125 Z " />
<glyph glyph-name="grave" unicode="&#x60;" horiz-adv-x="235" d="M275 475 C278 478 278 480 275 483 L191 594 C180 608 173 618 156 618 C129 618 112 579 139 558 L259 467 C262 464 266 464 268 467 L275 475 Z " />
<glyph glyph-name="a" unicode="a" horiz-adv-x="455" d="M420 416 C416 416 413 413 410 409 L391 382 C381 398 362 416 320 416 C198 416 34 200 34 54 C34 9 65 -10 88 -10 C159 -10 260 97 302 161 L307 159 C269 53 259 22 259 7 C259 -6 268 -10 280 -10 C337 -10 424 75 435 95 C437 98 436 100 433 103 L424 113 C422 116 419 114 416 111 C409 102 358 50 346 50 C340 50 335 53 335 62 C335 71 377 195 383 212 C388 228 439 366 458 407 C460 411 459 416 455 416 L420 416 Z M134 43 C117 43 107 55 107 78 C107 173 214 384 306 384 C343 384 353 352 353 325 C353 296 343 271 329 242 C311 205 184 43 134 43 L134 43 Z " />
<glyph glyph-name="b" unicode="b" horiz-adv-x="446" d="M236 641 C253 641 264 635 264 626 C264 619 262 611 257 599 C193 446 124 286 50 114 C42 96 35 72 35 56 C35 19 61 -10 102 -10 C197 -10 261 35 314 87 C412 185 445 283 445 340 C445 384 425 416 374 416 C319 416 242 354 193 292 L187 294 L348 657 C352 666 350 675 341 675 L214 675 C208 675 206 673 204 667 L198 651 C196 645 199 641 207 641 L236 641 Z M107 67 C107 96 137 178 176 233 C227 304 301 367 339 367 C357 367 373 355 373 324 C373 194 230 24 150 24 C128 24 107 27 107 67 L107 67 Z " />
<glyph glyph-name="c" unicode="c" horiz-adv-x="302" d="M118 -10 C182 -10 248 55 262 76 C266 82 264 85 261 87 L250 97 C247 99 244 97 241 93 C230 79 192 39 153 39 C135 39 113 49 113 122 C113 153 129 239 156 297 C178 342 204 366 229 366 C245 366 257 351 260 340 C264 325 273 318 286 318 C304 318 327 336 327 360 C327 378 317 416 270 416 C154 416 43 218 43 82 C43 15 83 -10 118 -10 L118 -10 Z " />
<glyph glyph-name="d" unicode="d" horiz-adv-x="471" d="M447 641 C474 641 479 621 472 602 L395 383 C378 403 359 416 332 416 C265 416 207 366 175 335 C93 254 37 135 37 56 C37 13 67 -10 101 -10 C169 -10 263 82 312 160 L320 158 C298 101 276 33 276 13 C276 -5 287 -10 303 -10 C356 -10 442 70 449 79 C452 83 452 87 449 89 L439 99 C436 103 432 103 428 100 C423 94 375 48 358 48 C344 48 345 63 354 94 C371 154 546 622 561 657 C565 665 563 675 549 675 L426 675 C417 675 415 673 414 669 L408 648 C407 645 408 641 416 641 L447 641 Z M139 41 C125 41 110 52 110 73 C110 165 216 384 310 384 C342 384 363 365 363 318 C363 279 326 216 298 178 C258 123 181 41 139 41 L139 41 Z " />
<glyph glyph-name="e" unicode="e" horiz-adv-x="349" d="M137 -10 C214 -10 274 56 299 91 C303 94 303 97 298 100 L287 109 C283 113 280 111 278 108 C257 74 213 37 164 37 C145 37 112 55 112 100 C112 147 120 180 125 192 C162 195 216 206 270 233 C326 262 363 314 363 363 C363 387 345 416 306 416 C258 416 204 381 172 349 C99 277 44 172 44 88 C44 22 72 -10 137 -10 L137 -10 Z M267 372 C289 372 299 354 299 334 C299 260 168 218 133 221 C141 257 203 372 267 372 L267 372 Z " />
<glyph glyph-name="f" unicode="f" horiz-adv-x="279" d="M157 352 L56 12 C2 -173 -52 -257 -100 -257 C-108 -257 -115 -250 -117 -240 C-120 -223 -135 -195 -164 -195 C-190 -195 -207 -215 -207 -238 C-207 -270 -175 -297 -135 -297 C-28 -297 43 -186 104 -30 C154 98 200 271 226 352 L321 352 C329 352 331 353 332 359 L337 377 C339 386 337 389 331 389 L234 389 C267 501 303 649 396 649 C426 649 436 630 437 620 C440 598 449 580 481 580 C501 580 521 595 521 626 C521 650 489 685 431 685 C366 685 311 649 283 617 C230 558 196 475 166 389 L79 389 C71 389 69 386 67 379 L63 362 C61 355 63 352 68 352 L157 352 Z " />
<glyph glyph-name="g" unicode="g" horiz-adv-x="432" d="M153 -297 C349 -297 366 -183 366 -167 C366 -130 350 -97 292 -59 C227 -16 179 14 162 26 C155 31 145 42 145 53 C145 70 178 93 197 101 C200 103 209 105 227 108 C342 128 370 240 370 288 C370 303 366 334 362 344 C366 351 382 358 391 358 C397 358 405 356 410 351 C416 344 424 336 443 336 C468 336 475 356 475 367 C475 379 466 406 433 406 C396 406 359 380 348 369 C339 384 313 416 263 416 C152 416 86 300 86 225 C86 153 137 117 164 110 C97 72 79 55 79 36 C79 17 88 -1 117 -22 C68 -43 -52 -92 -52 -166 C-52 -238 49 -297 153 -297 L153 -297 Z M197 131 C167 131 150 154 150 199 C150 274 201 391 261 391 C288 391 306 370 306 324 C306 252 270 131 197 131 L197 131 Z M17 -159 C17 -112 61 -74 143 -41 C157 -50 222 -92 231 -98 C256 -115 298 -142 298 -186 C298 -242 241 -266 173 -266 C106 -266 17 -228 17 -159 L17 -159 Z " />
<glyph glyph-name="h" unicode="h" horiz-adv-x="467" d="M74 0 C81 0 86 1 88 7 L130 109 C150 157 172 195 196 225 C223 259 311 363 364 363 C392 363 394 332 394 307 C394 259 376 183 354 126 C335 75 302 10 280 10 C269 10 264 21 263 30 C261 44 248 60 228 60 C207 60 192 34 192 11 C192 -11 214 -32 243 -32 C299 -32 353 25 393 100 C428 165 462 251 462 332 C462 378 439 416 393 416 C311 416 245 332 195 261 L190 265 L347 633 C353 648 356 659 356 663 C356 672 352 675 344 675 L209 675 C201 675 200 672 198 667 L193 650 C191 644 196 641 202 641 L233 641 C252 641 266 633 266 621 C266 613 265 602 253 572 L24 5 C23 3 25 0 31 0 L74 0 Z " />
<glyph glyph-name="i" unicode="i" horiz-adv-x="287" d="M92 -10 C175 -10 255 86 261 94 C264 99 263 101 259 106 L251 113 C246 118 242 118 240 115 C235 106 181 49 160 45 C152 47 149 53 149 62 C149 69 154 91 167 128 L225 280 C243 328 259 373 259 391 C259 408 247 416 235 416 C171 419 69 299 65 293 C62 289 64 287 68 284 L76 275 C79 272 83 272 87 276 C103 292 150 346 167 346 C175 346 181 342 181 333 C181 321 173 301 163 274 L134 196 C93 84 75 38 75 15 C75 -1 82 -9 92 -10 L92 -10 Z M257 590 C298 590 310 625 310 640 C310 663 292 688 257 688 C226 688 205 665 205 638 C205 627 213 590 257 590 L257 590 Z " />
<glyph glyph-name="j" unicode="j" horiz-adv-x="271" d="M220 238 C234 276 268 370 268 397 C268 404 263 416 247 416 C181 416 89 329 73 311 C71 308 72 305 74 303 L84 292 C86 290 89 289 92 292 C104 304 151 346 168 346 C176 346 179 341 179 331 C179 322 176 308 170 292 L103 98 C58 -31 9 -196 -63 -196 C-75 -196 -85 -187 -88 -167 C-90 -153 -102 -127 -131 -127 C-156 -127 -173 -150 -173 -173 C-173 -194 -151 -230 -82 -230 C59 -230 140 25 143 34 L220 238 Z M283 581 C309 581 336 602 336 633 C336 651 323 682 286 682 C249 682 229 653 229 626 C229 603 251 581 283 581 L283 581 Z " />
<glyph glyph-name="k" unicode="k" horiz-adv-x="434" d="M177 244 C183 256 196 272 204 281 C218 297 286 367 337 367 C353 367 365 353 365 337 C365 275 249 178 154 189 L177 244 Z M68 0 C77 0 81 1 83 7 L145 165 C173 168 188 167 195 154 L250 49 C274 3 291 -10 341 -10 C382 -10 420 32 425 38 C428 42 428 45 426 47 L416 58 C414 61 410 61 407 57 C396 46 379 31 360 31 C342 31 325 47 310 72 L245 177 L245 181 C290 198 430 278 430 357 C430 405 399 416 378 416 C311 416 239 349 208 309 L203 311 L347 658 C349 664 349 675 339 675 L206 675 C198 675 197 672 194 667 L188 651 C186 645 187 641 193 641 L220 641 C257 641 267 624 256 597 L20 11 C17 4 19 0 25 0 L68 0 Z " />
<glyph glyph-name="l" unicode="l" horiz-adv-x="254" d="M72 127 C60 97 35 34 35 19 C35 -4 44 -10 57 -10 C121 -10 214 75 219 83 C223 87 222 91 220 93 L209 105 C206 108 204 109 200 105 C188 92 142 53 126 53 C105 53 129 108 138 131 L346 660 C349 669 346 675 337 675 L213 675 C207 675 205 674 203 668 L197 650 C195 645 196 641 203 641 L232 641 C261 641 262 616 247 578 L72 127 Z " />
<glyph glyph-name="m" unicode="m" horiz-adv-x="731" d="M101 0 C110 0 113 0 117 6 L153 95 C168 131 188 159 203 180 C260 260 355 362 389 362 C401 362 409 355 409 342 C409 314 379 243 351 174 L283 8 C280 2 284 0 292 0 L332 0 C340 0 344 1 346 6 L380 94 C393 129 414 154 421 165 C482 254 580 365 614 365 C627 365 635 358 635 346 C635 317 616 275 587 204 C547 106 519 39 519 14 C519 -1 527 -10 537 -10 C602 -10 707 106 710 113 C712 118 711 121 708 124 L700 132 C696 136 691 137 688 132 C682 124 627 60 609 60 C601 60 598 66 598 73 C598 91 617 133 640 190 C682 292 701 334 701 368 C701 390 684 416 653 416 C568 416 478 283 423 199 L418 200 C435 240 475 336 475 373 C475 391 464 416 431 416 C346 416 243 275 197 204 L192 205 C202 232 263 364 263 388 C263 404 253 416 239 416 C176 416 98 332 75 305 C72 302 73 299 76 296 L85 287 C89 283 94 282 97 286 C106 298 167 357 181 357 C188 357 191 351 191 341 C189 323 159 254 133 191 L57 10 C54 2 58 0 63 0 L101 0 Z " />
<glyph glyph-name="n" unicode="n" horiz-adv-x="519" d="M111 0 C121 0 123 2 125 6 L150 73 C176 143 192 169 210 198 C254 269 353 361 392 361 C410 361 417 352 417 338 C417 316 381 233 367 194 C336 108 300 29 300 10 C300 -5 311 -10 324 -10 C391 -10 472 61 484 77 C488 82 487 84 483 88 L476 96 C473 100 469 101 465 98 C452 84 408 47 393 47 C385 47 381 54 381 60 C381 76 405 132 432 198 C465 279 488 331 488 375 C488 401 468 416 438 416 C349 416 240 283 210 235 L206 237 C214 260 257 355 257 386 C257 399 248 416 225 416 C153 416 79 333 64 315 C61 311 62 309 66 305 L75 296 C79 292 82 292 85 295 C102 314 150 362 169 362 C180 362 184 355 184 345 C184 328 156 256 132 194 L61 9 C59 2 61 0 72 0 L111 0 Z " />
<glyph glyph-name="o" unicode="o" horiz-adv-x="397" d="M155 -10 C300 -10 387 189 387 299 C387 367 347 416 280 416 C147 416 52 245 52 119 C52 43 100 -10 155 -10 L155 -10 Z M140 38 C116 38 94 57 94 89 C94 136 118 197 152 251 C202 332 255 370 297 370 C330 370 348 345 347 314 C347 248 244 38 140 38 L140 38 Z " />
<glyph glyph-name="p" unicode="p" horiz-adv-x="461" d="M207 399 C130 370 83 324 48 282 C45 279 46 276 49 273 L60 263 C62 261 66 260 69 264 C90 290 144 340 193 354 L-3 -185 C-24 -243 -40 -266 -79 -266 L-102 -266 C-107 -266 -108 -270 -109 -274 L-115 -294 C-116 -298 -114 -300 -108 -300 C-97 -300 -70 -297 -1 -297 C63 -297 93 -300 104 -300 C112 -300 114 -297 116 -294 L123 -274 C124 -271 121 -266 116 -266 L88 -266 C46 -266 38 -252 56 -198 L127 0 C209 9 291 43 335 75 C423 141 454 213 454 283 C454 348 411 416 316 416 C311 416 303 416 296 415 C289 415 282 414 276 413 L322 517 C324 520 324 523 324 525 C324 527 323 529 321 529 C319 529 316 529 314 528 L252 506 C245 503 242 500 239 492 L207 399 Z M262 372 C269 373 279 375 294 375 C338 375 384 337 384 260 C384 137 259 49 139 30 L262 372 Z " />
<glyph glyph-name="q" unicode="q" horiz-adv-x="454" d="M178 -214 C161 -257 143 -266 107 -266 L82 -266 C77 -266 75 -268 73 -274 L69 -292 C68 -297 70 -300 77 -300 C88 -300 122 -297 180 -297 C234 -297 266 -300 278 -300 C285 -300 287 -297 289 -292 L295 -274 C296 -269 294 -266 288 -266 L260 -266 C239 -266 229 -253 243 -215 L472 401 C477 414 476 419 468 419 C463 419 457 417 451 413 L400 380 C396 377 390 377 386 380 C368 395 343 416 298 416 C257 416 215 402 170 360 C62 258 51 125 51 105 C51 -3 119 -10 149 -10 C203 -10 242 13 274 43 L278 43 L178 -214 Z M159 16 C129 16 112 41 112 79 C112 150 165 269 233 337 C261 365 286 378 313 378 C344 378 367 354 367 320 C367 276 288 16 159 16 L159 16 Z " />
<glyph glyph-name="r" unicode="r" horiz-adv-x="356" d="M107 0 C115 0 118 0 120 7 L153 108 C168 153 180 176 192 195 C232 261 288 347 315 347 C328 347 333 343 341 335 C349 327 357 325 366 325 C385 325 405 345 405 371 C405 398 387 416 358 416 C302 416 222 293 195 237 L190 239 C210 306 227 362 226 381 C226 399 218 416 198 416 C130 416 70 348 49 317 C47 314 47 311 49 309 L59 299 C61 297 65 296 67 299 C81 316 126 361 146 361 C155 361 163 355 163 346 C163 332 132 227 114 171 L58 9 C56 4 60 0 67 0 L107 0 Z " />
<glyph glyph-name="s" unicode="s" horiz-adv-x="294" d="M106 -10 C175 -10 238 37 238 115 C238 168 206 217 200 229 C194 243 164 285 164 322 C164 358 193 385 213 385 C233 385 234 369 239 357 C246 340 261 333 273 333 C288 333 304 347 304 365 C304 404 263 416 233 416 C162 416 107 352 107 294 C106 248 129 213 136 196 C149 164 179 123 179 80 C179 45 152 19 123 19 C98 19 93 30 87 47 C81 64 68 79 46 79 C25 79 12 60 12 46 C12 13 48 -10 106 -10 L106 -10 Z " />
<glyph glyph-name="t" unicode="t" horiz-adv-x="314" d="M53 61 C47 46 42 29 42 14 C42 0 49 -10 74 -10 C151 -10 244 73 257 89 C259 93 259 95 256 98 L245 110 C242 113 239 114 236 110 C230 103 165 46 136 46 C127 46 123 52 123 63 C123 74 134 99 146 127 L243 352 L345 352 C349 352 353 354 354 357 L363 378 C366 386 364 389 359 389 L257 389 L323 523 C330 537 328 543 322 543 C318 543 313 540 307 537 C299 533 273 523 262 520 C254 517 251 515 246 505 L194 389 L122 389 C116 389 113 387 111 382 L103 360 C101 354 103 352 109 352 L179 352 L53 61 Z " />
<glyph glyph-name="u" unicode="u" horiz-adv-x="484" d="M434 406 C427 406 422 405 420 399 L385 303 C374 273 358 246 339 218 C310 176 204 45 151 45 C141 45 134 51 134 62 C134 84 160 148 187 207 C228 296 252 355 252 380 C252 396 243 416 223 416 C159 416 76 329 69 320 C65 316 65 313 68 311 L77 302 C80 299 83 299 86 302 C96 314 146 359 164 359 C173 359 180 354 180 345 C180 327 157 280 131 218 C92 125 61 63 60 31 C61 7 77 -10 97 -10 C196 -10 302 126 344 187 L350 184 C337 150 286 25 286 13 C286 1 291 -10 305 -10 C374 -10 467 86 470 90 C473 94 473 96 470 99 L460 109 C457 113 453 112 451 109 C443 97 388 47 373 47 C366 50 365 50 365 59 C365 65 378 111 407 189 L484 397 C486 403 484 406 475 406 L434 406 Z " />
<glyph glyph-name="v" unicode="v" horiz-adv-x="524" d="M197 353 C216 353 269 362 290 380 L297 377 C239 309 156 186 156 93 C156 21 205 -10 255 -10 C337 -10 418 61 463 139 C507 215 529 315 529 363 C529 387 518 416 490 416 C461 416 445 399 445 372 C445 360 452 349 460 331 C467 315 468 295 468 279 C468 178 381 43 295 43 C260 43 224 68 224 136 C224 236 321 371 342 397 C352 410 342 416 329 416 C318 416 306 411 204 411 C132 411 110 385 90 363 C76 347 51 305 51 266 C51 223 78 209 97 209 C123 209 134 226 134 242 C134 258 119 268 112 272 C103 277 91 283 90 301 C91 331 113 353 145 353 L197 353 Z " />
<glyph glyph-name="w" unicode="w" horiz-adv-x="737" d="M214 349 C237 349 275 360 287 366 L294 359 C254 311 161 175 162 92 C162 24 210 -10 253 -10 C329 -10 397 58 416 82 C420 48 456 -10 517 -10 C593 -10 636 46 664 82 C710 145 732 241 732 313 C732 400 706 416 682 416 C658 416 638 400 638 376 C638 351 662 331 671 322 C679 313 686 278 686 261 C686 126 613 52 546 52 C498 52 458 90 458 134 C458 160 469 189 481 225 C508 301 533 362 533 379 C533 391 526 403 508 403 C489 403 471 396 463 371 C455 335 453 287 446 248 C438 206 423 147 406 120 C377 75 334 50 289 50 C255 50 229 76 229 123 C229 217 317 359 347 392 C359 404 352 413 339 412 L247 406 L174 406 C143 406 111 386 98 371 C75 345 54 317 54 281 C54 238 84 222 101 222 C127 222 139 237 139 255 C139 275 124 282 118 286 C109 292 98 298 99 316 C99 335 116 349 135 349 L214 349 Z " />
<glyph glyph-name="x" unicode="x" horiz-adv-x="471" d="M228 200 C181 140 108 51 85 51 C74 51 57 62 77 123 C78 127 77 130 73 131 L58 135 C54 136 51 134 50 131 C40 106 28 48 28 25 C28 3 39 -10 65 -10 C108 -10 176 84 239 168 L281 33 C290 4 306 -10 327 -10 C385 -10 437 84 449 106 C451 110 450 114 446 116 L434 122 C429 124 426 124 425 121 C421 110 384 53 360 53 C350 53 340 63 334 80 L287 214 C340 280 398 353 419 353 C437 353 439 328 421 275 C420 271 422 269 428 267 L440 263 C445 261 448 263 450 267 C465 302 477 354 477 385 C477 402 466 416 448 416 C419 416 395 393 379 377 C354 352 319 302 275 246 L241 361 C227 407 216 416 195 416 C146 416 82 293 78 281 C77 277 77 274 80 273 L94 266 C98 264 102 265 104 269 C125 310 147 344 167 344 C175 344 181 338 185 326 L228 200 Z " />
<glyph glyph-name="y" unicode="y" horiz-adv-x="409" d="M59 266 C62 265 66 265 68 269 C76 291 108 350 126 350 C134 350 139 341 143 322 C154 270 173 -2 175 -25 C176 -40 175 -62 167 -81 C151 -117 112 -175 57 -216 C37 -231 20 -237 10 -237 C2 -237 -8 -231 -15 -225 C-26 -216 -35 -208 -52 -209 C-70 -210 -92 -225 -92 -250 C-92 -273 -75 -297 -36 -297 C23 -297 89 -234 116 -206 C203 -121 308 58 352 154 C381 217 419 301 419 366 C419 391 406 416 379 416 C347 416 338 396 338 380 C338 367 345 353 349 344 C352 336 354 318 354 307 C354 264 344 237 339 220 C325 172 265 53 237 8 L233 7 C231 72 224 189 214 303 C206 391 195 416 164 416 C103 416 50 293 44 281 C42 276 43 273 45 272 L59 266 Z " />
<glyph glyph-name="z" unicode="z" horiz-adv-x="477" d="M408 337 C424 347 470 380 470 415 C470 425 464 439 451 439 C423 439 406 411 400 393 C394 374 384 357 363 357 C341 357 309 370 288 380 C239 403 214 416 171 416 C99 416 73 365 73 335 C73 302 97 286 117 286 C137 286 150 303 150 321 C150 337 144 345 137 350 C128 355 123 360 123 368 C123 375 131 386 153 386 C183 386 216 351 232 340 C249 329 277 308 322 311 L326 307 L117 99 C93 86 37 48 37 7 C37 -6 46 -15 58 -15 C81 -15 96 -1 101 14 C109 39 116 50 141 50 C167 50 203 24 217 18 C253 1 299 -20 343 -20 C426 -20 465 44 465 88 C465 117 451 137 424 137 C408 137 391 124 391 101 C391 94 393 85 402 69 C408 57 408 48 408 41 C408 28 393 12 372 12 C345 12 324 29 282 57 C235 88 208 101 178 101 L175 106 L408 337 Z " />
<glyph glyph-name="braceleft" unicode="&#x7b;" horiz-adv-x="324" d="M92 285 C92 274 98 270 105 269 C118 267 130 262 138 251 C145 242 153 230 153 200 C153 166 134 129 116 88 C97 47 78 7 78 -41 C78 -147 179 -187 226 -193 C251 -197 265 -197 271 -197 C276 -197 278 -191 278 -182 C278 -171 277 -165 271 -165 C265 -165 249 -164 236 -161 C188 -150 145 -107 145 -41 C145 7 161 41 177 82 C192 121 207 158 207 195 C207 215 203 228 192 244 C183 258 162 268 162 277 C162 290 187 299 211 318 C236 339 255 360 262 409 C269 453 269 502 276 550 C289 637 350 679 424 689 C435 690 448 691 456 691 C465 691 468 698 468 709 C468 718 463 723 451 723 C442 723 425 723 405 720 C323 709 221 648 209 550 C201 483 207 440 201 380 C198 346 175 320 141 306 C128 301 118 299 105 299 C98 299 92 295 92 285 L92 285 Z " />
<glyph glyph-name="bar" unicode="&#x7c;" horiz-adv-x="250" d="M191 -260 C195 -260 196 -255 196 -250 L196 750 C196 758 194 762 189 762 L149 762 C144 762 143 759 143 753 L143 -250 C143 -256 144 -260 149 -260 L191 -260 Z " />
<glyph glyph-name="braceright" unicode="&#x7d;" horiz-adv-x="324" d="M314 241 C314 252 308 256 301 257 C288 259 276 264 268 275 C261 284 253 296 253 326 C253 360 272 397 290 438 C309 479 328 519 328 567 C328 673 227 713 180 719 C155 723 141 723 135 723 C130 723 128 717 128 708 C128 697 129 691 135 691 C141 691 157 690 170 687 C218 676 261 633 261 567 C261 519 245 485 229 444 C214 405 199 368 199 331 C199 311 203 298 214 282 C223 268 244 258 244 249 C244 236 219 227 195 208 C170 187 151 166 144 117 C137 73 137 24 130 -24 C117 -111 56 -153 -18 -163 C-29 -164 -42 -165 -50 -165 C-59 -165 -62 -172 -62 -183 C-62 -192 -57 -197 -45 -197 C-36 -197 -19 -197 1 -194 C83 -183 185 -122 197 -24 C205 43 199 86 205 146 C208 180 231 206 265 220 C278 225 288 227 301 227 C308 227 314 231 314 241 L314 241 Z " />
<glyph glyph-name="asciitilde" unicode="&#x7e;" horiz-adv-x="500" d="M405 309 C405 251 381 229 356 229 C333 229 311 248 293 259 L251 287 C222 305 200 311 171 311 C119 311 72 259 72 171 L125 171 C125 231 153 251 171 251 C194 251 212 245 237 229 L276 202 C304 184 328 169 359 169 C411 169 458 221 458 309 L405 309 Z " />
<glyph glyph-name="exclamdown" unicode="&#xa1;" horiz-adv-x="270" d="M188 310 C221 310 242 335 242 366 C242 385 225 416 194 416 C164 416 142 391 142 362 C142 324 174 310 188 310 L188 310 Z M9 -297 C32 -297 51 -280 59 -244 C63 -229 139 140 154 184 C159 199 153 205 149 205 C143 205 141 205 137 197 C132 188 -15 -189 -20 -201 C-31 -228 -35 -244 -35 -253 C-35 -274 -20 -297 9 -297 L9 -297 Z " />
<glyph glyph-name="cent" unicode="&#xa2;" horiz-adv-x="500" d="M242 157 C207 162 183 189 183 236 C183 295 214 379 250 429 C270 455 294 473 321 480 L242 157 Z M204 5 C203 -1 201 -6 207 -8 L228 -14 C233 -15 236 -11 237 -7 L267 113 C332 122 372 157 387 166 C396 172 395 179 391 184 L387 191 C383 195 380 198 372 193 C348 177 318 160 278 156 L359 483 C384 482 396 475 404 467 C411 459 420 455 427 455 C445 455 468 467 468 493 C468 523 434 536 406 536 C394 536 382 535 371 533 L395 629 C397 635 396 638 391 639 L368 644 C362 645 360 642 359 638 L331 522 C205 475 112 322 112 223 C112 144 162 111 230 110 L204 5 Z " />
<glyph glyph-name="sterling" unicode="&#xa3;" horiz-adv-x="500" d="M200 251 C210 266 265 381 289 454 C327 570 358 612 396 612 C436 612 438 584 442 576 C455 549 473 539 496 539 C515 540 535 554 535 577 C535 600 499 645 427 645 C330 645 256 567 220 474 C193 405 148 278 139 251 L60 251 C54 251 51 249 50 245 L46 221 C45 217 49 214 55 214 L127 214 C121 194 95 135 83 122 C45 104 -7 50 -7 16 C-7 8 1 0 14 0 C59 0 96 75 109 102 C147 104 186 95 221 53 C259 8 305 -15 357 -15 C458 -15 489 47 489 77 C489 115 455 141 418 141 C383 141 373 114 373 101 C373 86 392 69 423 69 C443 69 445 66 438 50 C433 39 416 20 393 20 C360 20 336 34 319 53 C259 120 212 137 125 127 L124 129 C142 149 173 200 181 214 L337 214 C345 214 348 216 349 221 L354 245 C355 249 352 251 345 251 L200 251 Z " />
<glyph glyph-name="currency" unicode="&#xa4;" horiz-adv-x="500" d="M495 547 C493 549 489 550 486 546 L389 456 C368 474 328 487 295 487 C255 487 214 477 187 453 L87 547 C85 549 80 550 77 546 L58 526 C54 522 55 518 57 516 L155 423 C130 398 114 353 114 311 C114 274 127 240 148 214 L56 124 C52 120 51 116 54 112 L76 89 C79 86 82 86 87 91 L178 182 C203 160 243 146 282 146 C318 146 359 158 387 178 L486 88 C488 86 492 85 495 88 L516 112 C518 115 518 119 514 123 L421 210 C446 241 459 279 461 323 C460 360 443 405 420 427 L514 516 C518 520 517 524 514 527 L495 547 Z M287 187 C207 187 171 251 171 317 C171 379 205 446 287 446 C356 446 403 393 403 317 C403 237 352 187 287 187 L287 187 Z " />
<glyph glyph-name="yen" unicode="&#xa5;" horiz-adv-x="500" d="M288 164 L445 164 C453 164 458 165 459 169 L463 189 C464 194 462 196 457 196 L298 196 L313 259 L459 259 C467 259 471 260 472 265 L476 285 C477 289 474 291 468 291 L334 291 C346 308 510 535 522 553 C542 583 559 599 591 599 L609 599 C614 599 616 601 617 607 L619 625 C620 630 618 633 610 633 C598 633 569 630 518 630 C469 630 433 633 419 633 C411 633 409 632 408 625 L406 607 C406 603 407 599 413 598 L432 598 C469 598 478 583 466 547 C456 518 323 328 308 303 C304 296 295 295 292 308 L220 553 C214 574 214 599 252 599 L276 599 C282 599 284 601 285 605 L287 625 C288 631 285 633 278 633 C266 633 234 630 163 630 C111 630 86 633 74 633 C67 633 66 632 65 625 L61 605 C60 601 62 599 67 599 L89 599 C122 599 139 582 145 563 L231 291 L100 291 C95 291 91 291 90 285 L88 266 C87 260 90 259 96 259 L241 259 L228 196 L85 196 C80 196 76 195 76 189 L73 169 C72 165 74 164 78 164 L220 164 L203 82 C196 54 186 31 140 31 L118 31 C112 31 110 28 109 23 L106 5 C105 -1 108 -3 114 -3 C124 -3 153 0 226 0 C284 0 314 -3 328 -3 C335 -3 337 0 338 5 L341 23 C342 28 340 31 334 31 L304 31 C278 31 262 37 272 85 L288 164 Z " />
<glyph glyph-name="brokenbar" unicode="&#xa6;" horiz-adv-x="250" d="M152 175 C145 175 143 170 143 165 L143 -165 C143 -171 144 -175 149 -175 L187 -175 C194 -175 196 -170 196 -165 L196 165 C196 171 195 175 190 175 L152 175 Z M187 325 C194 325 196 330 196 335 L196 663 C196 671 194 675 189 675 L149 675 C144 675 143 672 143 666 L143 335 C143 329 144 325 149 325 L187 325 Z " />
<glyph glyph-name="section" unicode="&#xa7;" horiz-adv-x="500" d="M467 243 C467 303 434 349 402 380 C326 455 309 484 309 535 C309 597 364 652 411 652 C430 652 443 645 452 629 C463 609 470 597 497 597 C522 597 539 612 539 640 C539 661 510 685 457 685 C415 685 360 677 313 634 C264 590 250 542 244 515 C152 477 97 389 97 329 C97 274 122 233 155 198 C219 130 255 91 255 22 C255 -64 175 -103 134 -103 C114 -103 98 -94 87 -78 C77 -63 63 -53 43 -53 C19 -53 4 -70 4 -95 C4 -118 39 -140 86 -140 C146 -140 192 -127 230 -100 C283 -62 303 -23 318 36 C412 83 467 167 467 243 L467 243 Z M244 487 C247 413 315 362 349 322 C389 275 401 243 401 200 C401 156 375 107 320 70 C318 144 250 206 193 272 C173 296 157 326 157 360 C157 412 188 458 244 487 L244 487 Z " />
<glyph glyph-name="dieresis" unicode="&#xa8;" horiz-adv-x="285" d="M158 488 C181 488 199 503 199 528 C199 555 180 570 158 570 C121 570 112 544 112 531 C112 496 140 488 158 488 L158 488 Z M294 488 C317 488 335 503 335 528 C335 555 316 570 294 570 C257 570 248 544 248 531 C248 496 276 488 294 488 L294 488 Z " />
<glyph glyph-name="copyright" unicode="&#xa9;" horiz-adv-x="780" d="M440 126 C523 126 580 172 616 222 C619 226 619 230 617 232 L610 237 C606 240 604 242 602 240 C574 203 525 165 456 165 C418 165 381 179 346 216 C303 259 294 318 293 352 C293 425 336 517 433 517 C472 517 509 499 535 474 C558 451 570 426 578 409 C580 406 583 406 586 407 L597 410 C600 411 600 413 599 417 L585 525 C584 532 581 534 575 534 C567 534 562 534 561 531 L557 515 C555 512 551 512 545 515 C534 521 488 546 435 546 C370 546 316 519 286 489 C244 445 225 391 225 338 C225 271 247 220 289 179 C324 145 379 126 440 126 L440 126 Z M433 685 C240 685 86 534 86 335 C86 140 220 -15 433 -15 C644 -15 780 139 780 335 C780 543 634 685 433 685 L433 685 Z M433 19 C310 19 136 105 136 335 C136 521 269 651 433 651 C553 651 730 558 730 335 C730 199 649 19 433 19 L433 19 Z " />
<glyph glyph-name="ordfeminine" unicode="&#xaa;" horiz-adv-x="324" d="M341 533 C335 533 332 532 329 527 L320 512 C316 523 305 539 270 539 C172 539 55 405 55 314 C55 273 72 251 108 251 C161 251 233 322 254 356 L258 354 C234 294 229 277 229 265 C229 257 238 251 251 251 C294 251 354 302 363 315 C365 317 365 321 363 323 L353 333 C350 335 348 335 346 332 C339 324 308 294 297 294 C293 294 290 297 290 303 C290 307 311 370 323 398 C336 428 367 507 376 525 C378 529 377 533 373 533 L341 533 Z M293 480 C293 466 286 446 274 420 C257 382 177 293 139 293 C121 293 115 313 115 332 C115 382 190 510 261 510 C285 510 293 500 293 480 L293 480 Z " />
<glyph glyph-name="guillemotleft" unicode="&#xab;" horiz-adv-x="360" d="M185 70 C187 67 190 66 192 66 C193 66 195 67 196 68 L208 79 C210 81 212 84 212 86 C212 88 210 89 207 94 L131 217 L236 339 C240 343 242 345 242 347 C242 349 240 352 238 354 L227 365 C225 367 224 368 222 368 C220 368 218 366 216 364 L61 219 C58 216 56 214 56 212 C56 210 58 208 60 206 L185 70 Z M315 70 C317 67 320 66 322 66 C323 66 325 67 326 68 L338 79 C340 81 342 84 342 86 C342 88 340 89 337 94 L261 217 L366 339 C370 343 372 345 372 347 C372 349 370 352 368 354 L357 365 C355 367 354 368 352 368 C350 368 348 366 346 364 L191 219 C188 216 186 214 186 212 C186 210 188 208 190 206 L315 70 Z " />
<glyph glyph-name="logicalnot" unicode="&#xac;" horiz-adv-x="500" d="M72 292 L402 292 L402 122 L460 122 L460 346 L72 346 L72 292 Z " />
<glyph glyph-name="registered" unicode="&#xae;" horiz-adv-x="540" d="M257 472 L257 381 C257 363 250 361 238 361 L229 361 C228 361 227 360 227 359 L227 348 C227 346 228 345 230 345 C234 345 263 346 278 346 C293 346 324 345 330 345 C332 345 332 346 332 348 L332 358 C332 360 332 361 330 361 L314 361 C305 361 302 368 302 375 C301 381 301 417 301 438 L301 455 C303 456 308 456 311 456 C326 456 334 450 344 439 C348 435 361 413 365 405 C370 396 388 369 392 364 C395 359 404 347 408 345 C422 345 436 346 447 346 C458 346 474 345 477 345 C479 345 480 346 480 347 L480 356 C480 359 480 361 476 361 C466 361 457 361 448 367 C441 372 418 402 416 405 C413 409 388 446 384 451 C381 454 377 460 369 462 L369 464 C397 468 435 489 435 535 C435 548 430 565 416 577 C402 589 377 598 342 598 C335 598 284 596 278 596 C271 596 234 598 230 598 C228 598 228 597 228 595 L228 583 C228 581 229 580 230 580 L237 580 C251 580 257 575 257 563 C258 553 258 533 258 507 L257 472 Z M301 578 C307 579 316 580 321 580 C337 580 353 576 368 566 C380 558 388 543 388 529 C388 515 379 472 321 472 C314 472 305 472 301 473 L301 578 Z M338 685 C208 685 112 591 112 467 C112 345 195 249 338 249 C480 249 564 345 564 467 C564 596 473 685 338 685 L338 685 Z M338 654 C413 654 523 606 523 467 C523 382 473 280 338 280 C261 280 153 330 153 470 C153 585 236 654 338 654 L338 654 Z " />
<glyph glyph-name="macron" unicode="&#xaf;" horiz-adv-x="255" d="M109 516 C109 511 111 509 117 509 L300 509 C306 509 309 512 309 516 L309 545 C309 551 306 552 299 552 L119 552 C113 552 109 551 109 546 L109 516 Z " />
<glyph glyph-name="degree" unicode="&#xb0;" horiz-adv-x="250" d="M215 685 C156 685 114 641 114 594 C114 540 152 501 215 501 C275 501 317 546 317 594 C317 645 279 685 215 685 L215 685 Z M215 653 C248 653 273 627 273 596 C273 558 247 532 215 532 C185 532 158 558 158 596 C158 627 182 653 215 653 L215 653 Z " />
<glyph glyph-name="plusminus" unicode="&#xb1;" horiz-adv-x="500" d="M296 147 L296 290 L460 290 L460 344 L296 344 L296 482 L237 482 L237 344 L72 344 L72 290 L237 290 L237 147 L296 147 Z M72 65 L72 11 L460 11 L460 65 L72 65 Z " />
<glyph glyph-name="twosuperior" unicode="&#xb2;" horiz-adv-x="325" d="M128 302 L128 303 L130 304 C209 355 359 449 359 554 C359 608 327 645 266 645 C190 645 148 577 137 548 C136 545 137 541 140 539 L151 533 C154 532 157 533 162 541 C174 561 198 603 239 603 C280 603 294 566 294 538 C294 445 134 340 59 279 C54 275 51 270 51 266 C51 261 53 258 63 258 L226 258 C246 258 261 258 264 254 C268 248 270 247 274 247 C279 247 281 248 283 253 C284 257 309 314 324 336 C326 338 326 342 323 343 L315 348 C312 349 309 349 305 344 C290 320 273 302 240 302 L128 302 Z " />
<glyph glyph-name="threesuperior" unicode="&#xb3;" horiz-adv-x="325" d="M165 251 C247 251 336 313 336 395 C336 431 321 461 283 481 C331 506 370 540 370 587 C370 610 348 645 289 645 C224 645 187 596 173 572 C171 568 170 565 172 562 L182 554 C186 551 191 554 197 563 C210 581 233 606 262 606 C301 606 310 579 310 564 C310 513 253 484 226 478 C217 476 216 471 216 468 C216 463 217 461 226 457 C254 446 272 420 272 388 C272 327 224 278 167 278 C143 278 122 297 124 307 C126 322 123 345 99 345 C82 345 73 330 73 318 C73 286 105 251 165 251 L165 251 Z " />
<glyph glyph-name="acute" unicode="&#xb4;" horiz-adv-x="225" d="M104 467 C105 465 108 464 112 466 L263 537 C305 557 289 603 262 603 C248 603 238 598 227 588 L101 485 C98 482 95 479 97 477 L104 467 Z " />
<glyph glyph-name="mu" unicode="&#xb5;" horiz-adv-x="500" d="M83 -8 C194 -15 298 128 339 187 L345 184 C332 150 291 46 291 22 C291 1 303 -10 322 -10 C395 -10 462 86 465 90 C468 94 468 96 465 99 L455 109 C452 113 448 112 446 109 C438 97 400 47 383 47 C376 47 365 54 365 66 C365 84 373 111 402 189 C442 296 475 364 475 386 C475 404 469 416 446 416 C418 416 405 408 405 394 C405 383 403 355 381 301 C369 273 353 246 334 218 C305 176 199 45 146 45 C136 45 129 51 129 62 C129 84 155 148 179 208 C215 297 247 355 247 380 C247 397 235 416 213 416 C183 416 170 408 170 394 C170 383 173 342 149 284 C84 126 60 61 48 33 C20 -32 -11 -135 -56 -180 C-79 -203 -70 -218 -52 -218 C-22 -218 12 -200 20 -177 C30 -150 40 -127 61 -68 L83 -8 Z " />
<glyph glyph-name="paragraph" unicode="&#xb6;" horiz-adv-x="500" d="M454 630 C468 634 500 640 513 642 L313 -128 C310 -138 311 -140 317 -140 L341 -140 C347 -140 349 -138 350 -132 L553 646 C564 648 596 652 608 653 C614 654 616 655 618 661 L622 678 C623 683 621 685 615 685 C597 685 574 682 525 676 C363 655 138 595 92 439 C37 254 192 205 307 205 L221 -124 C218 -135 219 -140 222 -140 L249 -140 C255 -140 256 -137 259 -126 L454 630 Z " />
<glyph glyph-name="periodcentered" unicode="&#xb7;" horiz-adv-x="250" d="M169 290 C202 290 225 318 225 344 C225 356 213 396 168 396 C132 396 116 364 116 344 C116 313 138 290 169 290 L169 290 Z " />
<glyph glyph-name="cedilla" unicode="&#xb8;" horiz-adv-x="215" d="M33 0 L-29 -87 C-5 -96 9 -113 9 -129 C9 -153 -28 -176 -65 -176 C-76 -176 -83 -181 -83 -192 C-83 -202 -79 -210 -64 -210 C-34 -210 64 -178 64 -125 C64 -97 48 -79 23 -67 L70 0 L33 0 Z " />
<glyph glyph-name="onesuperior" unicode="&#xb9;" horiz-adv-x="325" d="M80 281 C76 281 74 279 73 276 L70 260 C69 258 70 255 73 255 C78 255 152 258 167 258 C181 258 257 255 262 255 C266 255 268 257 269 260 L272 276 C273 279 272 281 267 281 L240 281 C220 281 214 288 221 312 C222 320 228 342 241 381 L269 470 C285 520 311 591 323 622 C326 630 326 635 326 638 C326 641 322 645 317 645 C312 645 306 643 295 638 L153 568 C148 565 148 564 149 561 L155 549 C157 545 158 543 162 545 L194 558 C214 566 229 571 235 571 C240 571 243 568 243 563 C243 558 237 541 225 505 L183 373 C170 333 164 316 161 309 C148 283 133 281 112 281 L80 281 Z " />
<glyph glyph-name="ordmasculine" unicode="&#xba;" horiz-adv-x="324" d="M167 251 C295 251 344 388 344 456 C344 501 308 539 254 539 C136 539 79 420 79 342 C79 270 128 251 167 251 L167 251 Z M172 282 C144 282 132 301 132 322 C132 396 193 506 254 506 C285 506 298 490 297 465 C299 403 218 282 172 282 L172 282 Z " />
<glyph glyph-name="guillemotright" unicode="&#xbb;" horiz-adv-x="360" d="M87 364 C85 367 82 368 80 368 C79 368 77 367 76 366 L64 355 C62 353 60 350 60 348 C60 346 62 345 65 340 L141 217 L36 95 C32 91 30 89 30 87 C30 85 32 82 34 80 L45 69 C47 67 48 66 50 66 C52 66 54 68 56 70 L211 215 C214 218 216 220 216 222 C216 224 214 226 212 228 L87 364 Z M217 364 C215 367 212 368 210 368 C209 368 207 367 206 366 L194 355 C192 353 190 350 190 348 C190 346 192 345 195 340 L271 217 L166 95 C162 91 160 89 160 87 C160 85 162 82 164 80 L175 69 C177 67 178 66 180 66 C182 66 184 68 186 70 L341 215 C344 218 346 220 346 222 C346 224 344 226 342 228 L217 364 Z " />
<glyph glyph-name="onequarter" unicode="&#xbc;" horiz-adv-x="700" d="M548 0 C554 0 558 0 563 12 L600 104 L659 104 C663 104 667 109 669 113 L678 134 C681 139 679 143 676 143 L613 143 L701 366 C705 375 699 387 688 387 C679 387 670 383 666 379 L389 138 C379 129 375 125 375 119 C375 110 379 104 390 104 L543 104 L505 14 C501 5 502 0 506 0 L548 0 Z M446 143 C440 143 440 147 452 158 L602 287 C615 299 619 295 613 281 L555 143 L446 143 Z M175 -12 C179 -15 181 -15 183 -15 C186 -15 188 -13 191 -8 L601 617 C603 620 604 622 604 624 C604 626 603 628 600 629 L578 643 C576 644 573 645 571 645 C569 645 567 644 565 641 L157 18 C154 13 153 9 153 6 C153 4 154 2 156 1 L175 -12 Z M50 281 C46 281 44 279 43 276 L40 260 C39 258 40 255 43 255 C48 255 122 258 137 258 C151 258 227 255 232 255 C236 255 238 257 239 260 L242 276 C243 279 242 281 237 281 L210 281 C190 281 184 288 191 312 C192 320 198 342 211 381 L239 470 C255 520 281 591 293 622 C296 630 296 635 296 638 C296 641 292 645 287 645 C282 645 276 643 265 638 L123 568 C118 565 118 564 119 561 L125 549 C127 545 128 543 132 545 L164 558 C184 566 199 571 205 571 C210 571 213 568 213 563 C213 558 207 541 195 505 L153 373 C140 333 134 316 131 309 C118 283 103 281 82 281 L50 281 Z " />
<glyph glyph-name="onehalf" unicode="&#xbd;" horiz-adv-x="700" d="M175 -12 C179 -15 181 -15 183 -15 C186 -15 188 -13 191 -8 L601 617 C603 620 604 622 604 624 C604 626 603 628 600 629 L578 643 C576 644 573 645 571 645 C569 645 567 644 565 641 L157 18 C154 13 153 9 153 6 C153 4 154 2 156 1 L175 -12 Z M473 44 L473 45 L475 46 C554 97 704 191 704 296 C704 350 672 387 611 387 C535 387 493 319 482 290 C481 287 482 283 485 281 L496 275 C499 274 502 275 507 283 C519 303 543 345 584 345 C625 345 639 308 639 280 C639 187 479 82 404 21 C399 17 396 12 396 8 C396 3 398 0 408 0 L571 0 C591 0 606 0 609 -4 C613 -10 615 -11 619 -11 C624 -11 626 -10 628 -5 C629 -1 654 56 669 78 C671 80 671 84 668 85 L660 90 C657 91 654 91 650 86 C635 62 618 44 585 44 L473 44 Z M50 281 C46 281 44 279 43 276 L40 260 C39 258 40 255 43 255 C48 255 122 258 137 258 C151 258 227 255 232 255 C236 255 238 257 239 260 L242 276 C243 279 242 281 237 281 L210 281 C190 281 184 288 191 312 C192 320 198 342 211 381 L239 470 C255 520 281 591 293 622 C296 630 296 635 296 638 C296 641 292 645 287 645 C282 645 276 643 265 638 L123 568 C118 565 118 564 119 561 L125 549 C127 545 128 543 132 545 L164 558 C184 566 199 571 205 571 C210 571 213 568 213 563 C213 558 207 541 195 505 L153 373 C140 333 134 316 131 309 C118 283 103 281 82 281 L50 281 Z " />
<glyph glyph-name="threequarters" unicode="&#xbe;" horiz-adv-x="700" d="M553 0 C559 0 563 0 568 12 L605 104 L664 104 C668 104 672 109 674 113 L683 134 C685 139 684 143 681 143 L618 143 L706 366 C710 375 704 387 693 387 C684 387 675 383 671 379 L394 138 C384 129 380 125 380 119 C380 110 384 104 395 104 L548 104 L510 14 C506 5 507 0 511 0 L553 0 Z M451 143 C445 143 445 147 457 158 L607 287 C620 299 624 295 618 281 L560 143 L451 143 Z M185 -12 C189 -15 191 -15 193 -15 C196 -15 198 -13 201 -8 L611 617 C613 620 614 622 614 624 C614 626 613 628 610 629 L588 643 C586 644 583 645 581 645 C579 645 577 644 575 641 L167 18 C164 13 163 9 163 6 C163 4 164 2 166 1 L185 -12 Z M135 251 C217 251 306 313 306 395 C306 431 291 461 253 481 C301 506 340 540 340 587 C340 610 318 645 259 645 C194 645 157 596 143 572 C141 568 140 565 142 562 L152 554 C156 551 161 554 167 563 C180 581 203 606 232 606 C271 606 280 579 280 564 C280 513 223 484 196 478 C187 476 186 471 186 468 C186 463 187 461 196 457 C224 446 242 420 242 388 C242 327 194 278 137 278 C113 278 92 297 94 307 C96 322 93 345 69 345 C52 345 43 330 43 318 C43 286 75 251 135 251 L135 251 Z " />
<glyph glyph-name="questiondown" unicode="&#xbf;" horiz-adv-x="429" d="M262 248 C213 248 170 208 155 191 C154 189 154 186 157 183 L164 175 C167 171 170 170 173 173 C183 185 216 210 253 210 C291 210 323 191 323 154 C323 111 279 89 206 52 C128 12 20 -40 20 -166 C20 -202 41 -297 167 -297 C266 -297 320 -225 320 -169 C320 -110 274 -92 238 -92 C201 -92 158 -119 158 -162 C158 -175 169 -196 195 -196 C231 -196 245 -165 245 -150 C245 -145 246 -142 244 -135 C247 -128 253 -126 260 -126 C270 -126 290 -139 290 -171 C290 -223 236 -262 173 -262 C102 -262 73 -211 73 -180 C73 -102 130 -69 201 -25 C252 7 360 56 360 142 C360 216 311 248 262 248 L262 248 Z M301 315 C331 315 350 346 350 364 C350 392 329 416 299 416 C265 416 249 387 249 364 C249 332 278 315 301 315 L301 315 Z " />
<glyph glyph-name="Agrave" unicode="&#xc0;" horiz-adv-x="619" d="M472 301 L422 116 C402 41 376 34 338 34 L319 34 C314 34 312 30 311 26 L307 7 C306 1 308 -3 317 -3 C333 -3 364 0 434 0 C502 0 542 -3 554 -3 C563 -3 565 0 566 6 L569 24 C570 31 567 34 561 34 L534 34 C514 34 497 46 497 62 C497 78 503 103 507 120 L654 675 C656 682 652 685 644 685 C636 685 622 680 611 677 C601 674 578 671 564 670 C545 669 541 667 536 660 L73 107 C37 64 -5 34 -48 34 L-63 34 C-67 34 -69 32 -70 26 L-75 4 C-76 -1 -71 -3 -66 -3 C-55 -3 -20 0 46 0 C124 0 167 -3 177 -3 C184 -3 186 0 187 5 L191 24 C193 32 189 34 184 34 L148 34 C126 34 113 43 113 58 C113 72 133 98 154 125 L294 301 L472 301 Z M320 336 L538 607 C546 616 564 614 560 600 L483 336 L320 336 Z M638 737 C640 740 639 743 636 745 L519 856 C509 866 493 878 481 878 C453 878 425 830 468 808 L624 727 C628 725 630 726 631 727 L638 737 Z " />
<glyph glyph-name="Aacute" unicode="&#xc1;" horiz-adv-x="619" d="M472 301 L422 116 C402 41 376 34 338 34 L319 34 C314 34 312 30 311 26 L307 7 C306 1 308 -3 317 -3 C333 -3 364 0 434 0 C502 0 542 -3 554 -3 C563 -3 565 0 566 6 L569 24 C570 31 567 34 561 34 L534 34 C514 34 497 46 497 62 C497 78 503 103 507 120 L654 675 C656 682 652 685 644 685 C636 685 622 680 611 677 C601 674 578 671 564 670 C545 669 541 667 536 660 L73 107 C37 64 -5 34 -48 34 L-63 34 C-67 34 -69 32 -70 26 L-75 4 C-76 -1 -71 -3 -66 -3 C-55 -3 -20 0 46 0 C124 0 167 -3 177 -3 C184 -3 186 0 187 5 L191 24 C193 32 189 34 184 34 L148 34 C126 34 113 43 113 58 C113 72 133 98 154 125 L294 301 L472 301 Z M320 336 L538 607 C546 616 564 614 560 600 L483 336 L320 336 Z M571 729 C572 727 575 726 579 728 L753 799 C791 815 778 872 745 872 C733 872 722 868 711 860 L568 749 C565 746 563 743 565 739 L571 729 Z " />
<glyph glyph-name="Acircumflex" unicode="&#xc2;" horiz-adv-x="619" d="M472 301 L422 116 C402 41 376 34 338 34 L319 34 C314 34 312 30 311 26 L307 7 C306 1 308 -3 317 -3 C333 -3 364 0 434 0 C502 0 542 -3 554 -3 C563 -3 565 0 566 6 L569 24 C570 31 567 34 561 34 L534 34 C514 34 497 46 497 62 C497 78 503 103 507 120 L654 675 C656 682 652 685 644 685 C636 685 622 680 611 677 C601 674 578 671 564 670 C545 669 541 667 536 660 L73 107 C37 64 -5 34 -48 34 L-63 34 C-67 34 -69 32 -70 26 L-75 4 C-76 -1 -71 -3 -66 -3 C-55 -3 -20 0 46 0 C124 0 167 -3 177 -3 C184 -3 186 0 187 5 L191 24 C193 32 189 34 184 34 L148 34 C126 34 113 43 113 58 C113 72 133 98 154 125 L294 301 L472 301 Z M320 336 L538 607 C546 616 564 614 560 600 L483 336 L320 336 Z M612 792 L681 732 C685 729 688 727 692 730 L702 739 C705 741 706 744 704 747 L633 867 C630 872 624 872 620 869 L481 749 C479 747 477 745 479 743 L486 732 C488 729 490 729 493 730 L612 792 Z " />
<glyph glyph-name="Atilde" unicode="&#xc3;" horiz-adv-x="619" d="M472 301 L422 116 C402 41 376 34 338 34 L319 34 C314 34 312 30 311 26 L307 7 C306 1 308 -3 317 -3 C333 -3 364 0 434 0 C502 0 542 -3 554 -3 C563 -3 565 0 566 6 L569 24 C570 31 567 34 561 34 L534 34 C514 34 497 46 497 62 C497 78 503 103 507 120 L654 675 C656 682 652 685 644 685 C636 685 622 680 611 677 C601 674 578 671 564 670 C545 669 541 667 536 660 L73 107 C37 64 -5 34 -48 34 L-63 34 C-67 34 -69 32 -70 26 L-75 4 C-76 -1 -71 -3 -66 -3 C-55 -3 -20 0 46 0 C124 0 167 -3 177 -3 C184 -3 186 0 187 5 L191 24 C193 32 189 34 184 34 L148 34 C126 34 113 43 113 58 C113 72 133 98 154 125 L294 301 L472 301 Z M320 336 L538 607 C546 616 564 614 560 600 L483 336 L320 336 Z M482 747 C485 745 488 747 490 750 C501 768 524 787 541 787 C556 787 578 786 606 779 C629 774 653 771 672 771 C706 771 735 803 754 837 C760 848 761 852 757 854 L742 862 C739 864 736 862 734 858 C726 844 710 826 683 826 C668 826 648 826 627 830 C600 836 581 842 552 842 C523 842 486 807 469 765 C467 759 467 757 469 755 L482 747 Z " />
<glyph glyph-name="Adieresis" unicode="&#xc4;" horiz-adv-x="619" d="M472 301 L422 116 C402 41 376 34 338 34 L319 34 C314 34 312 30 311 26 L307 7 C306 1 308 -3 317 -3 C333 -3 364 0 434 0 C502 0 542 -3 554 -3 C563 -3 565 0 566 6 L569 24 C570 31 567 34 561 34 L534 34 C514 34 497 46 497 62 C497 78 503 103 507 120 L654 675 C656 682 652 685 644 685 C636 685 622 680 611 677 C601 674 578 671 564 670 C545 669 541 667 536 660 L73 107 C37 64 -5 34 -48 34 L-63 34 C-67 34 -69 32 -70 26 L-75 4 C-76 -1 -71 -3 -66 -3 C-55 -3 -20 0 46 0 C124 0 167 -3 177 -3 C184 -3 186 0 187 5 L191 24 C193 32 189 34 184 34 L148 34 C126 34 113 43 113 58 C113 72 133 98 154 125 L294 301 L472 301 Z M320 336 L538 607 C546 616 564 614 560 600 L483 336 L320 336 Z M515 748 C540 748 560 765 560 792 C560 821 539 837 515 837 C474 837 465 809 465 795 C465 756 495 748 515 748 L515 748 Z M693 748 C718 748 738 765 738 792 C738 821 717 837 693 837 C652 837 643 809 643 795 C643 756 673 748 693 748 L693 748 Z " />
<glyph glyph-name="Aring" unicode="&#xc5;" horiz-adv-x="619" d="M472 301 L422 116 C402 41 376 34 338 34 L319 34 C314 34 312 30 311 26 L307 7 C306 1 308 -3 317 -3 C333 -3 364 0 434 0 C502 0 542 -3 554 -3 C563 -3 565 0 566 6 L569 24 C570 31 567 34 561 34 L534 34 C514 34 497 46 497 62 C497 78 503 103 507 120 L653 665 C656 676 651 680 644 680 C636 680 631 677 611 674 C601 672 578 669 557 669 C545 669 541 667 536 660 L73 107 C37 64 -5 34 -48 34 L-63 34 C-67 34 -69 32 -70 26 L-75 4 C-76 -1 -71 -3 -66 -3 C-55 -3 -20 0 46 0 C124 0 167 -3 177 -3 C184 -3 186 0 187 5 L191 24 C193 32 189 34 184 34 L148 34 C126 34 113 43 113 58 C113 72 133 98 154 125 L294 301 L472 301 Z M320 336 L538 607 C546 616 564 614 560 600 L483 336 L320 336 Z M605 728 C662 728 712 757 712 801 C712 857 664 881 612 881 C560 881 505 853 505 797 C505 755 551 728 605 728 L605 728 Z M609 753 C584 753 558 768 558 804 C558 837 584 856 607 856 C626 856 659 844 659 805 C659 768 632 753 609 753 L609 753 Z " />
<glyph glyph-name="AE" unicode="&#xc6;" horiz-adv-x="917" d="M291 344 L524 607 C533 616 542 615 537 600 L455 344 L291 344 Z M534 312 L602 312 C681 312 721 308 714 226 C713 220 713 219 718 218 L734 216 C738 215 740 216 741 222 L795 421 C796 426 793 428 789 429 L774 432 C770 433 768 431 767 427 C739 346 706 344 648 344 L543 344 L638 636 L809 636 C816 636 821 634 826 628 L920 507 C924 502 925 502 930 504 L941 508 C947 511 948 512 947 517 L915 654 C911 670 909 673 894 673 C884 673 864 672 825 672 C786 671 728 670 644 670 L544 670 C522 670 497 671 476 672 C455 672 437 673 429 673 C423 673 420 672 418 668 L409 644 C407 640 409 636 415 636 L480 636 C493 636 493 625 486 618 L26 107 C-14 63 -60 34 -103 34 L-121 34 C-126 34 -128 32 -129 26 L-133 7 C-134 0 -130 -3 -125 -3 C-114 -3 -79 0 -13 0 C65 0 108 -3 118 -3 C126 -3 128 0 129 5 L132 24 C133 31 131 34 126 34 L93 34 C71 34 57 43 57 58 C57 73 79 98 103 126 L262 312 L446 312 L375 90 C364 55 344 34 303 34 L266 34 C261 34 259 32 258 26 L255 8 C254 1 258 -3 265 -3 C270 -3 277 -2 295 -1 C312 -1 341 0 387 0 L469 0 C539 0 618 -1 683 -1 C748 -2 797 -3 806 -3 C818 -3 823 -1 828 14 L879 159 C882 168 880 170 876 173 L866 179 C861 183 857 181 854 177 L774 76 C745 42 732 34 694 34 L445 34 L534 312 Z " />
<glyph glyph-name="Ccedilla" unicode="&#xc7;" horiz-adv-x="652" d="M616 197 C617 202 617 204 611 206 L594 211 C589 213 588 212 584 203 C523 55 419 26 335 26 C277 26 182 70 182 213 C182 293 206 417 281 527 C338 609 392 649 473 649 C588 649 639 535 618 437 C617 430 619 428 624 427 L638 425 C645 423 647 425 649 431 L702 638 C704 644 702 647 696 648 L683 651 C679 653 676 651 674 645 C668 622 660 614 648 614 C629 614 611 633 598 642 C550 675 514 685 466 685 C380 685 290 641 225 570 C133 470 80 337 80 223 C80 103 152 20 252 -5 L193 -90 C215 -97 241 -113 241 -132 C241 -179 177 -190 157 -191 C149 -191 145 -198 145 -207 C145 -217 151 -222 164 -222 C223 -222 302 -176 302 -125 C302 -95 285 -75 253 -63 L286 -12 C297 -14 308 -15 320 -15 C368 -15 436 2 458 13 C476 21 493 27 502 27 C511 27 518 19 518 11 C518 1 516 -4 514 -11 C513 -14 515 -16 518 -17 L536 -22 C540 -23 543 -22 545 -17 L616 197 Z " />
<glyph glyph-name="Egrave" unicode="&#xc8;" horiz-adv-x="669" d="M117 90 C106 55 86 34 45 34 L8 34 C3 34 2 32 0 26 L-3 5 C-5 -1 -2 -3 5 -3 C9 -3 17 -2 35 -1 C54 -1 83 0 129 0 L245 0 C314 0 388 -1 447 -1 C506 -2 550 -3 558 -3 C570 -3 575 -1 580 14 L631 159 C634 168 632 170 628 173 L618 179 C613 183 609 181 606 177 L526 76 C506 50 482 34 446 34 L187 34 L284 341 L344 341 C423 341 463 339 456 256 C455 250 455 249 460 248 L476 246 C480 245 482 246 483 252 L537 451 C538 456 535 458 531 459 L516 462 C512 463 510 461 509 457 C481 375 448 373 390 373 L294 373 L380 636 L562 636 C569 636 574 634 578 628 L672 507 C676 502 677 502 682 504 L693 508 C699 511 700 512 699 517 L667 654 C663 670 661 673 646 673 C635 673 610 672 569 672 C528 671 471 670 395 670 L331 670 C283 670 252 671 231 672 C210 672 199 673 193 673 C186 673 183 672 181 666 L176 647 C174 639 176 636 182 636 L214 636 C248 636 287 621 269 565 L117 90 Z M533 737 C535 740 534 743 531 745 L414 856 C404 866 388 878 376 878 C348 878 320 830 363 808 L519 727 C523 725 525 726 526 727 L533 737 Z " />
<glyph glyph-name="Eacute" unicode="&#xc9;" horiz-adv-x="669" d="M117 90 C106 55 86 34 45 34 L8 34 C3 34 2 32 0 26 L-3 5 C-5 -1 -2 -3 5 -3 C9 -3 17 -2 35 -1 C54 -1 83 0 129 0 L245 0 C314 0 388 -1 447 -1 C506 -2 550 -3 558 -3 C570 -3 575 -1 580 14 L631 159 C634 168 632 170 628 173 L618 179 C613 183 609 181 606 177 L526 76 C506 50 482 34 446 34 L187 34 L284 341 L344 341 C423 341 463 339 456 256 C455 250 455 249 460 248 L476 246 C480 245 482 246 483 252 L537 451 C538 456 535 458 531 459 L516 462 C512 463 510 461 509 457 C481 375 448 373 390 373 L294 373 L380 636 L562 636 C569 636 574 634 578 628 L672 507 C676 502 677 502 682 504 L693 508 C699 511 700 512 699 517 L667 654 C663 670 661 673 646 673 C635 673 610 672 569 672 C528 671 471 670 395 670 L331 670 C283 670 252 671 231 672 C210 672 199 673 193 673 C186 673 183 672 181 666 L176 647 C174 639 176 636 182 636 L214 636 C248 636 287 621 269 565 L117 90 Z M456 729 C457 727 460 726 464 728 L638 799 C676 815 663 872 630 872 C618 872 607 868 596 860 L453 749 C450 746 448 743 450 739 L456 729 Z " />
<glyph glyph-name="Ecircumflex" unicode="&#xca;" horiz-adv-x="669" d="M117 90 C106 55 86 34 45 34 L8 34 C3 34 2 32 0 26 L-3 5 C-5 -1 -2 -3 5 -3 C9 -3 17 -2 35 -1 C54 -1 83 0 129 0 L245 0 C314 0 388 -1 447 -1 C506 -2 550 -3 558 -3 C570 -3 575 -1 580 14 L631 159 C634 168 632 170 628 173 L618 179 C613 183 609 181 606 177 L526 76 C506 50 482 34 446 34 L187 34 L284 341 L344 341 C423 341 463 339 456 256 C455 250 455 249 460 248 L476 246 C480 245 482 246 483 252 L537 451 C538 456 535 458 531 459 L516 462 C512 463 510 461 509 457 C481 375 448 373 390 373 L294 373 L380 636 L562 636 C569 636 574 634 578 628 L672 507 C676 502 677 502 682 504 L693 508 C699 511 700 512 699 517 L667 654 C663 670 661 673 646 673 C635 673 610 672 569 672 C528 671 471 670 395 670 L331 670 C283 670 252 671 231 672 C210 672 199 673 193 673 C186 673 183 672 181 666 L176 647 C174 639 176 636 182 636 L214 636 C248 636 287 621 269 565 L117 90 Z M487 792 L556 732 C560 729 563 727 567 730 L577 739 C580 741 581 744 579 747 L508 867 C505 872 499 872 495 869 L356 749 C354 747 352 745 354 743 L361 732 C363 729 365 729 368 730 L487 792 Z " />
<glyph glyph-name="Edieresis" unicode="&#xcb;" horiz-adv-x="669" d="M117 90 C106 55 86 34 45 34 L8 34 C3 34 2 32 0 26 L-3 5 C-5 -1 -2 -3 5 -3 C9 -3 17 -2 35 -1 C54 -1 83 0 129 0 L245 0 C314 0 388 -1 447 -1 C506 -2 550 -3 558 -3 C570 -3 575 -1 580 14 L631 159 C634 168 632 170 628 173 L618 179 C613 183 609 181 606 177 L526 76 C506 50 482 34 446 34 L187 34 L284 341 L344 341 C423 341 463 339 456 256 C455 250 455 249 460 248 L476 246 C480 245 482 246 483 252 L537 451 C538 456 535 458 531 459 L516 462 C512 463 510 461 509 457 C481 375 448 373 390 373 L294 373 L380 636 L562 636 C569 636 574 634 578 628 L672 507 C676 502 677 502 682 504 L693 508 C699 511 700 512 699 517 L667 654 C663 670 661 673 646 673 C635 673 610 672 569 672 C528 671 471 670 395 670 L331 670 C283 670 252 671 231 672 C210 672 199 673 193 673 C186 673 183 672 181 666 L176 647 C174 639 176 636 182 636 L214 636 C248 636 287 621 269 565 L117 90 Z M390 748 C415 748 435 765 435 792 C435 821 414 837 390 837 C349 837 340 809 340 795 C340 756 370 748 390 748 L390 748 Z M568 748 C593 748 613 765 613 792 C613 821 592 837 568 837 C527 837 518 809 518 795 C518 756 548 748 568 748 L568 748 Z " />
<glyph glyph-name="Igrave" unicode="&#xcc;" horiz-adv-x="359" d="M130 108 C115 54 107 34 48 34 L5 34 C-1 34 -2 32 -4 24 L-8 5 C-9 0 -7 -3 0 -3 C11 -3 67 0 148 0 C235 0 282 -3 293 -3 C303 -3 304 -1 305 5 L308 24 C309 30 308 34 302 34 L267 34 C215 34 201 54 214 102 L339 565 C356 626 371 636 432 636 L451 636 C459 636 461 639 462 644 L467 663 C469 669 466 673 456 673 C442 673 399 670 317 670 C247 670 194 673 182 673 C173 673 170 671 169 667 L164 644 C163 638 165 636 173 636 L219 636 C254 636 268 619 255 570 L130 108 Z M378 737 C380 740 379 743 376 745 L259 856 C249 866 233 878 221 878 C193 878 165 830 208 808 L364 727 C368 725 370 726 371 727 L378 737 Z " />
<glyph glyph-name="Iacute" unicode="&#xcd;" horiz-adv-x="359" d="M130 108 C115 54 107 34 48 34 L5 34 C-1 34 -2 32 -4 24 L-8 5 C-9 0 -7 -3 0 -3 C11 -3 67 0 148 0 C235 0 282 -3 293 -3 C303 -3 304 -1 305 5 L308 24 C309 30 308 34 302 34 L267 34 C215 34 201 54 214 102 L339 565 C356 626 371 636 432 636 L451 636 C459 636 461 639 462 644 L467 663 C469 669 466 673 456 673 C442 673 399 670 317 670 C247 670 194 673 182 673 C173 673 170 671 169 667 L164 644 C163 638 165 636 173 636 L219 636 C254 636 268 619 255 570 L130 108 Z M321 729 C322 727 325 726 329 728 L503 799 C541 815 528 872 495 872 C483 872 472 868 461 860 L318 749 C315 746 313 743 315 739 L321 729 Z " />
<glyph glyph-name="Icircumflex" unicode="&#xce;" horiz-adv-x="359" d="M130 108 C115 54 107 34 48 34 L5 34 C-1 34 -2 32 -4 24 L-8 5 C-9 0 -7 -3 0 -3 C11 -3 67 0 148 0 C235 0 282 -3 293 -3 C303 -3 304 -1 305 5 L308 24 C309 30 308 34 302 34 L267 34 C215 34 201 54 214 102 L339 565 C356 626 371 636 432 636 L451 636 C459 636 461 639 462 644 L467 663 C469 669 466 673 456 673 C442 673 399 670 317 670 C247 670 194 673 182 673 C173 673 170 671 169 667 L164 644 C163 638 165 636 173 636 L219 636 C254 636 268 619 255 570 L130 108 Z M352 792 L421 732 C425 729 428 727 432 730 L442 739 C445 741 446 744 444 747 L373 867 C370 872 364 872 360 869 L221 749 C219 747 217 745 219 743 L226 732 C228 729 230 729 233 730 L352 792 Z " />
<glyph glyph-name="Idieresis" unicode="&#xcf;" horiz-adv-x="359" d="M130 108 C115 54 107 34 48 34 L5 34 C-1 34 -2 32 -4 24 L-8 5 C-9 0 -7 -3 0 -3 C11 -3 67 0 148 0 C235 0 282 -3 293 -3 C303 -3 304 -1 305 5 L308 24 C309 30 308 34 302 34 L267 34 C215 34 201 54 214 102 L339 565 C356 626 371 636 432 636 L451 636 C459 636 461 639 462 644 L467 663 C469 669 466 673 456 673 C442 673 399 670 317 670 C247 670 194 673 182 673 C173 673 170 671 169 667 L164 644 C163 638 165 636 173 636 L219 636 C254 636 268 619 255 570 L130 108 Z M255 748 C280 748 300 765 300 792 C300 821 279 837 255 837 C214 837 205 809 205 795 C205 756 235 748 255 748 L255 748 Z M433 748 C458 748 478 765 478 792 C478 821 457 837 433 837 C392 837 383 809 383 795 C383 756 413 748 433 748 L433 748 Z " />
<glyph glyph-name="Eth" unicode="&#xd0;" horiz-adv-x="777" d="M271 328 L409 328 C422 328 425 330 427 336 L434 354 C437 361 435 365 424 365 L281 365 L346 636 C356 639 386 639 402 639 C416 639 457 640 511 626 C550 615 592 595 625 561 C662 523 689 460 689 395 C689 280 628 168 567 117 C493 54 388 34 281 34 C238 34 210 43 210 64 C210 74 213 88 217 106 L271 328 Z M134 113 C118 47 86 34 50 34 L20 34 C13 34 11 31 10 27 L4 5 C3 0 5 -3 12 -3 C20 -3 49 0 124 0 C152 0 243 -3 270 -3 C336 -3 471 -3 597 68 C658 103 782 202 782 398 C782 459 769 516 707 579 C623 662 483 676 356 676 C336 676 290 674 248 673 C209 671 177 670 165 670 C153 670 151 669 149 663 L143 641 C141 635 143 633 153 633 L198 633 C233 633 259 622 249 583 L196 365 L88 365 C79 365 76 363 75 359 L67 337 C65 330 69 328 78 328 L186 328 L134 113 Z " />
<glyph glyph-name="Ntilde" unicode="&#xd1;" horiz-adv-x="746" d="M118 137 C94 62 73 34 24 34 L-3 34 C-9 34 -11 31 -12 26 L-15 8 C-16 1 -13 -3 -7 -3 C3 -3 36 0 105 0 C178 0 221 -3 231 -3 C240 -3 241 -1 243 5 L246 24 C247 30 244 34 237 34 L198 34 C153 34 146 67 164 127 L292 550 C296 564 304 564 310 551 L548 20 C560 -6 578 -7 589 26 L783 581 C800 629 813 636 838 636 L863 636 C869 636 871 637 872 644 L875 660 C877 668 874 673 866 673 C852 673 832 670 780 670 C709 670 678 673 666 673 C659 673 657 670 656 665 L653 647 C652 639 655 636 664 636 L699 636 C731 636 744 616 731 578 L600 187 C586 147 583 147 575 164 L360 644 C355 655 354 670 339 670 C220 670 180 673 167 673 C159 673 158 670 156 663 L152 648 C150 640 154 636 160 636 L198 636 C263 636 266 608 256 577 L118 137 Z M421 747 C424 745 427 747 429 750 C440 768 463 787 480 787 C495 787 517 786 545 779 C568 774 592 771 611 771 C645 771 674 803 693 837 C699 848 700 852 696 854 L681 862 C678 864 675 862 673 858 C665 844 649 826 622 826 C607 826 587 826 566 830 C539 836 520 842 491 842 C462 842 425 807 408 765 C406 759 406 757 408 755 L421 747 Z " />
<glyph glyph-name="Ograve" unicode="&#xd2;" horiz-adv-x="709" d="M360 -15 C586 -15 715 199 715 385 C715 564 603 685 452 685 C267 685 102 493 102 288 C102 191 127 113 186 53 C254 -18 341 -15 360 -15 L360 -15 Z M337 24 C263 24 178 81 178 223 C178 326 235 480 324 569 C367 612 410 641 471 641 C582 641 637 557 637 450 C637 246 501 24 337 24 L337 24 Z M523 737 C525 740 524 743 521 745 L404 856 C394 866 378 878 366 878 C338 878 310 830 353 808 L509 727 C513 725 515 726 516 727 L523 737 Z " />
<glyph glyph-name="Oacute" unicode="&#xd3;" horiz-adv-x="709" d="M360 -15 C586 -15 715 199 715 385 C715 564 603 685 452 685 C267 685 102 493 102 288 C102 191 127 113 186 53 C254 -18 341 -15 360 -15 L360 -15 Z M337 24 C263 24 178 81 178 223 C178 326 235 480 324 569 C367 612 410 641 471 641 C582 641 637 557 637 450 C637 246 501 24 337 24 L337 24 Z M466 729 C467 727 470 726 474 728 L648 799 C686 815 673 872 640 872 C628 872 617 868 606 860 L463 749 C460 746 458 743 460 739 L466 729 Z " />
<glyph glyph-name="Ocircumflex" unicode="&#xd4;" horiz-adv-x="709" d="M360 -15 C586 -15 715 199 715 385 C715 564 603 685 452 685 C267 685 102 493 102 288 C102 191 127 113 186 53 C254 -18 341 -15 360 -15 L360 -15 Z M337 24 C263 24 178 81 178 223 C178 326 235 480 324 569 C367 612 410 641 471 641 C582 641 637 557 637 450 C637 246 501 24 337 24 L337 24 Z M477 792 L546 732 C550 729 553 727 557 730 L567 739 C570 741 571 744 569 747 L498 867 C495 872 489 872 485 869 L346 749 C344 747 342 745 344 743 L351 732 C353 729 355 729 358 730 L477 792 Z " />
<glyph glyph-name="Otilde" unicode="&#xd5;" horiz-adv-x="709" d="M360 -15 C586 -15 715 199 715 385 C715 564 603 685 452 685 C267 685 102 493 102 288 C102 191 127 113 186 53 C254 -18 341 -15 360 -15 L360 -15 Z M337 24 C263 24 178 81 178 223 C178 326 235 480 324 569 C367 612 410 641 471 641 C582 641 637 557 637 450 C637 246 501 24 337 24 L337 24 Z M357 747 C360 745 363 747 365 750 C376 768 399 787 416 787 C431 787 453 786 481 779 C504 774 528 771 547 771 C581 771 610 803 629 837 C635 848 636 852 632 854 L617 862 C614 864 611 862 609 858 C601 844 585 826 558 826 C543 826 523 826 502 830 C475 836 456 842 427 842 C398 842 361 807 344 765 C342 759 342 757 344 755 L357 747 Z " />
<glyph glyph-name="Odieresis" unicode="&#xd6;" horiz-adv-x="709" d="M360 -15 C586 -15 715 199 715 385 C715 564 603 685 452 685 C267 685 102 493 102 288 C102 191 127 113 186 53 C254 -18 341 -15 360 -15 L360 -15 Z M337 24 C263 24 178 81 178 223 C178 326 235 480 324 569 C367 612 410 641 471 641 C582 641 637 557 637 450 C637 246 501 24 337 24 L337 24 Z M390 748 C415 748 435 765 435 792 C435 821 414 837 390 837 C349 837 340 809 340 795 C340 756 370 748 390 748 L390 748 Z M568 748 C593 748 613 765 613 792 C613 821 592 837 568 837 C527 837 518 809 518 795 C518 756 548 748 568 748 L568 748 Z " />
<glyph glyph-name="multiply" unicode="&#xd7;" horiz-adv-x="500" d="M448 86 L303 229 L447 371 L409 408 L266 264 L123 408 L83 367 L225 227 L82 86 L117 44 L262 190 L407 44 L448 86 Z " />
<glyph glyph-name="Oslash" unicode="&#xd8;" horiz-adv-x="709" d="M608 565 C628 534 637 494 637 450 C637 246 501 24 337 24 C295 24 249 43 218 86 L608 565 Z M196 124 C185 150 178 183 178 223 C178 326 235 480 324 569 C367 612 410 641 471 641 C518 641 556 626 582 599 L196 124 Z M189 50 C257 -18 341 -15 360 -15 C586 -15 715 199 715 385 C715 475 687 551 639 603 L677 650 C684 658 686 663 681 666 L658 683 C654 685 651 685 648 680 L609 632 C567 666 512 685 452 685 C267 685 102 493 102 288 C102 205 120 136 162 82 L109 17 C108 15 106 12 110 8 L131 -11 C134 -14 138 -13 142 -8 L189 50 Z " />
<glyph glyph-name="Ugrave" unicode="&#xd9;" horiz-adv-x="731" d="M761 590 C772 617 787 636 819 636 L840 636 C848 636 850 639 851 644 L854 663 C855 670 854 673 845 673 C835 673 812 670 754 670 C682 670 644 673 632 673 C623 673 621 670 619 663 L616 644 C615 639 616 636 625 636 L663 636 C694 636 715 623 700 575 L612 287 C578 176 546 121 500 80 C468 51 414 30 370 30 C335 30 212 45 212 171 C212 216 235 290 241 312 L323 579 C339 632 363 636 387 636 L419 636 C425 636 428 639 429 644 L433 663 C434 670 432 673 424 673 C414 673 380 670 299 670 C227 670 192 673 180 673 C170 673 168 671 167 665 L162 644 C161 638 164 636 169 636 L205 636 C237 636 248 619 233 574 L148 293 C142 272 127 210 127 168 C127 44 226 -15 360 -15 C517 -15 606 94 663 279 L761 590 Z M564 737 C566 740 565 743 562 745 L445 856 C435 866 419 878 407 878 C379 878 351 830 394 808 L550 727 C554 725 556 726 557 727 L564 737 Z " />
<glyph glyph-name="Uacute" unicode="&#xda;" horiz-adv-x="731" d="M761 590 C772 617 787 636 819 636 L840 636 C848 636 850 639 851 644 L854 663 C855 670 854 673 845 673 C835 673 812 670 754 670 C682 670 644 673 632 673 C623 673 621 670 619 663 L616 644 C615 639 616 636 625 636 L663 636 C694 636 715 623 700 575 L612 287 C578 176 546 121 500 80 C468 51 414 30 370 30 C335 30 212 45 212 171 C212 216 235 290 241 312 L323 579 C339 632 363 636 387 636 L419 636 C425 636 428 639 429 644 L433 663 C434 670 432 673 424 673 C414 673 380 670 299 670 C227 670 192 673 180 673 C170 673 168 671 167 665 L162 644 C161 638 164 636 169 636 L205 636 C237 636 248 619 233 574 L148 293 C142 272 127 210 127 168 C127 44 226 -15 360 -15 C517 -15 606 94 663 279 L761 590 Z M527 729 C528 727 531 726 535 728 L709 799 C747 815 734 872 701 872 C689 872 678 868 667 860 L524 749 C521 746 519 743 521 739 L527 729 Z " />
<glyph glyph-name="Ucircumflex" unicode="&#xdb;" horiz-adv-x="731" d="M761 590 C772 617 787 636 819 636 L840 636 C848 636 850 639 851 644 L854 663 C855 670 854 673 845 673 C835 673 812 670 754 670 C682 670 644 673 632 673 C623 673 621 670 619 663 L616 644 C615 639 616 636 625 636 L663 636 C694 636 715 623 700 575 L612 287 C578 176 546 121 500 80 C468 51 414 30 370 30 C335 30 212 45 212 171 C212 216 235 290 241 312 L323 579 C339 632 363 636 387 636 L419 636 C425 636 428 639 429 644 L433 663 C434 670 432 673 424 673 C414 673 380 670 299 670 C227 670 192 673 180 673 C170 673 168 671 167 665 L162 644 C161 638 164 636 169 636 L205 636 C237 636 248 619 233 574 L148 293 C142 272 127 210 127 168 C127 44 226 -15 360 -15 C517 -15 606 94 663 279 L761 590 Z M578 792 L647 732 C651 729 654 727 658 730 L668 739 C671 741 672 744 670 747 L599 867 C596 872 590 872 586 869 L447 749 C445 747 443 745 445 743 L452 732 C454 729 456 729 459 730 L578 792 Z " />
<glyph glyph-name="Udieresis" unicode="&#xdc;" horiz-adv-x="731" d="M761 590 C772 617 787 636 819 636 L840 636 C848 636 850 639 851 644 L854 663 C855 670 854 673 845 673 C835 673 812 670 754 670 C682 670 644 673 632 673 C623 673 621 670 619 663 L616 644 C615 639 616 636 625 636 L663 636 C694 636 715 623 700 575 L612 287 C578 176 546 121 500 80 C468 51 414 30 370 30 C335 30 212 45 212 171 C212 216 235 290 241 312 L323 579 C339 632 363 636 387 636 L419 636 C425 636 428 639 429 644 L433 663 C434 670 432 673 424 673 C414 673 380 670 299 670 C227 670 192 673 180 673 C170 673 168 671 167 665 L162 644 C161 638 164 636 169 636 L205 636 C237 636 248 619 233 574 L148 293 C142 272 127 210 127 168 C127 44 226 -15 360 -15 C517 -15 606 94 663 279 L761 590 Z M481 748 C506 748 526 765 526 792 C526 821 505 837 481 837 C440 837 431 809 431 795 C431 756 461 748 481 748 L481 748 Z M659 748 C684 748 704 765 704 792 C704 821 683 837 659 837 C618 837 609 809 609 795 C609 756 639 748 659 748 L659 748 Z " />
<glyph glyph-name="Yacute" unicode="&#xdd;" horiz-adv-x="540" d="M217 87 C210 57 199 34 152 34 L123 34 C116 34 114 31 114 26 L110 5 C109 -1 112 -3 118 -3 C129 -3 160 0 243 0 C317 0 349 -3 364 -3 C372 -3 374 0 375 5 L378 26 C379 31 377 34 371 34 L341 34 C308 34 291 39 302 90 L327 203 C337 248 347 261 369 292 C383 312 566 569 580 587 C606 620 624 636 658 636 L677 636 C682 636 684 638 685 646 L688 665 C689 670 687 673 678 673 C665 673 635 670 580 670 C523 670 484 673 470 673 C461 673 459 672 458 665 L456 646 C455 640 457 636 463 636 L483 636 C523 636 533 620 520 582 C509 551 358 336 336 306 C329 297 325 297 321 310 L228 588 C220 611 222 636 260 636 L286 636 C292 636 294 638 295 644 L297 665 C298 671 295 673 288 673 C275 673 241 670 165 670 C99 670 73 673 60 673 C53 673 51 672 50 665 L46 644 C45 638 47 636 53 636 L76 636 C111 636 129 621 137 598 L245 289 C248 280 253 249 250 235 L217 87 Z M392 729 C393 727 396 726 400 728 L574 799 C612 815 599 872 566 872 C554 872 543 868 532 860 L389 749 C386 746 384 743 386 739 L392 729 Z " />
<glyph glyph-name="Thorn" unicode="&#xde;" horiz-adv-x="614" d="M133 114 C122 71 108 34 54 34 L33 34 C25 34 23 31 22 24 L20 7 C19 0 22 -3 30 -3 C42 -3 78 0 146 0 C226 0 267 -3 279 -3 C288 -3 289 -1 291 5 L294 24 C295 30 293 34 286 34 L248 34 C208 34 205 69 214 107 L226 155 C252 150 286 148 331 148 C533 148 619 259 619 360 C619 428 603 459 559 496 C511 536 456 543 361 543 C344 543 336 543 328 544 L337 574 C348 612 368 636 400 636 L430 636 C438 636 440 639 441 646 L444 663 C445 671 443 673 430 673 C416 673 380 670 312 670 C234 670 199 673 185 673 C178 673 175 670 174 666 L168 646 C167 641 169 636 174 636 L220 636 C265 636 261 598 252 566 L133 114 Z M320 509 C329 511 350 511 361 511 C429 511 531 487 531 368 C531 284 472 180 322 180 C295 180 253 183 234 189 L320 509 Z " />
<glyph glyph-name="germandbls" unicode="&#xdf;" horiz-adv-x="458" d="M413 685 C348 685 295 647 267 618 C212 561 178 478 147 389 C95 241 60 79 4 -90 C-29 -189 -74 -257 -118 -257 C-130 -257 -138 -248 -141 -234 C-144 -218 -160 -195 -183 -195 C-208 -195 -225 -215 -225 -238 C-225 -270 -192 -297 -161 -297 C-50 -297 27 -191 86 -31 C134 98 181 271 212 371 C258 521 284 649 378 649 C417 649 442 618 442 580 C442 525 427 483 386 442 C359 415 296 364 296 295 C296 247 319 213 326 196 C339 164 369 123 369 80 C369 45 342 19 313 19 C288 19 283 30 277 47 C271 64 258 79 236 79 C215 79 202 60 202 46 C202 13 238 -10 296 -10 C365 -10 428 37 428 115 C428 168 396 217 390 229 C384 243 354 285 354 330 C354 384 401 418 422 439 C475 489 513 538 513 604 C513 652 470 685 413 685 L413 685 Z " />
<glyph glyph-name="agrave" unicode="&#xe0;" horiz-adv-x="455" d="M420 416 C416 416 413 413 410 409 L391 382 C381 398 362 416 320 416 C198 416 34 200 34 54 C34 9 65 -10 88 -10 C159 -10 260 97 302 161 L307 159 C269 53 259 22 259 7 C259 -6 268 -10 280 -10 C337 -10 424 75 435 95 C437 98 436 100 433 103 L424 113 C422 116 419 114 416 111 C409 102 358 50 346 50 C340 50 335 53 335 62 C335 71 377 195 383 212 C388 228 439 366 458 407 C460 411 459 416 455 416 L420 416 Z M134 43 C117 43 107 55 107 78 C107 173 214 384 306 384 C343 384 353 352 353 325 C353 296 343 271 329 242 C311 205 184 43 134 43 L134 43 Z M365 475 C368 478 368 480 365 483 L281 594 C270 608 263 618 246 618 C219 618 202 579 229 558 L349 467 C352 464 356 464 358 467 L365 475 Z " />
<glyph glyph-name="aacute" unicode="&#xe1;" horiz-adv-x="455" d="M420 416 C416 416 413 413 410 409 L391 382 C381 398 362 416 320 416 C198 416 34 200 34 54 C34 9 65 -10 88 -10 C159 -10 260 97 302 161 L307 159 C269 53 259 22 259 7 C259 -6 268 -10 280 -10 C337 -10 424 75 435 95 C437 98 436 100 433 103 L424 113 C422 116 419 114 416 111 C409 102 358 50 346 50 C340 50 335 53 335 62 C335 71 377 195 383 212 C388 228 439 366 458 407 C460 411 459 416 455 416 L420 416 Z M134 43 C117 43 107 55 107 78 C107 173 214 384 306 384 C343 384 353 352 353 325 C353 296 343 271 329 242 C311 205 184 43 134 43 L134 43 Z M319 467 C320 465 323 464 327 466 L478 537 C520 557 504 603 477 603 C463 603 453 598 442 588 L316 485 C313 482 310 479 312 477 L319 467 Z " />
<glyph glyph-name="acircumflex" unicode="&#xe2;" horiz-adv-x="455" d="M420 416 C416 416 413 413 410 409 L391 382 C381 398 362 416 320 416 C198 416 34 200 34 54 C34 9 65 -10 88 -10 C159 -10 260 97 302 161 L307 159 C269 53 259 22 259 7 C259 -6 268 -10 280 -10 C337 -10 424 75 435 95 C437 98 436 100 433 103 L424 113 C422 116 419 114 416 111 C409 102 358 50 346 50 C340 50 335 53 335 62 C335 71 377 195 383 212 C388 228 439 366 458 407 C460 411 459 416 455 416 L420 416 Z M134 43 C117 43 107 55 107 78 C107 173 214 384 306 384 C343 384 353 352 353 325 C353 296 343 271 329 242 C311 205 184 43 134 43 L134 43 Z M405 472 C407 470 410 470 413 472 L421 476 C424 478 424 481 422 484 L377 614 C375 620 371 621 367 618 L242 490 C239 487 237 485 239 483 L245 474 C247 471 250 472 252 473 L352 538 L405 472 Z " />
<glyph glyph-name="atilde" unicode="&#xe3;" horiz-adv-x="455" d="M420 416 C416 416 413 413 410 409 L391 382 C381 398 362 416 320 416 C198 416 34 200 34 54 C34 9 65 -10 88 -10 C159 -10 260 97 302 161 L307 159 C269 53 259 22 259 7 C259 -6 268 -10 280 -10 C337 -10 424 75 435 95 C437 98 436 100 433 103 L424 113 C422 116 419 114 416 111 C409 102 358 50 346 50 C340 50 335 53 335 62 C335 71 377 195 383 212 C388 228 439 366 458 407 C460 411 459 416 455 416 L420 416 Z M134 43 C117 43 107 55 107 78 C107 173 214 384 306 384 C343 384 353 352 353 325 C353 296 343 271 329 242 C311 205 184 43 134 43 L134 43 Z M230 477 C233 475 235 477 237 480 C248 499 272 518 289 518 C303 518 314 516 328 512 C347 507 364 502 385 502 C412 502 444 531 461 562 C468 573 469 577 465 579 L450 587 C447 589 444 587 442 583 C434 569 418 551 397 551 C374 551 362 554 351 557 C332 563 318 567 301 567 C267 567 233 532 218 495 C215 489 215 487 217 485 L230 477 Z " />
<glyph glyph-name="adieresis" unicode="&#xe4;" horiz-adv-x="455" d="M420 416 C416 416 413 413 410 409 L391 382 C381 398 362 416 320 416 C198 416 34 200 34 54 C34 9 65 -10 88 -10 C159 -10 260 97 302 161 L307 159 C269 53 259 22 259 7 C259 -6 268 -10 280 -10 C337 -10 424 75 435 95 C437 98 436 100 433 103 L424 113 C422 116 419 114 416 111 C409 102 358 50 346 50 C340 50 335 53 335 62 C335 71 377 195 383 212 C388 228 439 366 458 407 C460 411 459 416 455 416 L420 416 Z M134 43 C117 43 107 55 107 78 C107 173 214 384 306 384 C343 384 353 352 353 325 C353 296 343 271 329 242 C311 205 184 43 134 43 L134 43 Z M273 488 C296 488 314 503 314 528 C314 555 295 570 273 570 C236 570 227 544 227 531 C227 496 255 488 273 488 L273 488 Z M409 488 C432 488 450 503 450 528 C450 555 431 570 409 570 C372 570 363 544 363 531 C363 496 391 488 409 488 L409 488 Z " />
<glyph glyph-name="aring" unicode="&#xe5;" horiz-adv-x="455" d="M420 416 C416 416 413 413 410 409 L391 382 C381 398 362 416 320 416 C198 416 34 200 34 54 C34 9 65 -10 88 -10 C159 -10 260 97 302 161 L307 159 C269 53 259 22 259 7 C259 -6 268 -10 280 -10 C337 -10 424 75 435 95 C437 98 436 100 433 103 L424 113 C422 116 419 114 416 111 C409 102 358 50 346 50 C340 50 335 53 335 62 C335 71 377 195 383 212 C388 228 439 366 458 407 C460 411 459 416 455 416 L420 416 Z M134 43 C117 43 107 55 107 78 C107 173 214 384 306 384 C343 384 353 352 353 325 C353 296 343 271 329 242 C311 205 184 43 134 43 L134 43 Z M343 480 C400 480 442 509 442 553 C442 604 402 628 350 628 C298 628 248 600 248 549 C248 507 289 480 343 480 L343 480 Z M347 503 C322 503 296 520 296 552 C296 588 322 604 345 604 C364 604 394 592 394 554 C394 520 370 503 347 503 L347 503 Z " />
<glyph glyph-name="ae" unicode="&#xe6;" horiz-adv-x="540" d="M477 109 C473 112 470 111 468 108 C447 74 404 37 355 37 C322 37 302 70 303 119 C351 149 405 181 465 226 C516 264 554 306 554 354 C554 387 532 416 473 416 C260 416 16 176 16 40 C16 16 33 -10 62 -10 C124 -10 190 39 234 75 C237 26 259 -10 327 -10 C404 -10 464 56 489 91 C492 95 493 96 488 100 L477 109 Z M455 372 C476 372 488 355 488 334 C488 260 349 177 306 150 C324 272 396 372 455 372 L455 372 Z M346 358 C359 358 364 352 350 338 C319 304 260 238 233 105 C194 75 146 41 115 41 C100 41 89 52 89 74 C91 179 288 358 346 358 L346 358 Z " />
<glyph glyph-name="ccedilla" unicode="&#xe7;" horiz-adv-x="302" d="M43 -87 C67 -96 81 -113 81 -129 C81 -153 44 -176 7 -176 C-4 -176 -11 -181 -11 -192 C-11 -202 -7 -210 8 -210 C38 -210 136 -178 136 -125 C136 -97 120 -79 95 -67 L137 -8 C194 2 249 57 262 76 C266 82 264 85 261 87 L250 97 C247 99 244 97 241 93 C230 79 192 39 153 39 C135 39 113 49 113 122 C113 153 129 239 156 297 C178 342 204 366 229 366 C245 366 257 351 260 340 C264 325 273 318 286 318 C304 318 327 336 327 360 C327 378 317 416 270 416 C154 416 43 218 43 82 C43 26 71 -1 100 -7 L43 -87 Z " />
<glyph glyph-name="egrave" unicode="&#xe8;" horiz-adv-x="349" d="M137 -10 C214 -10 274 56 299 91 C303 94 303 97 298 100 L287 109 C283 113 280 111 278 108 C257 74 213 37 164 37 C145 37 112 55 112 100 C112 147 120 180 125 192 C162 195 216 206 270 233 C326 262 363 314 363 363 C363 387 345 416 306 416 C258 416 204 381 172 349 C99 277 44 172 44 88 C44 22 72 -10 137 -10 L137 -10 Z M267 372 C289 372 299 354 299 334 C299 260 168 218 133 221 C141 257 203 372 267 372 L267 372 Z M332 475 C335 478 335 480 332 483 L248 594 C237 608 230 618 213 618 C186 618 169 579 196 558 L316 467 C319 464 323 464 325 467 L332 475 Z " />
<glyph glyph-name="eacute" unicode="&#xe9;" horiz-adv-x="349" d="M137 -10 C214 -10 274 56 299 91 C303 94 303 97 298 100 L287 109 C283 113 280 111 278 108 C257 74 213 37 164 37 C145 37 112 55 112 100 C112 147 120 180 125 192 C162 195 216 206 270 233 C326 262 363 314 363 363 C363 387 345 416 306 416 C258 416 204 381 172 349 C99 277 44 172 44 88 C44 22 72 -10 137 -10 L137 -10 Z M267 372 C289 372 299 354 299 334 C299 260 168 218 133 221 C141 257 203 372 267 372 L267 372 Z M266 467 C267 465 270 464 274 466 L425 537 C467 557 451 603 424 603 C410 603 400 598 389 588 L263 485 C260 482 257 479 259 477 L266 467 Z " />
<glyph glyph-name="ecircumflex" unicode="&#xea;" horiz-adv-x="349" d="M137 -10 C214 -10 274 56 299 91 C303 94 303 97 298 100 L287 109 C283 113 280 111 278 108 C257 74 213 37 164 37 C145 37 112 55 112 100 C112 147 120 180 125 192 C162 195 216 206 270 233 C326 262 363 314 363 363 C363 387 345 416 306 416 C258 416 204 381 172 349 C99 277 44 172 44 88 C44 22 72 -10 137 -10 L137 -10 Z M267 372 C289 372 299 354 299 334 C299 260 168 218 133 221 C141 257 203 372 267 372 L267 372 Z M372 472 C374 470 377 470 380 472 L388 476 C391 478 391 481 389 484 L344 614 C342 620 338 621 334 618 L209 490 C206 487 204 485 206 483 L212 474 C214 471 217 472 219 473 L319 538 L372 472 Z " />
<glyph glyph-name="edieresis" unicode="&#xeb;" horiz-adv-x="349" d="M137 -10 C214 -10 274 56 299 91 C303 94 303 97 298 100 L287 109 C283 113 280 111 278 108 C257 74 213 37 164 37 C145 37 112 55 112 100 C112 147 120 180 125 192 C162 195 216 206 270 233 C326 262 363 314 363 363 C363 387 345 416 306 416 C258 416 204 381 172 349 C99 277 44 172 44 88 C44 22 72 -10 137 -10 L137 -10 Z M267 372 C289 372 299 354 299 334 C299 260 168 218 133 221 C141 257 203 372 267 372 L267 372 Z M240 488 C263 488 281 503 281 528 C281 555 262 570 240 570 C203 570 194 544 194 531 C194 496 222 488 240 488 L240 488 Z M376 488 C399 488 417 503 417 528 C417 555 398 570 376 570 C339 570 330 544 330 531 C330 496 358 488 376 488 L376 488 Z " />
<glyph glyph-name="igrave" unicode="&#xec;" horiz-adv-x="287" d="M92 -10 C175 -10 255 86 261 94 C264 99 263 101 259 106 L251 113 C246 118 242 118 240 115 C235 106 181 49 160 45 C152 47 149 53 149 62 C149 69 154 91 167 128 L225 280 C243 328 259 373 259 391 C259 408 247 416 235 416 C171 419 69 299 65 293 C62 289 64 287 68 284 L76 275 C79 272 83 272 87 276 C103 292 150 346 167 346 C175 346 181 342 181 333 C181 321 173 301 163 274 L134 196 C93 84 75 38 75 15 C75 -1 82 -9 92 -10 L92 -10 Z M261 475 C264 478 264 480 261 483 L177 594 C166 608 159 618 142 618 C115 618 98 579 125 558 L245 467 C248 464 252 464 254 467 L261 475 Z " />
<glyph glyph-name="iacute" unicode="&#xed;" horiz-adv-x="287" d="M92 -10 C175 -10 255 86 261 94 C264 99 263 101 259 106 L251 113 C246 118 242 118 240 115 C235 106 181 49 160 45 C152 47 149 53 149 62 C149 69 154 91 167 128 L225 280 C243 328 259 373 259 391 C259 408 247 416 235 416 C171 419 69 299 65 293 C62 289 64 287 68 284 L76 275 C79 272 83 272 87 276 C103 292 150 346 167 346 C175 346 181 342 181 333 C181 321 173 301 163 274 L134 196 C93 84 75 38 75 15 C75 -1 82 -9 92 -10 L92 -10 Z M215 467 C216 465 219 464 223 466 L374 537 C416 557 400 603 373 603 C359 603 349 598 338 588 L212 485 C209 482 206 479 208 477 L215 467 Z " />
<glyph glyph-name="icircumflex" unicode="&#xee;" horiz-adv-x="287" d="M92 -10 C175 -10 255 86 261 94 C264 99 263 101 259 106 L251 113 C246 118 242 118 240 115 C235 106 181 49 160 45 C152 47 149 53 149 62 C149 69 154 91 167 128 L225 280 C243 328 259 373 259 391 C259 408 247 416 235 416 C171 419 69 299 65 293 C62 289 64 287 68 284 L76 275 C79 272 83 272 87 276 C103 292 150 346 167 346 C175 346 181 342 181 333 C181 321 173 301 163 274 L134 196 C93 84 75 38 75 15 C75 -1 82 -9 92 -10 L92 -10 Z M311 472 C313 470 316 470 319 472 L327 476 C330 478 330 481 328 484 L283 614 C281 620 277 621 273 618 L148 490 C145 487 143 485 145 483 L151 474 C153 471 156 472 158 473 L258 538 L311 472 Z " />
<glyph glyph-name="idieresis" unicode="&#xef;" horiz-adv-x="287" d="M92 -10 C175 -10 255 86 261 94 C264 99 263 101 259 106 L251 113 C246 118 242 118 240 115 C235 106 181 49 160 45 C152 47 149 53 149 62 C149 69 154 91 167 128 L225 280 C243 328 259 373 259 391 C259 408 247 416 235 416 C171 419 69 299 65 293 C62 289 64 287 68 284 L76 275 C79 272 83 272 87 276 C103 292 150 346 167 346 C175 346 181 342 181 333 C181 321 173 301 163 274 L134 196 C93 84 75 38 75 15 C75 -1 82 -9 92 -10 L92 -10 Z M179 488 C202 488 220 503 220 528 C220 555 201 570 179 570 C142 570 133 544 133 531 C133 496 161 488 179 488 L179 488 Z M315 488 C338 488 356 503 356 528 C356 555 337 570 315 570 C278 570 269 544 269 531 C269 496 297 488 315 488 L315 488 Z " />
<glyph glyph-name="eth" unicode="&#xf0;" horiz-adv-x="414" d="M161 20 C125 22 112 62 112 81 C112 119 121 164 142 220 C188 341 246 385 280 385 C309 385 332 366 332 325 C332 238 251 22 161 20 L161 20 Z M234 668 C232 666 231 662 236 658 C253 641 276 605 290 576 L183 541 C179 540 177 538 178 534 L184 512 C185 508 188 506 193 508 L300 544 C322 484 329 429 331 398 C318 409 298 416 274 416 C131 416 56 239 56 124 C56 0 137 -10 168 -10 C317 -10 399 207 399 340 C399 408 388 488 351 562 L422 586 C426 587 428 591 426 595 L419 614 C418 617 415 619 410 617 L336 592 C319 626 275 672 260 682 C257 684 254 685 251 683 L234 668 Z " />
<glyph glyph-name="ntilde" unicode="&#xf1;" horiz-adv-x="519" d="M111 0 C121 0 123 2 125 6 L150 73 C176 143 192 169 210 198 C254 269 353 361 392 361 C410 361 417 352 417 338 C417 316 381 233 367 194 C336 108 300 29 300 10 C300 -5 311 -10 324 -10 C391 -10 472 61 484 77 C488 82 487 84 483 88 L476 96 C473 100 469 101 465 98 C452 84 408 47 393 47 C385 47 381 54 381 60 C381 76 405 132 432 198 C465 279 488 331 488 375 C488 401 468 416 438 416 C349 416 240 283 210 235 L206 237 C214 260 257 355 257 386 C257 399 248 416 225 416 C153 416 79 333 64 315 C61 311 62 309 66 305 L75 296 C79 292 82 292 85 295 C102 314 150 362 169 362 C180 362 184 355 184 345 C184 328 156 256 132 194 L61 9 C59 2 61 0 72 0 L111 0 Z M272 477 C275 475 277 477 279 480 C290 499 314 518 331 518 C345 518 356 516 370 512 C389 507 406 502 427 502 C454 502 486 531 503 562 C510 573 511 577 507 579 L492 587 C489 589 486 587 484 583 C476 569 460 551 439 551 C416 551 404 554 393 557 C374 563 360 567 343 567 C309 567 275 532 260 495 C257 489 257 487 259 485 L272 477 Z " />
<glyph glyph-name="ograve" unicode="&#xf2;" horiz-adv-x="397" d="M155 -10 C300 -10 387 189 387 299 C387 367 347 416 280 416 C147 416 52 245 52 119 C52 43 100 -10 155 -10 L155 -10 Z M140 38 C116 38 94 57 94 89 C94 136 118 197 152 251 C202 332 255 370 297 370 C330 370 348 345 347 314 C347 248 244 38 140 38 L140 38 Z M326 475 C329 478 329 480 326 483 L242 594 C231 608 224 618 207 618 C180 618 163 579 190 558 L310 467 C313 464 317 464 319 467 L326 475 Z " />
<glyph glyph-name="oacute" unicode="&#xf3;" horiz-adv-x="397" d="M155 -10 C300 -10 387 189 387 299 C387 367 347 416 280 416 C147 416 52 245 52 119 C52 43 100 -10 155 -10 L155 -10 Z M140 38 C116 38 94 57 94 89 C94 136 118 197 152 251 C202 332 255 370 297 370 C330 370 348 345 347 314 C347 248 244 38 140 38 L140 38 Z M270 467 C271 465 274 464 278 466 L429 537 C471 557 455 603 428 603 C414 603 404 598 393 588 L267 485 C264 482 261 479 263 477 L270 467 Z " />
<glyph glyph-name="ocircumflex" unicode="&#xf4;" horiz-adv-x="397" d="M155 -10 C300 -10 387 189 387 299 C387 367 347 416 280 416 C147 416 52 245 52 119 C52 43 100 -10 155 -10 L155 -10 Z M140 38 C116 38 94 57 94 89 C94 136 118 197 152 251 C202 332 255 370 297 370 C330 370 348 345 347 314 C347 248 244 38 140 38 L140 38 Z M366 472 C368 470 371 470 374 472 L382 476 C385 478 385 481 383 484 L338 614 C336 620 332 621 328 618 L203 490 C200 487 198 485 200 483 L206 474 C208 471 211 472 213 473 L313 538 L366 472 Z " />
<glyph glyph-name="otilde" unicode="&#xf5;" horiz-adv-x="397" d="M155 -10 C300 -10 387 189 387 299 C387 367 347 416 280 416 C147 416 52 245 52 119 C52 43 100 -10 155 -10 L155 -10 Z M140 38 C116 38 94 57 94 89 C94 136 118 197 152 251 C202 332 255 370 297 370 C330 370 348 345 347 314 C347 248 244 38 140 38 L140 38 Z M181 477 C184 475 186 477 188 480 C199 499 223 518 240 518 C254 518 265 516 279 512 C298 507 315 502 336 502 C363 502 395 531 412 562 C419 573 420 577 416 579 L401 587 C398 589 395 587 393 583 C385 569 369 551 348 551 C325 551 313 554 302 557 C283 563 269 567 252 567 C218 567 184 532 169 495 C166 489 166 487 168 485 L181 477 Z " />
<glyph glyph-name="odieresis" unicode="&#xf6;" horiz-adv-x="397" d="M155 -10 C300 -10 387 189 387 299 C387 367 347 416 280 416 C147 416 52 245 52 119 C52 43 100 -10 155 -10 L155 -10 Z M140 38 C116 38 94 57 94 89 C94 136 118 197 152 251 C202 332 255 370 297 370 C330 370 348 345 347 314 C347 248 244 38 140 38 L140 38 Z M244 488 C267 488 285 503 285 528 C285 555 266 570 244 570 C207 570 198 544 198 531 C198 496 226 488 244 488 L244 488 Z M380 488 C403 488 421 503 421 528 C421 555 402 570 380 570 C343 570 334 544 334 531 C334 496 362 488 380 488 L380 488 Z " />
<glyph glyph-name="divide" unicode="&#xf7;" horiz-adv-x="500" d="M72 267 L72 213 L460 213 L460 267 L72 267 Z M267 344 C298 344 322 367 322 396 C322 426 298 448 267 448 C235 448 211 426 211 396 C211 367 235 344 267 344 L267 344 Z M267 32 C298 32 322 54 322 83 C322 112 298 136 267 136 C235 136 211 112 211 83 C211 54 235 32 267 32 L267 32 Z " />
<glyph glyph-name="oslash" unicode="&#xf8;" horiz-adv-x="397" d="M157 -10 C301 -10 387 189 387 299 C387 319 382 336 379 348 L426 400 C428 402 429 406 426 408 L406 424 C403 427 400 425 397 422 L361 380 C345 401 318 416 282 416 C148 416 52 248 52 119 C52 95 59 72 65 54 L20 9 C17 6 17 3 18 1 L36 -18 C38 -20 41 -20 43 -18 L84 25 C101 4 124 -10 157 -10 L157 -10 Z M345 320 L347 318 C343 236 241 38 142 38 C128 38 116 42 108 52 L345 320 Z M94 84 C91 114 110 185 151 250 C206 337 258 370 299 370 C317 370 330 362 336 353 L94 84 Z " />
<glyph glyph-name="ugrave" unicode="&#xf9;" horiz-adv-x="484" d="M434 406 C427 406 422 405 420 399 L385 303 C374 273 358 246 339 218 C310 176 204 45 151 45 C141 45 134 51 134 62 C134 84 160 148 187 207 C228 296 252 355 252 380 C252 396 243 416 223 416 C159 416 76 329 69 320 C65 316 65 313 68 311 L77 302 C80 299 83 299 86 302 C96 314 146 359 164 359 C173 359 180 354 180 345 C180 327 157 280 131 218 C92 125 61 63 60 31 C61 7 77 -10 97 -10 C196 -10 302 126 344 187 L350 184 C337 150 286 25 286 13 C286 1 291 -10 305 -10 C374 -10 467 86 470 90 C473 94 473 96 470 99 L460 109 C457 113 453 112 451 109 C443 97 388 47 373 47 C366 50 365 50 365 59 C365 65 378 111 407 189 L484 397 C486 403 484 406 475 406 L434 406 Z M370 475 C373 478 373 480 370 483 L286 594 C275 608 268 618 251 618 C224 618 207 579 234 558 L354 467 C357 464 361 464 363 467 L370 475 Z " />
<glyph glyph-name="uacute" unicode="&#xfa;" horiz-adv-x="484" d="M434 406 C427 406 422 405 420 399 L385 303 C374 273 358 246 339 218 C310 176 204 45 151 45 C141 45 134 51 134 62 C134 84 160 148 187 207 C228 296 252 355 252 380 C252 396 243 416 223 416 C159 416 76 329 69 320 C65 316 65 313 68 311 L77 302 C80 299 83 299 86 302 C96 314 146 359 164 359 C173 359 180 354 180 345 C180 327 157 280 131 218 C92 125 61 63 60 31 C61 7 77 -10 97 -10 C196 -10 302 126 344 187 L350 184 C337 150 286 25 286 13 C286 1 291 -10 305 -10 C374 -10 467 86 470 90 C473 94 473 96 470 99 L460 109 C457 113 453 112 451 109 C443 97 388 47 373 47 C366 50 365 50 365 59 C365 65 378 111 407 189 L484 397 C486 403 484 406 475 406 L434 406 Z M334 467 C335 465 338 464 342 466 L493 537 C535 557 519 603 492 603 C478 603 468 598 457 588 L331 485 C328 482 325 479 327 477 L334 467 Z " />
<glyph glyph-name="ucircumflex" unicode="&#xfb;" horiz-adv-x="484" d="M434 406 C427 406 422 405 420 399 L385 303 C374 273 358 246 339 218 C310 176 204 45 151 45 C141 45 134 51 134 62 C134 84 160 148 187 207 C228 296 252 355 252 380 C252 396 243 416 223 416 C159 416 76 329 69 320 C65 316 65 313 68 311 L77 302 C80 299 83 299 86 302 C96 314 146 359 164 359 C173 359 180 354 180 345 C180 327 157 280 131 218 C92 125 61 63 60 31 C61 7 77 -10 97 -10 C196 -10 302 126 344 187 L350 184 C337 150 286 25 286 13 C286 1 291 -10 305 -10 C374 -10 467 86 470 90 C473 94 473 96 470 99 L460 109 C457 113 453 112 451 109 C443 97 388 47 373 47 C366 50 365 50 365 59 C365 65 378 111 407 189 L484 397 C486 403 484 406 475 406 L434 406 Z M420 472 C422 470 425 470 428 472 L436 476 C439 478 439 481 437 484 L392 614 C390 620 386 621 382 618 L257 490 C254 487 252 485 254 483 L260 474 C262 471 265 472 267 473 L367 538 L420 472 Z " />
<glyph glyph-name="udieresis" unicode="&#xfc;" horiz-adv-x="484" d="M434 406 C427 406 422 405 420 399 L385 303 C374 273 358 246 339 218 C310 176 204 45 151 45 C141 45 134 51 134 62 C134 84 160 148 187 207 C228 296 252 355 252 380 C252 396 243 416 223 416 C159 416 76 329 69 320 C65 316 65 313 68 311 L77 302 C80 299 83 299 86 302 C96 314 146 359 164 359 C173 359 180 354 180 345 C180 327 157 280 131 218 C92 125 61 63 60 31 C61 7 77 -10 97 -10 C196 -10 302 126 344 187 L350 184 C337 150 286 25 286 13 C286 1 291 -10 305 -10 C374 -10 467 86 470 90 C473 94 473 96 470 99 L460 109 C457 113 453 112 451 109 C443 97 388 47 373 47 C366 50 365 50 365 59 C365 65 378 111 407 189 L484 397 C486 403 484 406 475 406 L434 406 Z M288 488 C311 488 329 503 329 528 C329 555 310 570 288 570 C251 570 242 544 242 531 C242 496 270 488 288 488 L288 488 Z M424 488 C447 488 465 503 465 528 C465 555 446 570 424 570 C387 570 378 544 378 531 C378 496 406 488 424 488 L424 488 Z " />
<glyph glyph-name="yacute" unicode="&#xfd;" horiz-adv-x="409" d="M59 266 C62 265 66 265 68 269 C76 291 108 350 126 350 C134 350 139 341 143 322 C154 270 173 -2 175 -25 C176 -40 175 -62 167 -81 C151 -117 112 -175 57 -216 C37 -231 20 -237 10 -237 C2 -237 -8 -231 -15 -225 C-26 -216 -35 -208 -52 -209 C-70 -210 -92 -225 -92 -250 C-92 -273 -75 -297 -36 -297 C23 -297 89 -234 116 -206 C203 -121 308 58 352 154 C381 217 419 301 419 366 C419 391 406 416 379 416 C347 416 338 396 338 380 C338 367 345 353 349 344 C352 336 354 318 354 307 C354 264 344 237 339 220 C325 172 265 53 237 8 L233 7 C231 72 224 189 214 303 C206 391 195 416 164 416 C103 416 50 293 44 281 C42 276 43 273 45 272 L59 266 Z M286 467 C287 465 290 464 294 466 L445 537 C487 557 471 603 444 603 C430 603 420 598 409 588 L283 485 C280 482 277 479 279 477 L286 467 Z " />
<glyph glyph-name="thorn" unicode="&#xfe;" horiz-adv-x="461" d="M211 399 C133 370 84 324 48 282 C45 279 46 276 49 273 L59 263 C61 261 65 260 68 264 C90 290 146 340 194 354 L-20 -185 C-43 -243 -59 -266 -98 -266 L-121 -266 C-126 -266 -128 -269 -130 -276 L-135 -294 C-136 -298 -134 -300 -128 -300 C-117 -300 -90 -297 -21 -297 C43 -297 73 -300 84 -300 C92 -300 94 -297 96 -294 L103 -274 C104 -270 102 -266 97 -266 L69 -266 C27 -266 19 -250 39 -198 L117 0 C200 5 285 40 355 99 C417 152 452 222 452 290 C452 360 407 416 329 416 C322 416 313 416 303 415 C294 415 286 414 280 413 L390 673 C391 676 392 679 392 681 C392 683 391 685 389 685 C387 685 384 685 382 684 L325 662 C318 659 314 656 311 648 L211 399 Z M265 372 C272 373 282 375 295 375 C338 375 380 345 380 272 C380 137 248 40 130 30 L265 372 Z " />
<glyph glyph-name="ydieresis" unicode="&#xff;" horiz-adv-x="409" d="M59 266 C62 265 66 265 68 269 C76 291 108 350 126 350 C134 350 139 341 143 322 C154 270 173 -2 175 -25 C176 -40 175 -62 167 -81 C151 -117 112 -175 57 -216 C37 -231 20 -237 10 -237 C2 -237 -8 -231 -15 -225 C-26 -216 -35 -208 -52 -209 C-70 -210 -92 -225 -92 -250 C-92 -273 -75 -297 -36 -297 C23 -297 89 -234 116 -206 C203 -121 308 58 352 154 C381 217 419 301 419 366 C419 391 406 416 379 416 C347 416 338 396 338 380 C338 367 345 353 349 344 C352 336 354 318 354 307 C354 264 344 237 339 220 C325 172 265 53 237 8 L233 7 C231 72 224 189 214 303 C206 391 195 416 164 416 C103 416 50 293 44 281 C42 276 43 273 45 272 L59 266 Z M220 488 C243 488 261 503 261 528 C261 555 242 570 220 570 C183 570 174 544 174 531 C174 496 202 488 220 488 L220 488 Z M356 488 C379 488 397 503 397 528 C397 555 378 570 356 570 C319 570 310 544 310 531 C310 496 338 488 356 488 L356 488 Z " />
<glyph glyph-name="dotlessi" unicode="&#x131;" horiz-adv-x="287" d="M92 -10 C175 -10 255 86 261 94 C264 99 263 101 259 106 L251 113 C246 118 242 118 240 115 C235 106 181 49 160 45 C152 47 149 53 149 62 C149 69 154 91 167 128 L225 280 C243 328 259 373 259 391 C259 408 247 416 235 416 C171 419 69 299 65 293 C62 289 64 287 68 284 L76 275 C79 272 83 272 87 276 C103 292 150 346 167 346 C175 346 181 342 181 333 C181 321 173 301 163 274 L134 196 C93 84 75 38 75 15 C75 -1 82 -9 92 -10 L92 -10 Z " />
<glyph glyph-name="Lslash" unicode="&#x141;" horiz-adv-x="625" d="M121 108 C101 45 83 34 39 34 L14 34 C8 34 6 31 5 26 L1 7 C0 -1 3 -3 9 -3 C20 -3 144 0 256 0 C342 0 468 -3 490 -3 C503 -3 516 -6 527 -9 C538 -12 547 -15 553 -15 C558 -15 563 -9 565 1 C569 27 603 147 607 158 C609 163 607 165 601 167 L591 171 C585 174 582 172 581 169 C577 161 521 72 501 54 C493 47 484 41 466 38 C447 35 324 34 259 34 L219 34 C197 34 187 41 194 63 L278 337 L412 375 C416 377 418 381 417 386 L410 407 C408 412 404 412 400 411 L292 381 L350 567 C368 625 384 636 422 636 L467 636 C474 636 477 638 479 644 L484 665 C485 670 482 673 476 673 C465 673 419 670 334 670 C250 670 207 673 196 673 C188 673 185 672 184 667 L177 644 C176 639 178 636 185 636 L222 636 C271 636 279 618 265 574 L197 354 L79 320 C75 319 73 317 74 313 L82 288 C83 284 85 282 91 284 L184 310 L121 108 Z " />
<glyph glyph-name="lslash" unicode="&#x142;" horiz-adv-x="264" d="M223 351 L319 373 C325 374 328 376 327 381 L323 405 C322 409 319 410 315 409 L239 391 L346 660 C350 669 346 675 337 675 L213 675 C207 675 205 674 203 668 L197 650 C195 645 196 641 203 641 L232 641 C261 641 261 616 247 578 L170 374 L56 347 C52 346 50 344 51 340 L55 319 C56 312 60 312 65 313 L154 334 L72 127 C60 97 35 34 35 19 C35 -4 44 -10 57 -10 C121 -10 214 75 219 83 C223 87 222 91 220 93 L209 105 C206 108 204 109 200 105 C188 92 142 53 126 53 C105 53 129 108 138 131 L223 351 Z " />
<glyph glyph-name="OE" unicode="&#x152;" horiz-adv-x="1064" d="M689 341 L749 341 C828 341 868 339 861 256 C860 250 860 249 865 248 L881 246 C885 245 887 246 888 252 L942 451 C943 456 940 458 936 459 L921 462 C917 463 915 461 914 457 C886 375 853 373 795 373 L699 373 L785 636 L957 636 C964 636 969 634 973 628 L1067 507 C1071 502 1072 502 1077 504 L1088 508 C1094 511 1095 512 1094 517 L1062 654 C1058 670 1056 673 1041 673 C1030 673 1007 672 970 672 C933 671 882 670 814 670 L727 670 C697 670 668 674 637 678 C605 681 572 685 531 685 C403 685 299 628 235 569 C172 511 92 406 92 256 C92 166 124 97 180 45 C221 6 288 -15 345 -15 C374 -15 401 -11 429 -7 C456 -4 483 0 512 0 L665 0 C733 0 801 -1 854 -1 C907 -2 945 -3 953 -3 C965 -3 970 -1 975 14 L1026 159 C1029 168 1027 170 1023 173 L1013 179 C1008 183 1004 181 1001 177 L921 76 C893 41 879 34 841 34 L592 34 L689 341 Z M332 24 C260 24 180 82 180 223 C180 326 230 460 318 543 C381 601 453 646 551 646 C631 646 691 622 677 576 L541 142 C511 47 416 24 332 24 L332 24 Z " />
<glyph glyph-name="oe" unicode="&#x153;" horiz-adv-x="585" d="M523 109 C519 113 516 111 514 108 C493 74 449 37 400 37 C380 37 347 55 347 100 C347 147 355 180 360 192 C398 195 452 206 506 233 C562 262 599 312 599 363 C599 387 581 416 542 416 C486 416 417 371 376 315 L374 315 C372 382 327 416 274 416 C151 416 52 252 52 124 C52 -1 141 -10 158 -10 C191 -10 253 17 284 65 C297 16 331 -10 373 -10 C450 -10 510 56 535 91 C539 94 539 97 534 100 L523 109 Z M368 221 C376 257 439 372 503 372 C525 372 535 354 535 334 C535 260 404 218 368 221 L368 221 Z M94 92 C94 152 128 215 152 252 C205 336 259 369 294 369 C320 369 340 350 340 318 C340 230 258 38 140 38 C114 38 94 56 94 92 L94 92 Z " />
<glyph glyph-name="Scaron" unicode="&#x160;" horiz-adv-x="504" d="M57 33 C55 26 56 25 61 23 L74 18 C80 15 82 17 84 21 C91 36 99 51 105 59 C111 68 120 69 128 61 C168 21 211 -15 275 -15 C363 -15 456 46 456 178 C456 283 393 339 347 385 C301 432 257 462 257 537 C257 591 294 646 356 646 C460 646 473 519 467 479 C466 473 470 471 476 470 L490 469 C495 469 497 471 498 475 L534 665 C535 669 533 671 527 672 L514 673 C507 674 505 673 504 670 C500 649 496 635 488 635 C482 635 479 637 474 640 C458 651 411 685 356 685 C243 685 186 581 186 509 C186 415 235 364 297 296 C341 248 390 209 390 142 C390 75 338 24 274 24 C212 24 123 92 159 241 C161 248 157 250 152 252 L142 255 C136 256 133 256 131 251 L57 33 Z M404 812 L335 872 C331 875 328 877 324 874 L314 865 C311 863 310 860 312 857 L383 737 C386 732 392 732 396 735 L535 855 C537 857 539 859 537 861 L530 872 C528 875 526 875 523 874 L404 812 Z " />
<glyph glyph-name="scaron" unicode="&#x161;" horiz-adv-x="294" d="M106 -10 C175 -10 238 37 238 115 C238 168 206 217 200 229 C194 243 164 285 164 322 C164 358 193 385 213 385 C233 385 234 369 239 357 C246 340 261 333 273 333 C288 333 304 347 304 365 C304 404 263 416 233 416 C162 416 107 352 107 294 C106 248 129 213 136 196 C149 164 179 123 179 80 C179 45 152 19 123 19 C98 19 93 30 87 47 C81 64 68 79 46 79 C25 79 12 60 12 46 C12 13 48 -10 106 -10 L106 -10 Z M248 552 L195 618 C193 620 190 620 187 618 L179 614 C176 612 176 609 178 606 L223 476 C225 470 229 469 233 472 L358 600 C361 603 363 605 361 607 L355 616 C353 619 350 618 348 617 L248 552 Z " />
<glyph glyph-name="Ydieresis" unicode="&#x178;" horiz-adv-x="540" d="M217 87 C210 57 199 34 152 34 L123 34 C116 34 114 31 114 26 L110 5 C109 -1 112 -3 118 -3 C129 -3 160 0 243 0 C317 0 349 -3 364 -3 C372 -3 374 0 375 5 L378 26 C379 31 377 34 371 34 L341 34 C308 34 291 39 302 90 L327 203 C337 248 347 261 369 292 C383 312 566 569 580 587 C606 620 624 636 658 636 L677 636 C682 636 684 638 685 646 L688 665 C689 670 687 673 678 673 C665 673 635 670 580 670 C523 670 484 673 470 673 C461 673 459 672 458 665 L456 646 C455 640 457 636 463 636 L483 636 C523 636 533 620 520 582 C509 551 358 336 336 306 C329 297 325 297 321 310 L228 588 C220 611 222 636 260 636 L286 636 C292 636 294 638 295 644 L297 665 C298 671 295 673 288 673 C275 673 241 670 165 670 C99 670 73 673 60 673 C53 673 51 672 50 665 L46 644 C45 638 47 636 53 636 L76 636 C111 636 129 621 137 598 L245 289 C248 280 253 249 250 235 L217 87 Z M326 748 C351 748 371 765 371 792 C371 821 350 837 326 837 C285 837 276 809 276 795 C276 756 306 748 326 748 L326 748 Z M504 748 C529 748 549 765 549 792 C549 821 528 837 504 837 C463 837 454 809 454 795 C454 756 484 748 504 748 L504 748 Z " />
<glyph glyph-name="Zcaron" unicode="&#x17d;" horiz-adv-x="677" d="M389 0 C418 0 560 -3 578 -8 C583 -10 591 -12 597 -12 C601 -12 604 -11 606 -6 L653 125 C655 131 653 134 650 135 L636 142 C632 144 629 144 626 139 C595 87 570 61 516 51 C447 38 367 37 183 37 L706 648 C712 655 715 670 698 670 L374 670 C346 670 237 675 230 679 C223 683 218 685 213 685 C208 685 204 679 203 675 L165 561 C164 557 164 555 169 553 L183 548 C186 547 189 548 192 553 C205 582 239 622 287 627 C323 631 448 634 592 634 L65 22 C60 16 55 0 73 0 L389 0 Z M480 812 L411 872 C407 875 404 877 400 874 L390 865 C387 863 386 860 388 857 L459 737 C462 732 468 732 472 735 L611 855 C613 857 615 859 613 861 L606 872 C604 875 602 875 599 874 L480 812 Z " />
<glyph glyph-name="zcaron" unicode="&#x17e;" horiz-adv-x="477" d="M408 337 C424 347 470 380 470 415 C470 425 464 439 451 439 C423 439 406 411 400 393 C394 374 384 357 363 357 C341 357 309 370 288 380 C239 403 214 416 171 416 C99 416 73 365 73 335 C73 302 97 286 117 286 C137 286 150 303 150 321 C150 337 144 345 137 350 C128 355 123 360 123 368 C123 375 131 386 153 386 C183 386 216 351 232 340 C249 329 277 308 322 311 L326 307 L117 99 C93 86 37 48 37 7 C37 -6 46 -15 58 -15 C81 -15 96 -1 101 14 C109 39 116 50 141 50 C167 50 203 24 217 18 C253 1 299 -20 343 -20 C426 -20 465 44 465 88 C465 117 451 137 424 137 C408 137 391 124 391 101 C391 94 393 85 402 69 C408 57 408 48 408 41 C408 28 393 12 372 12 C345 12 324 29 282 57 C235 88 208 101 178 101 L175 106 L408 337 Z M309 552 L256 618 C254 620 251 620 248 618 L240 614 C237 612 237 609 239 606 L284 476 C286 470 290 469 294 472 L419 600 C422 603 424 605 422 607 L416 616 C414 619 411 618 409 617 L309 552 Z " />
<glyph glyph-name="florin" unicode="&#x192;" horiz-adv-x="500" d="M396 318 C401 318 406 319 408 324 L418 349 C420 353 416 355 410 355 L309 355 C356 539 396 608 460 608 C493 608 502 593 505 584 C511 568 518 546 545 546 C572 546 592 567 592 583 C592 613 562 645 499 645 C434 645 384 616 346 575 C284 509 262 439 234 355 L162 355 C156 355 154 354 152 349 L142 327 C140 323 142 318 148 318 L223 318 L169 132 C123 -28 110 -92 50 -92 C31 -92 22 -85 17 -74 C8 -54 -5 -34 -31 -34 C-51 -34 -69 -56 -69 -72 C-69 -102 -40 -129 15 -129 C116 -129 187 -49 247 150 L298 318 L396 318 Z " />
<glyph glyph-name="circumflex" unicode="&#x2c6;" horiz-adv-x="255" d="M275 472 C277 470 280 470 283 472 L291 476 C294 478 294 481 292 484 L247 614 C245 620 241 621 237 618 L112 490 C109 487 107 485 109 483 L115 474 C117 471 120 472 122 473 L222 538 L275 472 Z " />
<glyph glyph-name="caron" unicode="&#x2c7;" horiz-adv-x="255" d="M208 552 L155 618 C153 620 150 620 147 618 L139 614 C136 612 136 609 138 606 L183 476 C185 470 189 469 193 472 L318 600 C321 603 323 605 321 607 L315 616 C313 619 310 618 308 617 L208 552 Z " />
<glyph glyph-name="breve" unicode="&#x2d8;" horiz-adv-x="275" d="M207 476 C271 476 316 523 339 567 C343 575 344 578 340 580 L329 585 C325 588 323 585 317 578 C301 558 270 529 223 529 C194 529 159 545 142 576 C139 582 137 586 133 585 L123 582 C119 581 118 578 119 570 C124 508 166 476 207 476 L207 476 Z " />
<glyph glyph-name="dotaccent" unicode="&#x2d9;" horiz-adv-x="150" d="M157 478 C182 478 202 495 202 521 C202 551 181 568 157 568 C117 568 107 539 107 525 C107 487 137 478 157 478 L157 478 Z " />
<glyph glyph-name="ring" unicode="&#x2da;" horiz-adv-x="255" d="M213 480 C270 480 312 509 312 553 C312 604 272 628 220 628 C168 628 118 600 118 549 C118 507 159 480 213 480 L213 480 Z M217 503 C192 503 166 520 166 552 C166 588 192 604 215 604 C234 604 264 592 264 554 C264 520 240 503 217 503 L217 503 Z " />
<glyph glyph-name="ogonek" unicode="&#x2db;" horiz-adv-x="215" d="M49 0 C20 -17 -62 -81 -62 -147 C-62 -188 -24 -210 22 -210 C64 -210 75 -199 75 -190 C75 -184 72 -178 67 -178 C61 -178 53 -180 44 -180 C29 -180 -5 -169 -5 -126 C-5 -75 44 -29 79 0 L49 0 Z " />
<glyph glyph-name="tilde" unicode="&#x2dc;" horiz-adv-x="285" d="M115 477 C118 475 120 477 122 480 C133 499 157 518 174 518 C188 518 199 516 213 512 C232 507 249 502 270 502 C297 502 329 531 346 562 C353 573 354 577 350 579 L335 587 C332 589 329 587 327 583 C319 569 303 551 282 551 C259 551 247 554 236 557 C217 563 203 567 186 567 C152 567 118 532 103 495 C100 489 100 487 102 485 L115 477 Z " />
<glyph glyph-name="hungarumlaut" unicode="&#x2dd;" horiz-adv-x="305" d="M211 469 C214 466 217 467 220 469 L356 549 C389 568 370 606 346 606 C334 606 322 596 314 588 L208 487 C204 484 201 481 204 478 L211 469 Z M103 468 C106 465 109 467 112 470 L238 563 C255 575 254 615 223 615 C210 615 199 604 192 596 L97 486 C93 482 91 479 94 476 L103 468 Z " />
<glyph glyph-name="endash" unicode="&#x2013;" horiz-adv-x="500" d="M525 217 L525 271 L25 271 L25 217 L525 217 Z " />
<glyph glyph-name="emdash" unicode="&#x2014;" horiz-adv-x="1000" d="M1025 271 L25 271 L25 217 L1025 217 L1025 271 Z " />
<glyph glyph-name="quoteleft" unicode="&#x2018;" horiz-adv-x="180" d="M273 685 C256 685 144 652 144 546 C144 514 167 458 209 458 C234 458 249 478 249 500 C249 521 228 536 223 540 C209 556 202 565 202 586 C202 628 252 658 274 664 C281 666 285 668 284 677 C282 687 278 685 273 685 L273 685 Z " />
<glyph glyph-name="quoteright" unicode="&#x2019;" horiz-adv-x="180" d="M113 458 C130 458 242 491 242 597 C242 629 219 685 177 685 C152 685 137 665 137 643 C137 622 158 607 163 603 C177 587 184 578 184 557 C184 515 134 485 112 479 C105 477 101 475 102 466 C104 456 108 458 113 458 L113 458 Z " />
<glyph glyph-name="quotesinglbase" unicode="&#x201a;" horiz-adv-x="180" d="M13 -107 C30 -107 142 -74 142 32 C142 64 119 120 77 120 C52 120 37 100 37 78 C37 57 58 42 63 38 C77 22 84 13 84 -8 C84 -50 34 -80 12 -86 C5 -88 1 -90 2 -99 C4 -109 8 -107 13 -107 L13 -107 Z " />
<glyph glyph-name="quotedblleft" unicode="&#x201c;" horiz-adv-x="320" d="M273 685 C256 685 144 652 144 546 C144 514 167 458 209 458 C234 458 249 478 249 500 C249 521 228 536 223 540 C209 556 202 565 202 586 C202 628 252 658 274 664 C281 666 285 668 284 677 C282 687 278 685 273 685 L273 685 Z M413 685 C396 685 284 652 284 546 C284 514 307 458 349 458 C374 458 389 478 389 500 C389 521 368 536 363 540 C349 556 342 565 342 586 C342 628 392 658 414 664 C421 666 425 668 424 677 C422 687 418 685 413 685 L413 685 Z " />
<glyph glyph-name="quotedblright" unicode="&#x201d;" horiz-adv-x="320" d="M113 458 C130 458 242 491 242 597 C242 629 219 685 177 685 C152 685 137 665 137 643 C137 622 158 607 163 603 C177 587 184 578 184 557 C184 515 134 485 112 479 C105 477 101 475 102 466 C104 456 108 458 113 458 L113 458 Z M253 458 C270 458 382 491 382 597 C382 629 359 685 317 685 C292 685 277 665 277 643 C277 622 298 607 303 603 C317 587 324 578 324 557 C324 515 274 485 252 479 C245 477 241 475 242 466 C244 456 248 458 253 458 L253 458 Z " />
<glyph glyph-name="quotedblbase" unicode="&#x201e;" horiz-adv-x="320" d="M13 -107 C30 -107 142 -74 142 32 C142 64 119 120 77 120 C52 120 37 100 37 78 C37 57 58 42 63 38 C77 22 84 13 84 -8 C84 -50 34 -80 12 -86 C5 -88 1 -90 2 -99 C4 -109 8 -107 13 -107 L13 -107 Z M153 -107 C170 -107 282 -74 282 32 C282 64 259 120 217 120 C192 120 177 100 177 78 C177 57 198 42 203 38 C217 22 224 13 224 -8 C224 -50 174 -80 152 -86 C145 -88 141 -90 142 -99 C144 -109 148 -107 153 -107 L153 -107 Z " />
<glyph glyph-name="dagger" unicode="&#x2020;" horiz-adv-x="500" d="M381 685 C352 685 328 664 320 631 C311 597 309 492 290 415 C228 415 149 438 123 438 C92 438 72 414 72 393 C72 376 81 362 107 362 C129 362 223 389 283 389 C265 313 234 286 219 269 C226 224 179 -27 154 -128 C152 -136 152 -140 158 -140 L173 -140 C179 -140 181 -137 182 -131 C204 -41 295 224 325 274 C317 289 304 317 321 389 C383 389 466 362 492 362 C518 362 534 385 534 405 C534 421 524 437 500 437 C475 437 390 415 328 415 C349 492 416 621 416 649 C416 663 412 685 381 685 L381 685 Z " />
<glyph glyph-name="daggerdbl" unicode="&#x2021;" horiz-adv-x="500" d="M386 685 C359 685 331 665 323 631 C314 597 316 492 296 416 C234 416 156 437 135 437 C102 438 78 419 78 390 C78 376 85 363 111 363 C134 363 228 390 290 390 C279 341 260 300 235 269 C241 245 241 200 229 157 C167 157 85 182 62 182 C33 182 15 160 15 138 C15 122 26 108 46 108 C63 108 160 130 221 130 C201 53 135 -68 135 -103 C135 -125 144 -140 169 -140 C191 -140 219 -121 227 -88 C236 -51 238 53 257 130 C321 130 398 108 426 108 C454 108 475 125 475 154 C475 170 466 182 445 182 C418 182 326 157 266 157 C280 202 302 243 322 269 C314 302 315 341 327 390 C387 390 466 363 490 363 C516 363 540 386 540 408 C540 424 537 437 508 437 C491 437 395 416 333 416 C353 492 422 622 422 650 C422 668 418 685 386 685 L386 685 Z " />
<glyph glyph-name="bullet" unicode="&#x2022;" horiz-adv-x="354" d="M108 317 C108 255 161 218 213 218 C275 218 328 261 328 326 C328 392 285 430 219 430 C158 430 108 381 108 317 L108 317 Z " />
<glyph glyph-name="ellipsis" unicode="&#x2026;" horiz-adv-x="1000" d="M130 -10 C163 -10 186 18 186 44 C186 56 174 96 129 96 C93 96 77 64 77 44 C77 13 99 -10 130 -10 L130 -10 Z M798 -10 C831 -10 854 18 854 44 C854 56 842 96 797 96 C761 96 745 64 745 44 C745 13 767 -10 798 -10 L798 -10 Z M464 -10 C497 -10 520 18 520 44 C520 56 508 96 463 96 C427 96 411 64 411 44 C411 13 433 -10 464 -10 L464 -10 Z " />
<glyph glyph-name="perthousand" unicode="&#x2030;" horiz-adv-x="1030" d="M177 278 C157 278 131 303 131 352 C131 442 201 615 278 615 C305 615 328 593 328 555 C328 460 263 278 177 278 L177 278 Z M181 251 C292 251 383 405 383 536 C383 599 350 645 282 645 C166 645 76 490 76 372 C76 299 111 251 181 251 L181 251 Z M186 -12 C190 -15 192 -15 194 -15 C197 -15 199 -13 202 -8 L612 617 C614 620 615 622 615 624 C615 626 614 628 611 629 L589 643 C587 644 584 645 582 645 C580 645 578 644 576 641 L168 18 C165 13 164 9 164 6 C164 4 165 2 167 1 L186 -12 Z M504 -7 C615 -7 706 147 706 278 C706 341 673 387 605 387 C489 387 399 232 399 114 C399 41 434 -7 504 -7 L504 -7 Z M500 20 C480 20 454 45 454 94 C454 184 524 357 601 357 C628 357 651 335 651 297 C651 202 586 20 500 20 L500 20 Z M832 -7 C943 -7 1034 147 1034 278 C1034 341 1001 387 933 387 C817 387 727 232 727 114 C727 41 762 -7 832 -7 L832 -7 Z M828 20 C808 20 782 45 782 94 C782 184 852 357 929 357 C956 357 979 335 979 297 C979 202 914 20 828 20 L828 20 Z " />
<glyph glyph-name="guilsinglleft" unicode="&#x2039;" horiz-adv-x="230" d="M180 70 C182 67 185 66 187 66 C188 66 190 67 191 68 L203 79 C205 81 207 84 207 86 C207 88 205 89 202 94 L126 217 L231 339 C235 343 237 345 237 347 C237 349 235 352 233 354 L222 365 C220 367 219 368 217 368 C215 368 213 366 211 364 L56 219 C53 216 51 214 51 212 C51 210 53 208 55 206 L180 70 Z " />
<glyph glyph-name="guilsinglright" unicode="&#x203a;" horiz-adv-x="230" d="M87 364 C85 367 82 368 80 368 C79 368 77 367 76 366 L64 355 C62 353 60 350 60 348 C60 346 62 345 65 340 L141 217 L36 95 C32 91 30 89 30 87 C30 85 32 82 34 80 L45 69 C47 67 48 66 50 66 C52 66 54 68 56 70 L211 215 C214 218 216 220 216 222 C216 224 214 226 212 228 L87 364 Z " />
<glyph glyph-name="fraction" unicode="&#x2044;" horiz-adv-x="290" d="M-25 -12 C-21 -15 -19 -15 -17 -15 C-14 -15 -12 -13 -9 -8 L401 617 C403 620 404 622 404 624 C404 626 403 628 400 629 L378 643 C376 644 373 645 371 645 C369 645 367 644 365 641 L-43 18 C-46 13 -47 9 -47 6 C-47 4 -46 2 -44 1 L-25 -12 Z " />
<glyph glyph-name="Euro" unicode="&#x20ac;" horiz-adv-x="500" d="M269 -15 C145 -15 93 119 107 235 L44 235 C31 235 29 241 32 246 L39 261 C42 267 44 267 55 267 L111 267 C115 292 122 326 129 349 L73 349 C60 349 59 354 61 360 L68 375 C71 381 73 381 84 381 L141 381 C159 430 186 480 224 530 C282 606 349 645 418 645 C504 645 532 578 544 578 C553 578 557 584 563 605 C564 611 566 612 570 611 L581 608 C588 606 587 604 585 598 L544 447 C542 441 541 440 535 441 L523 443 C517 444 518 446 519 453 C530 512 510 605 422 605 C364 605 316 569 267 487 C245 450 232 415 220 381 L460 381 C466 381 470 379 468 375 L459 355 C457 350 454 349 446 349 L210 349 C203 324 196 289 192 267 L408 267 C414 267 418 265 416 261 L406 241 C404 236 401 235 393 235 L188 235 C187 229 186 218 186 213 C175 70 238 26 287 26 C351 26 417 52 454 148 C457 157 458 157 462 156 L476 151 C483 149 481 147 479 142 L428 -17 C426 -22 424 -23 421 -22 L405 -17 C403 -16 402 -14 404 -9 C405 -4 405 -3 406 4 C409 15 407 21 399 22 C383 23 339 -15 269 -15 L269 -15 Z " />
<glyph glyph-name="trademark" unicode="&#x2122;" horiz-adv-x="835" d="M301 644 C309 644 365 645 382 636 C396 627 404 599 406 590 C407 585 408 584 413 585 L421 586 C423 587 425 589 425 592 C426 614 433 674 434 679 C434 686 433 688 431 688 C429 688 429 687 426 686 L415 679 C405 675 399 674 387 673 C357 672 313 670 276 670 C237 670 206 672 175 673 C162 674 158 676 149 681 L143 686 C142 687 141 688 138 688 C137 688 134 686 131 679 C129 675 101 612 93 594 C91 592 91 591 93 591 L102 587 C106 585 109 586 110 591 C122 606 142 630 165 638 C190 645 237 644 243 644 L198 453 C188 410 180 378 176 365 C174 358 167 353 157 353 L130 353 C127 353 125 352 124 348 L120 330 C119 327 120 325 125 325 C131 325 178 327 199 327 C218 327 263 325 267 325 C271 325 273 327 273 330 L278 348 C279 352 277 353 274 353 L249 353 C237 353 236 360 237 372 C239 384 246 418 258 466 L301 644 Z M599 665 C598 676 593 676 583 675 C569 674 552 673 533 673 C517 673 477 675 473 675 C471 675 468 673 467 669 L463 652 C462 648 463 646 466 646 L480 646 C496 646 505 640 501 620 L483 542 C471 493 453 417 439 382 C432 365 417 353 401 353 L389 353 C386 353 385 350 384 347 L380 331 C380 325 380 327 384 325 C388 325 432 327 447 327 C467 327 501 326 507 326 C511 326 512 328 513 331 L517 347 C518 351 518 353 515 353 L502 353 C484 353 476 361 479 388 C485 424 499 476 507 507 L537 641 L542 641 L591 342 C591 336 593 333 599 333 C604 333 609 340 614 345 L811 639 L815 639 L779 491 C771 455 763 394 751 370 C747 361 740 353 725 353 L706 353 C702 353 700 351 699 347 L696 331 C695 328 696 326 699 326 C705 326 751 327 770 327 C790 327 832 326 838 326 C843 326 844 328 845 331 L848 348 C849 352 850 353 846 353 L823 353 C812 353 809 365 812 379 C821 413 829 458 839 498 C849 540 863 602 870 627 C873 638 877 646 896 646 L906 646 C909 646 910 648 912 653 L915 670 C916 673 915 675 913 675 C908 675 891 674 815 674 C806 674 800 673 796 666 L636 425 L599 665 Z " />
<glyph glyph-name="minus" unicode="&#x2212;" horiz-adv-x="500" d="M72 267 L72 213 L460 213 L460 267 L72 267 Z " />
<glyph glyph-name="fi" unicode="&#xfb01;" horiz-adv-x="505" d="M161 352 C139 294 108 207 63 76 C12 -73 -32 -259 -110 -259 C-133 -259 -143 -245 -144 -230 C-146 -214 -161 -194 -183 -193 C-205 -195 -223 -213 -223 -234 C-223 -264 -195 -297 -146 -297 C20 -297 81 -62 139 95 C179 203 207 293 232 352 L367 352 C394 352 409 347 399 320 L320 116 C306 81 283 24 283 11 C283 -1 293 -10 314 -10 C378 -10 483 107 493 123 C495 125 494 127 492 129 L479 140 C474 144 471 144 470 141 C459 125 392 53 377 53 C364 53 359 61 374 98 L483 371 C491 392 491 400 484 400 C473 400 454 389 422 389 L243 389 C272 477 318 584 364 624 C389 646 413 655 439 655 C466 655 473 649 480 642 C488 634 486 624 486 614 C486 597 495 572 530 572 C550 572 567 590 567 617 C567 632 544 685 462 685 C396 685 354 666 316 632 C250 574 211 480 173 389 L89 389 C84 389 82 388 80 379 L74 359 C73 354 75 352 80 352 L161 352 Z " />
<glyph glyph-name="fl" unicode="&#xfb02;" horiz-adv-x="507" d="M414 353 L302 78 C287 45 279 16 279 7 C279 -2 285 -10 299 -10 C361 -10 484 115 488 124 C490 129 490 132 486 135 L476 143 C472 146 468 146 466 143 C463 138 398 69 382 69 C374 69 371 73 371 80 C371 88 375 102 381 116 L550 533 C579 605 600 641 600 651 C600 657 594 662 588 665 C569 673 511 685 452 685 C386 685 340 663 301 623 C232 553 206 490 170 390 L85 390 C78 390 77 386 75 382 L67 361 C65 356 68 353 73 353 L157 353 L87 132 C51 19 7 -155 -56 -229 C-69 -244 -94 -257 -111 -257 C-124 -257 -132 -247 -139 -230 C-144 -216 -156 -198 -179 -198 C-201 -198 -219 -219 -219 -243 C-219 -260 -197 -297 -144 -297 C-98 -297 -57 -277 -15 -234 C70 -147 114 2 152 121 L227 353 L414 353 Z M237 390 C294 546 318 596 352 624 C375 643 400 651 431 651 C495 651 508 619 508 605 C508 594 507 581 498 560 L429 390 L237 390 Z " />
</font>
</svg>
