<svg id="a25ecdff-a588-4cda-b692-40b515f40f94" data-name="Layer 3" xmlns="http://www.w3.org/2000/svg" viewBox="0 0 302 82.4"><defs><style>.\38 a43d83c-d35e-433c-95c5-8d4a6d31d39c{fill:#fff;}</style></defs><title>Munari-logo-bianco</title><g id="1b984c50-0ec2-49cc-94a8-e6ff510d8c89" data-name="&lt;Gruppo&gt;"><g id="f4087094-9b19-416f-bd9d-c5d0e47ae754" data-name="&lt;Gruppo&gt;"><path class="8a43d83c-d35e-433c-95c5-8d4a6d31d39c" d="M55.3,52.5v-20L46.2,45.8H46.1L37,32.5v20H35.3v-23H37l9.2,13.6,9.2-13.6H57v23H55.3Z"/></g><g id="f4f54210-7d8b-4473-9b3c-ea3abd99cf24" data-name="&lt;Gruppo&gt;"><path class="8a43d83c-d35e-433c-95c5-8d4a6d31d39c" d="M92.6,52.9c-5.5,0-9.4-3.5-9.4-9.9V29.5h1.7V42.8c0,5.4,2.9,8.5,7.8,8.5s7.7-2.8,7.7-8.4V29.5h1.7V42.8C102.1,49.4,98.2,52.9,92.6,52.9Z"/></g><g id="5fb5c795-9250-44f6-b15b-efc180b91362" data-name="&lt;Gruppo&gt;"><path class="8a43d83c-d35e-433c-95c5-8d4a6d31d39c" d="M146.1,52.5L129.9,32.1V52.5h-1.6v-23h1.6l15.9,20v-20h1.6v23h-1.3Z"/></g><g id="61612c0c-f10c-4073-b37e-a668b9f50760" data-name="&lt;Gruppo&gt;"><path class="8a43d83c-d35e-433c-95c5-8d4a6d31d39c" d="M195.5,52.5h-4.3L188.9,47H178l-2.4,5.6h-4.1l10.1-23.2h3.7ZM183.4,34.2l-3.9,9.2h7.9Z"/></g><g id="bef3ace6-75cc-4756-b242-c46b17f66a57" data-name="&lt;Gruppo&gt;"><path class="8a43d83c-d35e-433c-95c5-8d4a6d31d39c" d="M233.9,52.5l-5.7-8h-5.1v8h-4v-23h10.3c5.3,0,8.5,2.8,8.5,7.3a6.9,6.9,0,0,1-5.5,7l6.2,8.7h-4.8Zm-4.8-19.3h-5.9v7.7h5.9c2.9,0,4.7-1.5,4.7-3.9S232.1,33.2,229.1,33.2Z"/></g><g id="15c8eafb-6122-4dcd-a3a0-4841baea6da0" data-name="&lt;Gruppo&gt;"><path class="8a43d83c-d35e-433c-95c5-8d4a6d31d39c" d="M266.9,29.5v23h-4v-23h4Z"/></g></g></svg>