<svg id="8c0c00fa-5089-4de9-acf6-6f9a92080e30" data-name="Layer 3" xmlns="http://www.w3.org/2000/svg" viewBox="0 0 302 82.4"><title>Munari-logo</title><g id="36836805-3e15-4751-aefe-654195cd3bc1" data-name="&lt;Gruppo&gt;"><g id="628fdb7f-443b-43d1-a1bb-bddbc677b420" data-name="&lt;Gruppo&gt;"><path d="M55.3,52.5v-20L46.2,45.8H46.1L37,32.5v20H35.3v-23H37l9.2,13.6,9.2-13.6H57v23H55.3Z"/></g><g id="42bd58f3-b7b1-4ba8-adcb-ea468623a376" data-name="&lt;Gruppo&gt;"><path d="M92.6,52.9c-5.5,0-9.4-3.5-9.4-9.9V29.5h1.7V42.8c0,5.4,2.9,8.5,7.8,8.5s7.7-2.8,7.7-8.4V29.5h1.7V42.8C102.1,49.4,98.2,52.9,92.6,52.9Z"/></g><g id="805e0525-41cd-4066-9e6b-4d3c70d9c4df" data-name="&lt;Gruppo&gt;"><path d="M146.1,52.5L129.9,32.1V52.5h-1.6v-23h1.6l15.9,20v-20h1.6v23h-1.3Z"/></g><g id="26e2c0d8-ed7c-4ded-952b-cf9737145ab1" data-name="&lt;Gruppo&gt;"><path d="M195.5,52.5h-4.3L188.9,47H178l-2.4,5.6h-4.1l10.1-23.2h3.7ZM183.4,34.2l-3.9,9.2h7.9Z"/></g><g id="086a6d0d-caab-4d61-8524-d26ffb1287d7" data-name="&lt;Gruppo&gt;"><path d="M233.9,52.5l-5.7-8h-5.1v8h-4v-23h10.3c5.3,0,8.5,2.8,8.5,7.3a6.9,6.9,0,0,1-5.5,7l6.2,8.7h-4.8Zm-4.8-19.3h-5.9v7.7h5.9c2.9,0,4.7-1.5,4.7-3.9S232.1,33.2,229.1,33.2Z"/></g><g id="77035515-5fb0-4bf5-9b44-92858e104838" data-name="&lt;Gruppo&gt;"><path d="M266.9,29.5v23h-4v-23h4Z"/></g></g></svg>